<svg height="481pt" viewBox="-1 0 481 481.50889" width="481pt" xmlns="http://www.w3.org/2000/svg"><g fill="#78b9eb"><path d="m332.808594 239.503906 33.917968-33.917968 40 40-33.917968 33.917968zm0 0"/><path d="m344.492188 307.828125-40-40.078125-34 34 40.082031 40zm0 0"/><path d="m321.453125 160.308594-24-24-33.921875 33.921875 24 24zm0 0"/><path d="m225.292969 347.027344-16.960938 16.960937 40 40 16.960938-16.960937 16.960937-16.957032-40-40.082031zm0 0"/><path d="m197.453125 104.148438 18.078125 18.082031 33.921875-33.921875-18.082031-18.078125-22.636719-11.28125-22.640625 22.558593zm0 0"/><path d="m174.8125 149.429688-28.320312 28.320312 22.640624 22.558594 16.960938-16.960938 16.960938-16.957031-22.5625-22.640625zm0 0"/><path d="m191.773438 30.628906-56.5625-22.640625 22.640624 56.5625zm0 0"/><path d="m163.054688 318.707031 33.917968-33.917969-135.28125-135.359374-50.957031-16.960938 16.957031 50.878906zm0 0"/><path d="m123.851562 155.109375 34-34-16.957031-39.601563-67.921875-11.277343 11.28125 67.917969zm0 0"/></g><path d="m475.316406 2.117188c-2.988281-1.238282-6.433594-.554688-8.71875 1.734374l-145.144531 145.144532-84.398437-84.421875c-.609376-.617188-1.316407-1.125-2.089844-1.503907l-20.535156-10.21875-15.777344-26.34375c-.046875-.078124-.144532-.117187-.199219-.199218-.574219-.898438-1.324219-1.675782-2.199219-2.289063-.113281-.070312-.234375-.117187-.351562-.191406-.363282-.238281-.742188-.449219-1.136719-.632813l-56.601563-22.621093c-2.972656-1.191407-6.367187-.496094-8.628906 1.769531-2.261718 2.261719-2.960937 5.65625-1.769531 8.628906l22.632813 56.558594c.171874.402344.386718.789062.628906 1.152344.074218.113281.113281.226562.183594.328125.605468.882812 1.386718 1.636719 2.289062 2.210937.082031.054688.121094.148438.207031.199219l26.304688 15.78125 10.296875 20.523437c.382812.765626.882812 1.464844 1.488281 2.070313l84.457031 84.433594-17.042968 17-73.054688-73.128907c-1.5-1.503906-3.53125-2.351562-5.65625-2.351562-2.121094 0-4.15625.84375-5.65625 2.34375l-11.390625-11.296875c2.308594-2.3125 2.980469-5.796875 1.695313-8.800781l-16.96875-39.597656c-1.074219-2.507813-3.351563-4.289063-6.039063-4.738282l-67.855469-11.351562c-.332031-.019532-.660156-.019532-.992187 0h-.511719c-.894531.019531-1.78125.195312-2.617188.511718-.15625.0625-.308593.132813-.457031.207032-1.820312.734375-3.265625 2.179687-4 4-.070312.160156-.148437.3125-.214843.480468-.3125.828126-.480469 1.703126-.503907 2.585938v.542969c-.003906.328125.011719.65625.046875.984375l11.3125 67.878906c.449219 2.6875 2.234375 4.960938 4.738282 6.03125l39.605468 16.976562c3.003906 1.285157 6.488282.613282 8.800782-1.695312l11.328124 11.320312c-1.5 1.5-2.347656 3.535157-2.347656 5.660157s.847656 4.160156 2.347656 5.660156l73.097657 73.097656-16.945313 16.957031-129.601562-129.703124c-.070313-.070313-.175782-.085938-.246094-.160157-.621094-.570312-1.328125-1.039062-2.097656-1.390625-.167969-.082031-.320313-.167968-.496094-.242187-.175781-.070313-.191406-.101563-.292969-.136719l-50.960937-16.964844c-2.875-.957031-6.046875-.207031-8.1875 1.9375-2.140625 2.144532-2.886719 5.316406-1.925782 8.1875l16.960938 50.875c0 .101563.097656.183594.136719.277344.039062.097656.167969.34375.253906.53125.34375.726562.792969 1.398438 1.335937 1.988281.074219.082031.097657.1875.175782.265625l129.714844 129.734375-149.144532 149.144531c-2.289062 2.289063-2.972656 5.730469-1.734375 8.71875 1.238281 2.988282 4.152344 4.9375 7.390625 4.9375h464c4.417969 0 8-3.582031 8-8v-464c0-3.234374-1.949218-6.152343-4.9375-7.390624zm-383.863281 130.367187-6.488281-38.976563 16.296875 16.296876c3.125 3.125 8.191406 3.121093 11.316406-.003907 3.121094-3.125 3.121094-8.191406-.003906-11.316406l-16.320313-16.261719 38.933594 6.496094 13.121094 30.597656-26.28125 26.28125zm60.710937 5.601563 11.289063 11.34375-11.289063 11.277343-11.3125-11.277343zm74.679688-15.882813 22.609375-22.605469 36.6875 36.6875-22.609375 22.632813zm-49.3125-88.652344-16.796875 16.796875-11.203125-28zm12.648438 9.980469 8.472656 14.144531-13.824219 13.777344-14.09375-8.472656zm5.671874 39.578125 14.457032-14.402344 16.34375 8.097657 11.503906 11.503906-22.625 22.609375-11.503906-11.511719zm78.992188 87.121094 22.609375-22.609375 12.6875 12.6875-22.609375 22.609375zm-32.589844 57.964843-44.800781-44.796874 5.679687-5.679688 44.800782 44.796875zm-61.785156-73.085937 11.304688 11.296875-22.664063 22.664062-11.257813-11.335937zm0 45.261719 5.664062-5.671875 44.800782 44.800781-5.65625 5.65625zm-.457031 90.066406-124-124 5.695312-5.671875 124 124.046875zm-133.175781-137.519531-15.65625 15.621093-7.800782-23.429687zm-7.824219 30.4375 5.65625-5.636719 124 124-5.648438 5.644531zm1.242187 269.464843v12.6875h-12.6875zm400 12.6875v-16c0-4.417968-3.582031-8-8-8-4.417968 0-8 3.582032-8 8v16h-16v-16c0-4.417968-3.582031-8-8-8-4.417968 0-8 3.582032-8 8v16h-16v-16c0-4.417968-3.582031-8-8-8-4.417968 0-8 3.582032-8 8v16h-16v-16c0-4.417968-3.582031-8-8-8-4.417968 0-8 3.582032-8 8v16h-16v-16c0-4.417968-3.582031-8-8-8-4.417968 0-8 3.582032-8 8v16h-16v-16c0-4.417968-3.582031-8-8-8-4.417968 0-8 3.582032-8 8v16h-16v-16c0-4.417968-3.582031-8-8-8-4.417968 0-8 3.582032-8 8v16h-16v-16c0-4.417968-3.582031-8-8-8-4.417968 0-8 3.582032-8 8v16h-16v-16c0-4.417968-3.582031-8-8-8-4.417968 0-8 3.582032-8 8v16h-16v-16c0-4.417968-3.582031-8-8-8-4.417968 0-8 3.582032-8 8v16h-16v-16c0-4.417968-3.582031-8-8-8-4.417968 0-8 3.582032-8 8v16h-16v-16c0-4.417968-3.582031-8-8-8-4.417968 0-8 3.582032-8 8v16h-16v-16c-.011718-3.332031-2.105468-6.304687-5.242187-7.4375l151.640625-151.609374 28.34375-28.34375 233.257812-233.296876v20.6875h-16c-4.417968 0-8 3.582032-8 8 0 4.417969 3.582032 8 8 8h16v16h-16c-4.417968 0-8 3.582032-8 8 0 4.417969 3.582032 8 8 8h16v16h-16c-4.417968 0-8 3.582032-8 8 0 4.417969 3.582032 8 8 8h16v16h-16c-4.417968 0-8 3.582032-8 8 0 4.417969 3.582032 8 8 8h16v16h-16c-4.417968 0-8 3.582032-8 8 0 4.417969 3.582032 8 8 8h16v16h-16c-4.417968 0-8 3.582032-8 8 0 4.417969 3.582032 8 8 8h16v16h-16c-4.417968 0-8 3.582032-8 8 0 4.417969 3.582032 8 8 8h16v16h-16c-4.417968 0-8 3.582032-8 8 0 4.417969 3.582032 8 8 8h16v16h-16c-4.417968 0-8 3.582032-8 8 0 4.417969 3.582032 8 8 8h16v16h-16c-4.417968 0-8 3.582032-8 8 0 4.417969 3.582032 8 8 8h16v16h-16c-4.417968 0-8 3.582032-8 8 0 4.417969 3.582032 8 8 8h16v16h-16c-4.417968 0-8 3.582032-8 8 0 4.417969 3.582032 8 8 8h16v16h-16c-4.417968 0-8 3.582032-8 8 0 4.417969 3.582032 8 8 8h16v16zm0 0" fill="#1a6fb0"/><path d="m411.316406 156.628906c-2.988281-1.238281-6.433594-.554687-8.71875 1.734375l-103.664062 103.664063-.089844.058594-.054688.085937-33.855468 33.855469-.105469.066406-.0625.09375-28.074219 28.082031-.085937.054688-.058594.089843-79.445313 79.4375c-2.289062 2.289063-2.972656 5.730469-1.734374 8.71875 1.238281 2.988282 4.15625 4.9375 7.390624 4.9375h245.496094c4.417969 0 8-3.582031 8-8v-245.488281c0-3.234375-1.949218-6.152343-4.9375-7.390625zm-11.0625 71.167969-22.234375-22.230469 22.234375-22.234375zm-33.546875-10.921875 28.746094 28.714844-22.640625 22.605468-28.710938-28.710937zm-62.207031 62.234375 28.6875 28.734375-22.621094 22.617188-28.714844-28.703126zm-39.199219 96.632813-28.710937-28.714844 5.679687-5.679688 28.6875 28.738282zm-16.96875 16.964843-28.710937-28.710937 5.648437-5.648438 28.710938 28.714844zm-40-17.398437 26.207031 26.199218h-52.460937zm53.792969 26.199218 25.785156-25.78125c3.121094-3.125 3.121094-8.191406 0-11.3125l-34.34375-34.402343 16.941406-16.933594 34.402344 34.34375c3.121094 3.117187 8.179688 3.117187 11.300782 0l33.9375-33.914063c3.125-3.121093 3.125-8.1875 0-11.3125l-34.335938-34.398437 16.96875-16.96875 34.398438 34.402344c3.125 3.121093 8.1875 3.121093 11.3125 0l21.761718-21.847657v138.125zm0 0" fill="#1a6fb0"/></svg>