<?xml version="1.0"?>
<svg xmlns="http://www.w3.org/2000/svg" xmlns:xlink="http://www.w3.org/1999/xlink" xmlns:svgjs="http://svgjs.com/svgjs" version="1.1" width="512" height="512" x="0" y="0" viewBox="0 0 256 256" style="enable-background:new 0 0 512 512" xml:space="preserve" class=""><g><script/><circle xmlns="http://www.w3.org/2000/svg" cx="157.881" cy="109.878" fill="#2196f3" r="56.921" data-original="#f9a7a7" style="" class=""/><path xmlns="http://www.w3.org/2000/svg" d="m244.114 126.198c-6.525 37.004-35.292 65.574-71.843 71.564l.073.84c.037.423.019.846-.054 1.259-.286 1.622-1.372 2.96-2.907 3.581-1.521.615-3.224.402-4.556-.566l-12.917-9.394c-1.488-1.081-2.212-2.881-1.892-4.694.165-.938.603-1.797 1.265-2.483l11.089-11.492c1.305-1.354 3.217-1.807 4.989-1.18 1.755.62 2.994 2.223 3.157 4.083l.113 1.297c28.068-5.201 50.112-27.533 55.151-56.114 1.176-6.672 1.375-13.508.59-20.317-4.282-37.125-36.492-64.127-73.33-61.471-31.4 2.263-57.19 25.738-62.718 57.085-1.062 6.024-1.328 12.196-.79 18.346 1.442 16.487 8.68 31.965 20.381 43.584 2.212 2.197 3.211 5.332 2.672 8.39-.281 1.593-.975 3.093-2.009 4.341-1.658 1.998-4.092 3.216-6.677 3.342-2.601.126-5.16-.859-7.02-2.705-14.866-14.748-24.061-34.399-25.893-55.33-.682-7.799-.345-15.627 1.003-23.27 7.192-40.786 40.833-70.649 81.808-72.618 45.84-2.205 85.848 32.199 91.082 78.324.974 8.574.716 17.188-.767 25.598z" fill="#a7cefd" data-original="#ffea92" style="" class=""/><path xmlns="http://www.w3.org/2000/svg" d="m167.609 205.789c-1.397 0-2.78-.44-3.958-1.296l-12.918-9.394c-2.109-1.534-3.139-4.085-2.686-6.659.236-1.334.856-2.552 1.795-3.524l11.089-11.492c1.855-1.925 4.576-2.567 7.095-1.677 2.197.776 3.824 2.636 4.338 4.874 26.173-5.747 46.714-27.223 51.447-54.07 1.144-6.481 1.336-13.123.572-19.741-4.158-36.058-35.421-62.281-71.198-59.705-30.484 2.198-55.524 24.995-60.892 55.438-1.032 5.852-1.29 11.849-.767 17.825 1.401 16.017 8.433 31.053 19.798 42.34 2.676 2.658 3.885 6.455 3.233 10.156-.341 1.933-1.185 3.755-2.439 5.27-2.016 2.43-4.975 3.911-8.119 4.064-3.156.147-6.27-1.044-8.526-3.283-15.201-15.081-24.604-35.173-26.476-56.575-.698-7.972-.353-15.977 1.025-23.792 7.355-41.714 41.767-72.254 83.682-74.268 46.879-2.269 87.813 32.927 93.165 80.095.995 8.766.73 17.572-.786 26.172-6.536 37.068-35.249 66.146-71.732 72.883-.015.262-.046.523-.091.78-.407 2.305-1.95 4.207-4.128 5.086-.819.33-1.673.493-2.523.493zm-1.855-30.437c-.72 0-1.407.292-1.942.847l-11.09 11.493c-.384.398-.638.896-.734 1.442-.186 1.055.235 2.101 1.099 2.729l12.918 9.394c.771.561 1.756.683 2.63.33.891-.36 1.521-1.135 1.687-2.074.043-.24.053-.487.031-.737l-.073-.841c-.091-1.042.637-1.979 1.669-2.147 35.641-5.841 63.851-33.946 70.196-69.937 1.45-8.222 1.703-16.642.751-25.026-5.114-45.081-44.182-78.695-88.999-76.551-40.037 1.923-72.907 31.105-79.936 70.966-1.317 7.471-1.647 15.125-.98 22.749 1.79 20.461 10.778 39.669 25.309 54.084 1.462 1.451 3.468 2.223 5.515 2.127 2.025-.099 3.933-1.054 5.234-2.622.813-.98 1.359-2.161 1.579-3.411.425-2.412-.365-4.888-2.112-6.624-12.035-11.952-19.48-27.872-20.964-44.829-.554-6.324-.28-12.672.812-18.868 5.687-32.251 32.229-56.403 64.544-58.733 37.927-2.733 71.055 25.044 75.46 63.236.807 7.002.603 14.032-.607 20.893-5.147 29.195-27.956 52.397-56.757 57.733-.553.104-1.127-.033-1.575-.375-.448-.341-.732-.856-.781-1.418l-.113-1.297c-.095-1.081-.813-2.011-1.83-2.371-.314-.108-.631-.162-.941-.162z" fill="#3762cc" data-original="#3762cc" style="" class=""/><path xmlns="http://www.w3.org/2000/svg" d="m197.258 140.21-39.377-30.332-44.702 35.215c10.424 13.213 26.566 21.705 44.702 21.705 18.716 0 35.32-9.035 45.694-22.979z" fill="#2196f3" data-original="#6bdddd" style="" class=""/><path xmlns="http://www.w3.org/2000/svg" d="m157.882 131.087c-11.695 0-21.21-9.514-21.21-21.209s9.516-21.209 21.21-21.209c11.695 0 21.209 9.514 21.209 21.209s-9.514 21.209-21.209 21.209z" fill="#2196f3" data-original="#4671c6" style="" class=""/><path xmlns="http://www.w3.org/2000/svg" d="m168.784 73.525-8.103-11.749c-.017-.024-.04-.042-.058-.065-.128-.176-.272-.338-.431-.486-.061-.057-.126-.105-.191-.157-.133-.108-.273-.204-.422-.291-.073-.043-.146-.083-.222-.121-.161-.078-.33-.139-.505-.192-.07-.021-.136-.048-.207-.064-.246-.057-.5-.093-.764-.093s-.517.037-.764.093c-.071.016-.137.043-.207.064-.175.052-.344.114-.505.192-.077.037-.149.078-.222.121-.149.087-.289.184-.422.291-.065.052-.13.1-.191.157-.159.148-.303.31-.431.486-.017.024-.041.041-.058.065l-8.103 11.749c-1.066 1.546-.678 3.664.869 4.731 1.548 1.067 3.667.677 4.731-.869l1.902-2.757v35.248c0 1.878 1.523 3.401 3.401 3.401s3.401-1.523 3.401-3.401v-35.248l1.902 2.757c.659.957 1.722 1.47 2.803 1.47.666 0 1.339-.195 1.928-.601 1.547-1.066 1.936-3.184.869-4.731z" fill="#e0ebfc" data-original="#e0ebfc" style="" class=""/><path xmlns="http://www.w3.org/2000/svg" d="m195.364 141.428c.166-.041.328-.092.487-.158.079-.032.156-.065.231-.103.16-.08.312-.177.459-.283.059-.043.121-.079.178-.126.195-.161.378-.34.539-.549s.286-.433.391-.663c.03-.067.049-.136.076-.204.065-.17.119-.341.155-.517.017-.083.029-.166.04-.25.022-.171.03-.34.026-.511-.002-.083-.001-.165-.009-.248-.02-.214-.062-.425-.122-.632-.009-.03-.008-.061-.018-.091l-4.389-13.581c-.578-1.787-2.496-2.768-4.283-2.191-1.787.578-2.768 2.495-2.191 4.282l1.031 3.188-27.964-21.457c-1.49-1.143-3.625-.862-4.769.628-1.143 1.49-.862 3.625.628 4.769l27.964 21.457-3.346-.17c-1.876-.095-3.473 1.349-3.569 3.225-.06 1.161.471 2.215 1.329 2.873.528.405 1.181.66 1.896.696l14.254.724c.031.002.061-.007.093-.007.215.005.43-.01.642-.046.081-.013.16-.035.241-.055z" fill="#e0ebfc" data-original="#e0ebfc" style="" class=""/><path xmlns="http://www.w3.org/2000/svg" d="m127.14 233.825h-107.068c-5.264 0-9.531-4.267-9.531-9.531v-73.391c0-5.264 4.267-9.531 9.531-9.531h107.068c5.264 0 9.531 4.267 9.531 9.531v73.391c0 5.264-4.267 9.531-9.531 9.531z" fill="#2196f3" data-original="#4671c6" style="" class=""/><path xmlns="http://www.w3.org/2000/svg" d="m10.541 150.903v25.734c0 3.158 2.56 5.719 5.719 5.719h114.693c3.158 0 5.719-2.56 5.719-5.719v-25.734c0-5.264-4.267-9.531-9.531-9.531h-107.069c-5.264 0-9.531 4.267-9.531 9.531z" fill="#a4c9ff" data-original="#a4c9ff" style=""/><path xmlns="http://www.w3.org/2000/svg" d="m109.034 123.124c-2.356-4.229-6.817-6.851-11.658-6.851h-18.845-9.849-18.846c-4.841 0-9.302 2.622-11.658 6.851l-10.163 18.248h13.185l7.224-11.549c1.674-2.677 4.845-4.336 8.286-4.336h13.396 7.001 13.396c3.441 0 6.612 1.659 8.286 4.336l7.224 11.549h13.185z" fill="#2196f3" data-original="#4671c6" style="" class=""/><g xmlns="http://www.w3.org/2000/svg" fill="#3762cc"><path d="m127.14 235.825h-107.068c-6.358 0-11.531-5.173-11.531-11.531v-73.391c0-6.358 5.173-11.531 11.531-11.531h107.068c6.359 0 11.532 5.173 11.532 11.531v73.391c0 6.358-5.173 11.531-11.532 11.531zm-107.068-92.453c-4.153 0-7.531 3.378-7.531 7.531v73.391c0 4.153 3.378 7.531 7.531 7.531h107.068c4.153 0 7.532-3.378 7.532-7.531v-73.391c0-4.153-3.379-7.531-7.532-7.531z" fill="#3762cc" data-original="#3762cc" style="" class=""/><path d="m130.953 184.356h-114.693c-4.256 0-7.719-3.462-7.719-7.719v-25.734c0-6.358 5.173-11.531 11.531-11.531h107.068c6.359 0 11.532 5.173 11.532 11.531v25.734c0 4.257-3.463 7.719-7.719 7.719zm-110.881-40.984c-4.153 0-7.531 3.378-7.531 7.531v25.734c0 2.05 1.668 3.719 3.719 3.719h114.693c2.051 0 3.719-1.668 3.719-3.719v-25.734c0-4.153-3.379-7.531-7.532-7.531z" fill="#3762cc" data-original="#3762cc" style="" class=""/><path d="m119.198 143.372h-13.185c-.689 0-1.33-.355-1.696-.939l-7.225-11.549c-1.31-2.095-3.835-3.396-6.59-3.396h-33.792c-2.755 0-5.281 1.301-6.591 3.396l-7.224 11.549c-.366.584-1.006.939-1.696.939h-13.184c-.709 0-1.365-.375-1.724-.987-.359-.611-.368-1.367-.023-1.986l10.164-18.248c2.707-4.859 7.843-7.878 13.405-7.878h47.541c5.562 0 10.698 3.019 13.405 7.878l10.164 18.248c.345.62.336 1.375-.023 1.986-.361.611-1.017.987-1.726.987zm-12.077-4h8.674l-8.507-15.275c-2.001-3.592-5.799-5.824-9.911-5.824h-47.541c-4.112 0-7.91 2.232-9.911 5.824l-8.507 15.275h8.674l6.636-10.61c2.036-3.254 5.86-5.275 9.982-5.275h33.792c4.122 0 7.946 2.021 9.982 5.275z" fill="#3762cc" data-original="#3762cc" style="" class=""/></g><path xmlns="http://www.w3.org/2000/svg" d="m86.95 191.57h-26.688c-2.106 0-3.813-1.707-3.813-3.813v-10.167c0-2.106 1.707-3.813 3.813-3.813h26.688c2.106 0 3.813 1.707 3.813 3.813v10.167c-.001 2.106-1.707 3.813-3.813 3.813z" fill="#bddbff" data-original="#f9cfcf" style="" class=""/><path xmlns="http://www.w3.org/2000/svg" d="m32.939 204.119c-3.948 0-7.148-3.2-7.148-7.148v-28.594c0-3.948 3.2-7.148 7.148-7.148 3.948 0 7.148 3.2 7.148 7.148v28.594c.001 3.948-3.2 7.148-7.148 7.148z" fill="#2196f3" data-original="#f9a7a7" style="" class=""/><path xmlns="http://www.w3.org/2000/svg" d="m114.273 204.119c-3.948 0-7.148-3.2-7.148-7.148v-28.594c0-3.948 3.2-7.148 7.148-7.148 3.948 0 7.148 3.2 7.148 7.148v28.594c0 3.948-3.2 7.148-7.148 7.148z" fill="#2196f3" data-original="#f9a7a7" style="" class=""/><path xmlns="http://www.w3.org/2000/svg" d="m86.95 193.57h-26.688c-3.205 0-5.813-2.607-5.813-5.813v-10.167c0-3.205 2.607-5.813 5.813-5.813h26.688c3.205 0 5.813 2.607 5.813 5.813v10.167c0 3.205-2.608 5.813-5.813 5.813zm-26.688-17.792c-1 0-1.813.813-1.813 1.813v10.167c0 1 .813 1.813 1.813 1.813h26.688c1 0 1.813-.813 1.813-1.813v-10.168c0-1-.813-1.813-1.813-1.813h-26.688z" fill="#3762cc" data-original="#3762cc" style="" class=""/><path xmlns="http://www.w3.org/2000/svg" d="m32.939 206.119c-5.044 0-9.148-4.104-9.148-9.148v-28.594c0-5.044 4.104-9.148 9.148-9.148s9.148 4.104 9.148 9.148v28.594c.001 5.044-4.103 9.148-9.148 9.148zm0-42.89c-2.839 0-5.148 2.31-5.148 5.148v28.594c0 2.839 2.31 5.148 5.148 5.148s5.148-2.31 5.148-5.148v-28.594c.001-2.839-2.309-5.148-5.148-5.148z" fill="#3762cc" data-original="#3762cc" style="" class=""/><path xmlns="http://www.w3.org/2000/svg" d="m114.273 206.119c-5.044 0-9.148-4.104-9.148-9.148v-28.594c0-5.044 4.104-9.148 9.148-9.148s9.148 4.104 9.148 9.148v28.594c0 5.044-4.104 9.148-9.148 9.148zm0-42.89c-2.839 0-5.148 2.31-5.148 5.148v28.594c0 2.839 2.31 5.148 5.148 5.148s5.148-2.31 5.148-5.148v-28.594c0-2.839-2.309-5.148-5.148-5.148z" fill="#3762cc" data-original="#3762cc" style="" class=""/></g></svg>
