<?xml version="1.0"?>
<svg xmlns="http://www.w3.org/2000/svg" id="icons" enable-background="new 0 0 64 64" height="512px" viewBox="0 0 64 64"
     width="512px" class="">
    <g>
        <script xmlns=""/>
        <path d="m20 54.995h-15v-19h15zm-11-13v5h7v-5h-1.5v-.99c0-1.11-.9-2-2-2s-2 .89-2 2v.99z" fill="#d7e9ff"
              data-original="#D7E9FF"/>
        <path d="m16 41.995v5h-7v-5h1.5 4z" fill="#94c1ff" data-original="#94C1FF" class=""/>
        <path d="m14.5 41.995h-4v-.99c0-1.11.9-2 2-2s2 .89 2 2z" fill="#d7e9ff" data-original="#D7E9FF"/>
        <path d="m35 41.995v5h-7v-5h1.5 4z" fill="#94c1ff" data-original="#94C1FF" class=""/>
        <path d="m33.5 41.005v.99h-4v-.99c0-1.11.9-2 2-2s2 .89 2 2z" fill="#d7e9ff" data-original="#D7E9FF"/>
        <path d="m39 54.995h-15v-19h15zm-11-8h7v-5h-1.5v-.99c0-1.11-.9-2-2-2s-2 .89-2 2v.99h-1.5z" fill="#d7e9ff"
              data-original="#D7E9FF"/>
        <path d="m59 12.995v42h-16v-42zm-4 36.5c0-.83-.67-1.5-1.5-1.5h-5c-.83 0-1.5.67-1.5 1.5s.67 1.5 1.5 1.5h5c.83 0 1.5-.67 1.5-1.5z"
              fill="#d7e9ff" data-original="#D7E9FF"/>
        <path d="m53.5 47.995c.83 0 1.5.67 1.5 1.5s-.67 1.5-1.5 1.5h-5c-.83 0-1.5-.67-1.5-1.5s.67-1.5 1.5-1.5z"
              fill="#94c1ff" data-original="#94C1FF" class=""/>
        <path d="m35 19.005v4.99h-7v-4.99h1.5 4z" fill="#94c1ff" data-original="#94C1FF" class=""/>
        <path d="m33.5 18.005v1h-4v-1c0-1.11.9-2 2-2s2 .89 2 2z" fill="#d7e9ff" data-original="#D7E9FF"/>
        <path d="m39 31.995h-15v-19h15zm-11-8h7v-4.99h-1.5v-1c0-1.11-.9-2-2-2s-2 .89-2 2v1h-1.5z" fill="#d7e9ff"
              data-original="#D7E9FF"/>
        <path d="m14.5 19.005h-4v-1c0-1.11.9-2 2-2s2 .89 2 2z" fill="#d7e9ff" data-original="#D7E9FF"/>
        <path d="m16 19.005v4.99h-7v-4.99h1.5 4z" fill="#94c1ff" data-original="#94C1FF" class=""/>
        <path d="m20 31.995h-15v-19h15zm-9.5-13.99v1h-1.5v4.99h7v-4.99h-1.5v-1c0-1.11-.9-2-2-2s-2 .89-2 2z"
              fill="#d7e9ff" data-original="#D7E9FF"/>
        <path d="m63 8.995h-62v-2c0-1.101.89-2 2-2h58c1.11 0 2 .899 2 2z" fill="#d7e9ff" data-original="#D7E9FF"/>
        <path d="m63 8.995v50.01h-62v-50.01zm-4 46v-42h-16v42zm-20 0v-19h-15v19zm0-23v-19h-15v19zm-19 23v-19h-15v19zm0-23v-19h-15v19z"
              fill="#fff" data-original="#FFF"/>
        <g fill="#116fff">
            <path d="m1 7.998c-.553 0-1-.448-1-1 0-1.654 1.346-3 3-3 .553 0 1 .448 1 1s-.447 1-1 1c-.552 0-1 .449-1 1 0 .552-.447 1-1 1z"
                  data-original="#116FFF" class="active-path" style="fill:#2296F3" data-old_color="#116FFF"/>
            <path d="m63 7.998c-.553 0-1-.448-1-1 0-.551-.448-1-1-1-.553 0-1-.448-1-1s.447-1 1-1c1.654 0 3 1.346 3 3 0 .552-.447 1-1 1z"
                  data-original="#116FFF" class="active-path" style="fill:#2296F3" data-old_color="#116FFF"/>
            <path d="m61 5.998h-58c-.553 0-1-.448-1-1s.447-1 1-1h58c.553 0 1 .448 1 1s-.447 1-1 1z"
                  data-original="#116FFF" class="active-path" style="fill:#2296F3" data-old_color="#116FFF"/>
            <path d="m4.03 7.998c-.553 0-1.005-.448-1.005-1s.442-1 .994-1h.011c.552 0 1 .448 1 1s-.448 1-1 1z"
                  data-original="#116FFF" class="active-path" style="fill:#2296F3" data-old_color="#116FFF"/>
            <path d="m7.029 7.998c-.553 0-1.005-.448-1.005-1s.442-1 .994-1h.011c.552 0 1 .448 1 1s-.448 1-1 1z"
                  data-original="#116FFF" class="active-path" style="fill:#2296F3" data-old_color="#116FFF"/>
            <path d="m10.032 7.998c-.553 0-1.005-.448-1.005-1s.442-1 .994-1h.011c.552 0 1 .448 1 1s-.448 1-1 1z"
                  data-original="#116FFF" class="active-path" style="fill:#2296F3" data-old_color="#116FFF"/>
            <path d="m1 60.002c-.553 0-1-.447-1-1v-52.004c0-.552.447-1 1-1s1 .448 1 1v52.004c0 .553-.447 1-1 1z"
                  data-original="#116FFF" class="active-path" style="fill:#2296F3" data-old_color="#116FFF"/>
            <path d="m63 60.002c-.553 0-1-.447-1-1v-52.004c0-.552.447-1 1-1s1 .448 1 1v52.004c0 .553-.447 1-1 1z"
                  data-original="#116FFF" class="active-path" style="fill:#2296F3" data-old_color="#116FFF"/>
            <path d="m63 9.998h-62c-.553 0-1-.448-1-1s.447-1 1-1h62c.553 0 1 .448 1 1s-.447 1-1 1z"
                  data-original="#116FFF" class="active-path" style="fill:#2296F3" data-old_color="#116FFF"/>
            <path d="m63 60.002h-62c-.553 0-1-.447-1-1s.447-1 1-1h62c.553 0 1 .447 1 1s-.447 1-1 1z"
                  data-original="#116FFF" class="active-path" style="fill:#2296F3" data-old_color="#116FFF"/>
            <path d="m19.999 32.996h-14.999c-.553 0-1-.448-1-1v-18.998c0-.552.447-1 1-1h14.999c.553 0 1 .448 1 1v18.998c0 .552-.447 1-1 1zm-13.999-2h12.999v-16.998h-12.999z"
                  data-original="#116FFF" class="active-path" style="fill:#2296F3" data-old_color="#116FFF"/>
            <path d="m16 24.998h-7.001c-.553 0-1-.448-1-1v-4.998c0-.552.447-1 1-1h7.001c.553 0 1 .448 1 1v4.998c0 .552-.447 1-1 1zm-6.001-2h5.001v-2.998h-5.001z"
                  data-original="#116FFF" class="active-path" style="fill:#2296F3" data-old_color="#116FFF"/>
            <path d="m14.5 19c-.553 0-1-.448-1-1 0-.551-.448-1-1-1s-1 .449-1 1c0 .552-.447 1-1 1s-1-.448-1-1c0-1.654 1.346-3 3-3s3 1.346 3 3c0 .552-.447 1-1 1z"
                  data-original="#116FFF" class="active-path" style="fill:#2296F3" data-old_color="#116FFF"/>
            <path d="m10.5 20c-.553 0-1-.448-1-1v-1c0-.552.447-1 1-1s1 .448 1 1v1c0 .552-.447 1-1 1z"
                  data-original="#116FFF" class="active-path" style="fill:#2296F3" data-old_color="#116FFF"/>
            <path d="m14.5 20c-.553 0-1-.448-1-1v-1c0-.552.447-1 1-1s1 .448 1 1v1c0 .552-.447 1-1 1z"
                  data-original="#116FFF" class="active-path" style="fill:#2296F3" data-old_color="#116FFF"/>
            <path d="m11.996 28.998h-2.999c-.553 0-1-.448-1-1s.447-1 1-1h2.999c.553 0 1 .448 1 1s-.447 1-1 1z"
                  data-original="#116FFF" class="active-path" style="fill:#2296F3" data-old_color="#116FFF"/>
            <path d="m15.997 27.998h-1c-.553 0-1-.448-1-1s.447-1 1-1h1c.553 0 1 .448 1 1s-.447 1-1 1z"
                  data-original="#116FFF" class="active-path" style="fill:#2296F3" data-old_color="#116FFF"/>
            <path d="m15.998 29.998c-.367 0-.72-.202-.896-.553l-1-2c-.247-.494-.047-1.095.447-1.342.495-.247 1.094-.047 1.342.447l1 2c.247.494.047 1.095-.447 1.342-.143.072-.296.106-.446.106z"
                  data-original="#116FFF" class="active-path" style="fill:#2296F3" data-old_color="#116FFF"/>
            <path d="m15.997 29.998h-1c-.553 0-1-.448-1-1s.447-1 1-1h1c.553 0 1 .448 1 1s-.447 1-1 1z"
                  data-original="#116FFF" class="active-path" style="fill:#2296F3" data-old_color="#116FFF"/>
            <path d="m38.999 32.996h-14.999c-.553 0-1-.448-1-1v-18.998c0-.552.447-1 1-1h14.999c.553 0 1 .448 1 1v18.998c0 .552-.447 1-1 1zm-13.999-2h12.999v-16.998h-12.999z"
                  data-original="#116FFF" class="active-path" style="fill:#2296F3" data-old_color="#116FFF"/>
            <path d="m35 24.998h-7.001c-.553 0-1-.448-1-1v-4.998c0-.552.447-1 1-1h7.001c.553 0 1 .448 1 1v4.998c0 .552-.447 1-1 1zm-6.001-2h5.001v-2.998h-5.001z"
                  data-original="#116FFF" class="active-path" style="fill:#2296F3" data-old_color="#116FFF"/>
            <path d="m33.5 19c-.553 0-1-.448-1-1 0-.551-.448-1-1-1s-1 .449-1 1c0 .552-.447 1-1 1s-1-.448-1-1c0-1.654 1.346-3 3-3s3 1.346 3 3c0 .552-.447 1-1 1z"
                  data-original="#116FFF" class="active-path" style="fill:#2296F3" data-old_color="#116FFF"/>
            <path d="m29.5 20c-.553 0-1-.448-1-1v-1c0-.552.447-1 1-1s1 .448 1 1v1c0 .552-.447 1-1 1z"
                  data-original="#116FFF" class="active-path" style="fill:#2296F3" data-old_color="#116FFF"/>
            <path d="m33.5 20c-.553 0-1-.448-1-1v-1c0-.552.447-1 1-1s1 .448 1 1v1c0 .552-.447 1-1 1z"
                  data-original="#116FFF" class="active-path" style="fill:#2296F3" data-old_color="#116FFF"/>
            <path d="m30.996 28.998h-2.999c-.553 0-1-.448-1-1s.447-1 1-1h2.999c.553 0 1 .448 1 1s-.447 1-1 1z"
                  data-original="#116FFF" class="active-path" style="fill:#2296F3" data-old_color="#116FFF"/>
            <path d="m34.997 27.998h-1c-.553 0-1-.448-1-1s.447-1 1-1h1c.553 0 1 .448 1 1s-.447 1-1 1z"
                  data-original="#116FFF" class="active-path" style="fill:#2296F3" data-old_color="#116FFF"/>
            <path d="m34.998 29.998c-.367 0-.72-.202-.896-.553l-1-2c-.247-.494-.047-1.095.447-1.342s1.095-.047 1.342.447l1 2c.247.494.047 1.095-.447 1.342-.143.072-.296.106-.446.106z"
                  data-original="#116FFF" class="active-path" style="fill:#2296F3" data-old_color="#116FFF"/>
            <path d="m34.997 29.998h-1c-.553 0-1-.448-1-1s.447-1 1-1h1c.553 0 1 .448 1 1s-.447 1-1 1z"
                  data-original="#116FFF" class="active-path" style="fill:#2296F3" data-old_color="#116FFF"/>
            <path d="m19.999 55.996h-14.999c-.553 0-1-.447-1-1v-18.998c0-.553.447-1 1-1h14.999c.553 0 1 .447 1 1v18.998c0 .553-.447 1-1 1zm-13.999-2h12.999v-16.998h-12.999z"
                  data-original="#116FFF" class="active-path" style="fill:#2296F3" data-old_color="#116FFF"/>
            <path d="m16 47.998h-7.001c-.553 0-1-.447-1-1v-4.999c0-.553.447-1 1-1h7.001c.553 0 1 .447 1 1v4.999c0 .553-.447 1-1 1zm-6.001-2h5.001v-2.999h-5.001z"
                  data-original="#116FFF" class="active-path" style="fill:#2296F3" data-old_color="#116FFF"/>
            <path d="m14.5 42c-.553 0-1-.447-1-1 0-.552-.448-1-1-1s-1 .448-1 1c0 .553-.447 1-1 1s-1-.447-1-1c0-1.654 1.346-3 3-3s3 1.346 3 3c0 .553-.447 1-1 1z"
                  data-original="#116FFF" class="active-path" style="fill:#2296F3" data-old_color="#116FFF"/>
            <path d="m10.5 42.999c-.553 0-1-.447-1-1v-.999c0-.553.447-1 1-1s1 .447 1 1v.999c0 .553-.447 1-1 1z"
                  data-original="#116FFF" class="active-path" style="fill:#2296F3" data-old_color="#116FFF"/>
            <path d="m14.5 42.999c-.553 0-1-.447-1-1v-.999c0-.553.447-1 1-1s1 .447 1 1v.999c0 .553-.447 1-1 1z"
                  data-original="#116FFF" class="active-path" style="fill:#2296F3" data-old_color="#116FFF"/>
            <path d="m11.996 51.998h-2.999c-.553 0-1-.447-1-1s.447-1 1-1h2.999c.553 0 1 .447 1 1s-.447 1-1 1z"
                  data-original="#116FFF" class="active-path" style="fill:#2296F3" data-old_color="#116FFF"/>
            <path d="m15.997 50.998h-1c-.553 0-1-.447-1-1s.447-1 1-1h1c.553 0 1 .447 1 1s-.447 1-1 1z"
                  data-original="#116FFF" class="active-path" style="fill:#2296F3" data-old_color="#116FFF"/>
            <path d="m15.998 52.998c-.367 0-.72-.202-.896-.553l-1-2c-.247-.494-.047-1.095.447-1.342.495-.245 1.094-.047 1.342.447l1 2c.247.494.047 1.095-.447 1.342-.143.072-.296.106-.446.106z"
                  data-original="#116FFF" class="active-path" style="fill:#2296F3" data-old_color="#116FFF"/>
            <path d="m15.997 52.998h-1c-.553 0-1-.447-1-1s.447-1 1-1h1c.553 0 1 .447 1 1s-.447 1-1 1z"
                  data-original="#116FFF" class="active-path" style="fill:#2296F3" data-old_color="#116FFF"/>
            <path d="m38.999 55.996h-14.999c-.553 0-1-.447-1-1v-18.998c0-.553.447-1 1-1h14.999c.553 0 1 .447 1 1v18.998c0 .553-.447 1-1 1zm-13.999-2h12.999v-16.998h-12.999z"
                  data-original="#116FFF" class="active-path" style="fill:#2296F3" data-old_color="#116FFF"/>
            <path d="m35 47.998h-7.001c-.553 0-1-.447-1-1v-4.999c0-.553.447-1 1-1h7.001c.553 0 1 .447 1 1v4.999c0 .553-.447 1-1 1zm-6.001-2h5.001v-2.999h-5.001z"
                  data-original="#116FFF" class="active-path" style="fill:#2296F3" data-old_color="#116FFF"/>
            <path d="m33.5 42c-.553 0-1-.447-1-1 0-.552-.448-1-1-1s-1 .448-1 1c0 .553-.447 1-1 1s-1-.447-1-1c0-1.654 1.346-3 3-3s3 1.346 3 3c0 .553-.447 1-1 1z"
                  data-original="#116FFF" class="active-path" style="fill:#2296F3" data-old_color="#116FFF"/>
            <path d="m29.5 42.999c-.553 0-1-.447-1-1v-.999c0-.553.447-1 1-1s1 .447 1 1v.999c0 .553-.447 1-1 1z"
                  data-original="#116FFF" class="active-path" style="fill:#2296F3" data-old_color="#116FFF"/>
            <path d="m33.5 42.999c-.553 0-1-.447-1-1v-.999c0-.553.447-1 1-1s1 .447 1 1v.999c0 .553-.447 1-1 1z"
                  data-original="#116FFF" class="active-path" style="fill:#2296F3" data-old_color="#116FFF"/>
            <path d="m30.996 51.998h-2.999c-.553 0-1-.447-1-1s.447-1 1-1h2.999c.553 0 1 .447 1 1s-.447 1-1 1z"
                  data-original="#116FFF" class="active-path" style="fill:#2296F3" data-old_color="#116FFF"/>
            <path d="m34.997 50.998h-1c-.553 0-1-.447-1-1s.447-1 1-1h1c.553 0 1 .447 1 1s-.447 1-1 1z"
                  data-original="#116FFF" class="active-path" style="fill:#2296F3" data-old_color="#116FFF"/>
            <path d="m34.998 52.998c-.367 0-.72-.202-.896-.553l-1-2c-.247-.494-.047-1.095.447-1.342.494-.245 1.095-.047 1.342.447l1 2c.247.494.047 1.095-.447 1.342-.143.072-.296.106-.446.106z"
                  data-original="#116FFF" class="active-path" style="fill:#2296F3" data-old_color="#116FFF"/>
            <path d="m34.997 52.998h-1c-.553 0-1-.447-1-1s.447-1 1-1h1c.553 0 1 .447 1 1s-.447 1-1 1z"
                  data-original="#116FFF" class="active-path" style="fill:#2296F3" data-old_color="#116FFF"/>
            <path d="m58.999 55.997h-15.999c-.553 0-1-.447-1-1v-41.999c0-.552.447-1 1-1h15.999c.553 0 1 .448 1 1v41.999c0 .553-.447 1-1 1zm-14.999-2h13.999v-39.999h-13.999z"
                  data-original="#116FFF" class="active-path" style="fill:#2296F3" data-old_color="#116FFF"/>
            <path d="m47.034 30.004c-.553 0-1.005-.448-1.005-1s.442-1 .994-1h.011c.552 0 1 .448 1 1s-.448 1-1 1z"
                  data-original="#116FFF" class="active-path" style="fill:#2296F3" data-old_color="#116FFF"/>
            <path d="m54.998 30.004h-4.994c-.553 0-1-.448-1-1s.447-1 1-1h4.994c.553 0 1 .448 1 1s-.447 1-1 1z"
                  data-original="#116FFF" class="active-path" style="fill:#2296F3" data-old_color="#116FFF"/>
            <path d="m47.034 27.003c-.553 0-1.005-.448-1.005-1s.442-1 .994-1h.011c.552 0 1 .448 1 1s-.448 1-1 1z"
                  data-original="#116FFF" class="active-path" style="fill:#2296F3" data-old_color="#116FFF"/>
            <path d="m54.998 27.003h-4.994c-.553 0-1-.448-1-1s.447-1 1-1h4.994c.553 0 1 .448 1 1s-.447 1-1 1z"
                  data-original="#116FFF" class="active-path" style="fill:#2296F3" data-old_color="#116FFF"/>
            <path d="m54.998 18h-7.998c-.553 0-1-.448-1-1s.447-1 1-1h7.998c.553 0 1 .448 1 1s-.447 1-1 1z"
                  data-original="#116FFF" class="active-path" style="fill:#2296F3" data-old_color="#116FFF"/>
            <path d="m52.999 21.002h-4c-.553 0-1-.448-1-1s.447-1 1-1h4c.553 0 1 .448 1 1s-.447 1-1 1z"
                  data-original="#116FFF" class="active-path" style="fill:#2296F3" data-old_color="#116FFF"/>
            <path d="m47.034 36.005c-.553 0-1.005-.447-1.005-1s.442-1 .994-1h.011c.552 0 1 .447 1 1s-.448 1-1 1z"
                  data-original="#116FFF" class="active-path" style="fill:#2296F3" data-old_color="#116FFF"/>
            <path d="m54.998 36.005h-4.994c-.553 0-1-.447-1-1s.447-1 1-1h4.994c.553 0 1 .447 1 1s-.447 1-1 1z"
                  data-original="#116FFF" class="active-path" style="fill:#2296F3" data-old_color="#116FFF"/>
            <path d="m47.034 33.002c-.553 0-1.005-.448-1.005-1s.442-1 .994-1h.011c.552 0 1 .448 1 1s-.448 1-1 1z"
                  data-original="#116FFF" class="active-path" style="fill:#2296F3" data-old_color="#116FFF"/>
            <path d="m54.998 33.002h-4.994c-.553 0-1-.448-1-1s.447-1 1-1h4.994c.553 0 1 .448 1 1s-.447 1-1 1z"
                  data-original="#116FFF" class="active-path" style="fill:#2296F3" data-old_color="#116FFF"/>
            <path d="m47.034 42.007c-.553 0-1.005-.447-1.005-1s.442-1 .994-1h.011c.552 0 1 .447 1 1s-.448 1-1 1z"
                  data-original="#116FFF" class="active-path" style="fill:#2296F3" data-old_color="#116FFF"/>
            <path d="m54.998 42.007h-4.994c-.553 0-1-.447-1-1s.447-1 1-1h4.994c.553 0 1 .447 1 1s-.447 1-1 1z"
                  data-original="#116FFF" class="active-path" style="fill:#2296F3" data-old_color="#116FFF"/>
            <path d="m47.034 39.005c-.553 0-1.005-.447-1.005-1s.442-1 .994-1h.011c.552 0 1 .447 1 1s-.448 1-1 1z"
                  data-original="#116FFF" class="active-path" style="fill:#2296F3" data-old_color="#116FFF"/>
            <path d="m54.998 39.005h-4.994c-.553 0-1-.447-1-1s.447-1 1-1h4.994c.553 0 1 .447 1 1s-.447 1-1 1z"
                  data-original="#116FFF" class="active-path" style="fill:#2296F3" data-old_color="#116FFF"/>
            <path d="m53.501 51.997h-5.002c-.553 0-1-.447-1-1s.447-1 1-1h5.002c.553 0 1 .447 1 1s-.447 1-1 1z"
                  data-original="#116FFF" class="active-path" style="fill:#2296F3" data-old_color="#116FFF"/>
            <path d="m53.501 48.997h-5.002c-.553 0-1-.447-1-1s.447-1 1-1h5.002c.553 0 1 .447 1 1s-.447 1-1 1z"
                  data-original="#116FFF" class="active-path" style="fill:#2296F3" data-old_color="#116FFF"/>
            <path d="m48.499 51.997c-1.379 0-2.5-1.121-2.5-2.5s1.121-2.5 2.5-2.5c.553 0 1 .447 1 1s-.447 1-1 1c-.275 0-.5.225-.5.5s.225.5.5.5c.553 0 1 .447 1 1s-.447 1-1 1z"
                  data-original="#116FFF" class="active-path" style="fill:#2296F3" data-old_color="#116FFF"/>
            <path d="m53.501 51.997c-.553 0-1-.447-1-1s.447-1 1-1c.275 0 .5-.225.5-.5s-.225-.5-.5-.5c-.553 0-1-.447-1-1s.447-1 1-1c1.379 0 2.5 1.121 2.5 2.5s-1.121 2.5-2.5 2.5z"
                  data-original="#116FFF" class="active-path" style="fill:#2296F3" data-old_color="#116FFF"/>
        </g>
    </g>
</svg>
