<?xml version="1.0"?>
<svg xmlns="http://www.w3.org/2000/svg" height="512px" viewBox="-48 0 480 480" width="512px" class=""><g><script xmlns=""/><path d="m208.003906 24c0 8.835938-7.164062 16-16 16-8.835937 0-16-7.164062-16-16s7.164063-16 16-16c8.835938 0 16 7.164062 16 16zm0 0" fill="#bddbff" data-original="#BDDBFF" class=""/><path d="m232.003906 72c4.417969 0 8-3.582031 8-8v-16c0-4.417969-3.582031-8-8-8h-80c-4.417968 0-8 3.582031-8 8v16c0 4.417969 3.582032 8 8 8zm0 0" fill="#bddbff" data-original="#BDDBFF" class=""/><path d="m168.003906 72h48v32h-48zm0 0" fill="#bddbff" data-original="#BDDBFF" class=""/><path d="m168.003906 232h48v32h-48zm0 0" fill="#bddbff" data-original="#BDDBFF" class=""/><path d="m168.003906 464c0 4.417969 3.582032 8 8 8h32c4.417969 0 8-3.582031 8-8v-72h-48zm0 0" fill="#bddbff" data-original="#BDDBFF" class=""/><g fill="#3d9ae2"><path d="m128.003906 184c0 4.417969-3.582031 8-8 8h-16c-4.417968 0-8-3.582031-8-8h-16c0 13.253906 10.746094 24 24 24h16c13.257813 0 24-10.746094 24-24v-56h-16zm0 0" data-original="#000000" class="active-path" data-old_color="#000000" style="fill:#004EC7"/><path d="m200.003906 208c13.257813 0 24-10.746094 24-24v-32c0-13.253906-10.742187-24-24-24h-16c-13.253906 0-24 10.746094-24 24v32c0 13.253906 10.746094 24 24 24zm-24-24v-32c0-4.417969 3.582032-8 8-8h16c4.417969 0 8 3.582031 8 8v32c0 4.417969-3.582031 8-8 8h-16c-4.417968 0-8-3.582031-8-8zm0 0" data-original="#000000" class="active-path" data-old_color="#000000" style="fill:#004EC7"/><path d="m248.003906 208h32c9.484375.042969 18.097656-5.53125 21.945313-14.199219 3.851562-8.667969 2.207031-18.792969-4.183594-25.800781 6.390625-7.007812 8.035156-17.132812 4.183594-25.800781-3.847657-8.667969-12.460938-14.242188-21.945313-14.199219h-32c-4.417968 0-8 3.582031-8 8v64c0 4.417969 3.582032 8 8 8zm32-16h-24v-16h24c4.417969 0 8 3.582031 8 8s-3.582031 8-8 8zm-24-48h24c4.417969 0 8 3.582031 8 8s-3.582031 8-8 8h-24zm0 0" data-original="#000000" class="active-path" data-old_color="#000000" style="fill:#004EC7"/><path d="m368.003906 240c8.835938 0 16-7.164062 16-16v-112c0-8.835938-7.164062-16-16-16h-144v-16h8c8.835938 0 16-7.164062 16-16v-16c0-8.835938-7.164062-16-16-16h-17.472656c.949219-2.5625 1.445312-5.269531 1.472656-8 0-13.253906-10.742187-24-24-24-13.253906 0-24 10.746094-24 24 .027344 2.730469.527344 5.4375 1.472656 8h-17.472656c-8.835937 0-16 7.164062-16 16v16c0 8.835938 7.164063 16 16 16h8v16h-111.941406c-2.757812 0-5.320312 1.414062-6.785156 3.753906l-40.054688 64c-1.628906 2.597656-1.628906 5.894532 0 8.492188l40.054688 64c1.464844 2.339844 4.027344 3.753906 6.785156 3.753906h111.941406v16h-144c-8.835937 0-15.99999975 7.164062-15.99999975 16v112c0 8.835938 7.16406275 16 15.99999975 16h144v64c0 8.835938 7.164063 16 16 16h32c8.835938 0 16-7.164062 16-16v-64h111.945313c2.757812 0 5.320312-1.414062 6.785156-3.753906l40.054687-64c1.628907-2.597656 1.628907-5.894532 0-8.492188l-40.054687-64c-1.464844-2.339844-4.027344-3.753906-6.785156-3.753906h-111.945313v-16zm-184-216c0-4.417969 3.582032-8 8-8 4.417969 0 8 3.582031 8 8s-3.582031 8-8 8c-4.417968 0-8-3.582031-8-8zm-32 24h80v16h-80zm24 32h32v16h-32zm-158.558594 88 35.046876-56h315.511718v112h-315.511718zm190.558594 296h-32v-64h32zm158.5625-136-35.050781 56h-315.511719v-112h315.511719zm-158.5625-72h-32v-16h32zm0 0" data-original="#000000" class="active-path" data-old_color="#000000" style="fill:#004EC7"/><path d="m128.003906 344c0 4.417969-3.582031 8-8 8h-16c-4.417968 0-8-3.582031-8-8h-16c0 13.253906 10.746094 24 24 24h16c13.257813 0 24-10.746094 24-24v-56h-16zm0 0" data-original="#000000" class="active-path" data-old_color="#000000" style="fill:#004EC7"/><path d="m184.003906 288c-13.253906 0-24 10.746094-24 24v32c0 13.253906 10.746094 24 24 24h16c13.257813 0 24-10.746094 24-24v-32c0-13.253906-10.742187-24-24-24zm24 24v32c0 4.417969-3.582031 8-8 8h-16c-4.417968 0-8-3.582031-8-8v-32c0-4.417969 3.582032-8 8-8h16c4.417969 0 8 3.582031 8 8zm0 0" data-original="#000000" class="active-path" data-old_color="#000000" style="fill:#004EC7"/><path d="m248.003906 368h32c9.484375.042969 18.097656-5.53125 21.945313-14.199219 3.851562-8.667969 2.207031-18.792969-4.183594-25.800781 6.390625-7.007812 8.035156-17.132812 4.183594-25.800781-3.847657-8.667969-12.460938-14.242188-21.945313-14.199219h-32c-4.417968 0-8 3.582031-8 8v64c0 4.417969 3.582032 8 8 8zm32-16h-24v-16h24c4.417969 0 8 3.582031 8 8s-3.582031 8-8 8zm-24-48h24c4.417969 0 8 3.582031 8 8s-3.582031 8-8 8h-24zm0 0" data-original="#000000" class="active-path" data-old_color="#000000" style="fill:#004EC7"/></g></g> </svg>
