<?xml version="1.0"?>
<svg xmlns="http://www.w3.org/2000/svg" enable-background="new 0 0 140 140" height="512px" viewBox="0 0 140 140" width="512px" class=""><g><script xmlns=""/><circle cx="70" cy="70" fill="#344e5c" r="64" data-original="#344E5C" class="" data-old_color="#344e5c" style="fill:#2196F3"/><path d="m100.6899414 48.2700195v.0097656l24.0600586 24.0600587 8.3499756 8.340332c-5.0899658 30.2597656-31.3900147 53.3198242-63.0999756 53.3198242-.4699707 0-.9299927-.0302734-1.4000244-.0400391l-25.8999634-25.8999023v-77.800293h39.9699097z" opacity=".1" data-original="#000000" class=""/><path d="m82.6711349 30.255785h-39.9681549v77.8048992h57.9821244v-59.7907906z" fill="#e6e7e8" data-original="#E6E7E8" class=""/><path d="m82.6711349 48.2698936h18.0139618l-18.0139618-18.0141105z" fill="#d6b24e" data-original="#D6B24E" class="active-path" data-old_color="#d6b24e" style="fill:#4EAAD6"/><g fill="#dad7dc"><path d="m73.629158 53.283905h22.558844v1.178309h-22.558844z" data-original="#000000" class=""/><path d="m73.629158 58.461479h22.558844v1.178428h-22.558844z" data-original="#000000" class=""/><path d="m47.200127 63.639111h48.987827v1.178374h-48.987827z" data-original="#000000" class=""/><path d="m47.200127 68.816742h48.987827v1.178374h-48.987827z" data-original="#000000" class=""/><path d="m47.200127 73.99437h48.987827v1.178374h-48.987827z" data-original="#000000" class=""/><path d="m47.200127 79.171997h48.987827v1.178374h-48.987827z" data-original="#000000" class=""/><path d="m47.200127 84.349625h48.987827v1.178374h-48.987827z" data-original="#000000" class=""/><path d="m47.200127 89.527252h48.987827v1.178374h-48.987827z" data-original="#000000" class=""/><path d="m47.200127 94.70488h48.987827v1.178374h-48.987827z" data-original="#000000" class=""/><path d="m47.200127 99.882507h48.987827v1.178374h-48.987827z" data-original="#000000" class=""/></g><circle cx="100.685" cy="96.794" fill="#509fd7" r="11.266" data-original="#509FD7"/><path d="m98.5592346 101.5097656c-.354538 0-.7090683-.1353226-.9797134-.4059601l-2.4077759-2.4068756c-.541275-.5403748-.541275-1.4181442 0-1.9594269.541275-.541275 1.4181442-.541275 1.9594193 0l1.4280701 1.4271698 5.6798019-5.6798019c.541275-.541275 1.4181442-.541275 1.9594193 0 .541275.5412827.541275 1.4181519 0 1.9594269l-6.6595078 6.6595078c-.2706376.2706375-.6251755.40596-.9797135.40596z" fill="#e6e7e8" data-original="#E6E7E8" class=""/><path d="m47.647381 36.417397h18.70693v23.222509h-18.70693z" fill="#b0b1b5" data-original="#B0B1B5" class=""/><path d="m54.7193909 50.0893631c.1772118 1.102066 1.1321335 1.9475479 2.2833939 1.9475479 1.1512756 0 2.1062126-.8454819 2.2834091-1.9475746-.4064445-.2828445-.3881378-.671814-.3881378-.671814v-1.2046394h-3.7905121l-.0094337 1.2058678c-.0000001 0 .0277556.3877563-.3787194.6706123z" fill="#d6b24e" data-original="#D6B24E" class="active-path" data-old_color="#d6b24e" style="fill:#4EAAD6"/><path d="m59.9899216 43.2023811c-.0006447 0-.0012703.0001945-.001915.0001945-.0403175-1.6429405-1.3674545-2.9744034-2.985199-2.9744034h-.0000153c-1.6177444 0-2.9448814 1.3314629-2.985199 2.9744034-.0006447 0-.0012741-.0001945-.001915-.0001945-.329834 0-.5971947.5389366-.5971947 1.2037392 0 .6647987.2673607 1.2037277.5971947 1.2037277v.2493553c0 1.6780853 1.3442039 3.051075 2.987114 3.051075h.0000153c1.64291 0 2.987114-1.3729897 2.987114-3.051075v-.2493553c.3298187 0 .5971947-.538929.5971947-1.2037277-.0000001-.6648026-.267376-1.2037392-.5971947-1.2037392z" fill="#ffd25a" data-original="#FFD25A" class="" data-old_color="#ffd25a" style="fill:#605025"/><path d="m57.7522392 50.4032593 1.6266747.7997093-1.6898422 4.954586-.4970131-1.1376075-.044178-3.9981843z" fill="#e6e7e8" data-original="#E6E7E8" class=""/><path d="m64.4891891 57.3912659c-.018158-1.4773979-.0866394-3.1380806-.1407471-4.2687569-.0397263-.8303413-.5429382-1.5638046-1.3013763-1.9041214l-2.9894218-1.3413696-.742897.8281097-.9133949 4.0128326-.7763672 2.6733055h6.8642043z" fill="#344e5c" data-original="#344E5C" class="" data-old_color="#344e5c" style="fill:#2196F3"/><path d="m58.9035301 49.2851791-1.9027099.9908638 1.4841728.9269257z" fill="#dad7dc" data-original="#DAD7DC"/><path d="m56.2494011 50.4032593-1.6266747.7997093 1.6898423 4.954586.4970092-1.1376075.0441781-3.9981843z" fill="#e6e7e8" data-original="#E6E7E8" class=""/><path d="m56.3766365 57.3912659-.7762985-2.6733055-.9133911-4.0128326-.742897-.8281097-2.9894753 1.3413696c-.7584534.3403168-1.2616692 1.0737915-1.3013954 1.9041405-.0541 1.1306763-.1225586 2.7913513-.1406784 4.2687378h6.8641357z" fill="#344e5c" data-original="#344E5C" class="" data-old_color="#344e5c" style="fill:#2196F3"/><path d="m55.0981102 49.2851791 1.90271.9908638-1.4841767.9269257z" fill="#dad7dc" data-original="#DAD7DC"/><path d="m56.6748428 57.3912659h.6520081l.4229317-.7978363-.4079438-5.200203.3531495-.6819877-.6941414-.432354-.6942139.432354.3532181.6819877-.4080124 5.200203z" fill="#f37735" data-original="#F37735" class=""/><path d="m53.6517372 53.0677834 2.2369843 4.3234825h.978157l-1.7658806-8.1049118-1.1569481.5906639-.4141273 2.1555557.9743004.5358696z" fill="#293b44" data-original="#293B44" class=""/><path d="m58.1128998 57.3912659 2.2369804-4.3234825-.8524856-.4993401.9743042-.5358696-.4140549-2.1555557-1.1569519-.5906639-1.7658806 8.1049118z" fill="#293b44" data-original="#293B44" class=""/><path d="m54.17519 45.837162s.0225525-1.6462021.2255096-1.8717079c0 0-.4735641-1.2853928.69907-1.5108986 0 0 .5412178 0 1.0373344.2706108.4961166.270607 1.8266068-.045105 2.1197662-.157856 0 0 .7892761-.4510155 1.2853889.4510117 0 0 .0451012.8343773.1804085 1.2853928.1353035.4510155 0 1.5334473 0 1.5334473h.1578522l.3382607-1.5108986s.6539726-2.6158791-.2480583-3.089447c0 0 .2480583-.7441711-.969677-1.7815056l-.1804085.2931595-.9922295-.7892723v.428463l-.6314201-.428463.0225487.3382607-.4059105-.6314201-.6765213.6314201-.0451012-.4294357s-.8794785.6549416-.9245796.9029999l.0225487-.5412178s-1.5108948.7216225-1.014782 1.7815056c.0000001-.0000002-1.3981437 1.4432447.0000001 4.8258512z" fill="#304651" data-original="#304651" class=""/></g> </svg>
