<?xml version="1.0"?>
<svg xmlns="http://www.w3.org/2000/svg" xmlns:xlink="http://www.w3.org/1999/xlink" xmlns:svgjs="http://svgjs.com/svgjs" version="1.1" width="512" height="512" x="0" y="0" viewBox="0 0 512 512" style="enable-background:new 0 0 512 512" xml:space="preserve" class=""><g><script/><g xmlns="http://www.w3.org/2000/svg"><path d="m438.319 0h-364.638c-40.628 0-73.681 33.811-73.681 75.372v361.256c0 41.561 33.053 75.372 73.681 75.372h364.638c40.628 0 73.681-33.811 73.681-75.372v-361.256c0-41.561-33.053-75.372-73.681-75.372zm53.642 436.628c0 30.511-24.064 55.333-53.642 55.333h-364.638c-29.578 0-53.642-24.822-53.642-55.333v-361.256c0-30.511 24.064-55.333 53.642-55.333h364.638c29.578 0 53.642 24.822 53.642 55.333z" fill="#1f81ce" data-original="#000000" style="" class=""/><circle cx="260.313" cy="298.077" r="10" fill="#1f81ce" data-original="#000000" style="" class=""/><path d="m403.272 93.193c-4.304-1.166-8.681-1.679-13.016-1.558-4.753-16.829-20.237-29.203-38.566-29.203h-225.98c-22.099 0-40.078 17.979-40.078 40.078v306.98c0 22.099 17.979 40.078 40.078 40.078 0 0 186.431-.004 186.546-.004 6.112 0 11.977-2.808 15.831-7.829l40.913-53.294c.809-.995 1.407-2.272 1.74-3.504l64.089-236.76c3.129-11.559 1.569-23.643-4.39-34.028-5.961-10.385-15.609-17.827-27.167-20.956zm-297.602 316.297v-306.98c0-11.05 8.989-20.039 20.039-20.039h225.98c9.031 0 16.68 6.008 19.175 14.235-.544.284-1.086.572-1.621.879-10.386 5.96-17.828 15.608-20.956 27.165l-64.089 236.76c-.348 1.285-.436 2.684-.253 4.002l8.11 64.017h-166.346c-11.05 0-20.039-8.989-20.039-20.039zm206.575 19.964-6.555-51.746 38.322 10.374zm41.77-59.425-47.855-12.955 32.043-118.373 47.855 12.954zm61.471-227.089-24.193 89.372-47.855-12.954 24.192-89.373c1.73-6.39 5.845-11.726 11.588-15.022 5.744-3.296 12.427-4.159 18.817-2.429 6.391 1.731 11.727 5.846 15.023 11.589 3.296 5.744 4.158 12.426 2.428 18.817z" fill="#1f81ce" data-original="#000000" style="" class=""/><path d="m260.313 138.766h-115.298c-5.533 0-10.02 4.486-10.02 10.02 0 5.533 4.486 10.02 10.02 10.02h115.298c5.533 0 10.02-4.486 10.02-10.02s-4.487-10.02-10.02-10.02z" fill="#1f81ce" data-original="#000000" style="" class=""/><path d="m260.313 188.529h-115.298c-5.533 0-10.02 4.486-10.02 10.02 0 5.533 4.486 10.02 10.02 10.02h115.298c5.533 0 10.02-4.486 10.02-10.02 0-5.533-4.487-10.02-10.02-10.02z" fill="#1f81ce" data-original="#000000" style="" class=""/><path d="m260.313 238.294h-115.298c-5.533 0-10.02 4.486-10.02 10.02s4.486 10.02 10.02 10.02h115.298c5.533 0 10.02-4.486 10.02-10.02s-4.487-10.02-10.02-10.02z" fill="#1f81ce" data-original="#000000" style="" class=""/><path d="m215.316 288.058h-70.301c-5.533 0-10.02 4.486-10.02 10.02s4.486 10.02 10.02 10.02h70.301c5.533 0 10.02-4.486 10.02-10.02s-4.487-10.02-10.02-10.02z" fill="#1f81ce" data-original="#000000" style="" class=""/></g></g></svg>
