<?xml version="1.0"?>
<svg xmlns="http://www.w3.org/2000/svg" xmlns:xlink="http://www.w3.org/1999/xlink" xmlns:svgjs="http://svgjs.com/svgjs" version="1.1" width="512" height="512" x="0" y="0" viewBox="0 0 74 74" style="enable-background:new 0 0 512 512" xml:space="preserve" class=""><g><script/><path xmlns="http://www.w3.org/2000/svg" d="m11 48.57a1 1 0 0 1 -1-1v-2.91a1 1 0 0 1 2 0v2.91a1 1 0 0 1 -1 1z" fill="#1f81ce" data-original="#000000" style="" class=""/><path xmlns="http://www.w3.org/2000/svg" d="m63 72h-52a1 1 0 0 1 -1-1v-16.43a1 1 0 1 1 2 0v15.43h50v-51.586l-14.414-14.414h-35.586v23.69a1 1 0 0 1 -2 0v-24.69a1 1 0 0 1 1-1h37a1 1 0 0 1 .707.293l15 15a1 1 0 0 1 .293.707v53a1 1 0 0 1 -1 1z" fill="#1f81ce" data-original="#000000" style="" class=""/><path xmlns="http://www.w3.org/2000/svg" d="m11 38.66a1 1 0 0 1 -1-1v-2.97a1 1 0 0 1 2 0v2.97a1 1 0 0 1 -1 1z" fill="#1f81ce" data-original="#000000" style="" class=""/><path xmlns="http://www.w3.org/2000/svg" d="m63 19h-15a1 1 0 0 1 -1-1v-15a1 1 0 0 1 2 0v14h14a1 1 0 0 1 0 2z" fill="#1f81ce" data-original="#000000" style="" class=""/><path xmlns="http://www.w3.org/2000/svg" d="m55.5 36h-37a1 1 0 0 1 0-2h37a1 1 0 0 1 0 2z" fill="#1f81ce" data-original="#000000" style="" class=""/><path xmlns="http://www.w3.org/2000/svg" d="m55.5 45h-37a1 1 0 0 1 0-2h37a1 1 0 0 1 0 2z" fill="#1f81ce" data-original="#000000" style="" class=""/><path xmlns="http://www.w3.org/2000/svg" d="m55.5 54h-37a1 1 0 0 1 0-2h37a1 1 0 0 1 0 2z" fill="#1f81ce" data-original="#000000" style="" class=""/><path xmlns="http://www.w3.org/2000/svg" d="m55.5 63h-14.25a1 1 0 0 1 0-2h14.25a1 1 0 0 1 0 2z" fill="#1f81ce" data-original="#000000" style="" class=""/><path xmlns="http://www.w3.org/2000/svg" d="m37.268 28.667h-16.536a1 1 0 0 1 -1-1v-3.035a6.552 6.552 0 0 1 6.545-6.545h5.446a6.552 6.552 0 0 1 6.545 6.545v3.035a1 1 0 0 1 -1 1zm-15.536-2h14.536v-2.035a4.55 4.55 0 0 0 -4.545-4.545h-5.446a4.55 4.55 0 0 0 -4.545 4.545z" fill="#1f81ce" data-original="#000000" style="" class=""/><path xmlns="http://www.w3.org/2000/svg" d="m29 20.069a5.7 5.7 0 1 1 5.7-5.7 5.708 5.708 0 0 1 -5.7 5.7zm0-9.4a3.7 3.7 0 1 0 3.7 3.7 3.7 3.7 0 0 0 -3.7-3.702z" fill="#1f81ce" data-original="#000000" style="" class=""/></g></svg>
