<?xml version="1.0"?>
<svg xmlns="http://www.w3.org/2000/svg" height="512px" viewBox="0 0 496 496" width="512px" class=""><g><script xmlns=""/><g fill="#f0bc5e"><path d="m72 144c0-39.769531 32.230469-72 72-72 19.886719 0 37.886719 8.0625 50.921875 21.097656l50.773437-50.714844-27.457031-27.863281-25.566406 19.886719c-1.863281-.832031-3.734375-1.613281-5.601563-2.335938l-4.007812-32.070312h-78.125l-4.007812 32.078125c-1.867188.722656-3.738282 1.507813-5.601563 2.335937l-25.527344-19.863281-55.25 55.25 19.855469 25.527344c-.832031 1.863281-1.613281 3.734375-2.335938 5.601563l-32.070312 4.007812v78.125l32.078125 4.007812c.722656 1.867188 1.507813 3.738282 2.335937 5.601563l-19.855468 25.527344 50.25 50.25 7.191406-4.449219v-48h72c-39.769531 0-72-32.230469-72-72zm0 0" data-original="#000000" class="active-path" data-old_color="#000000" fill="#2196F3"/><path d="m216 448h64v16h-64zm0 0" data-original="#000000" class="active-path" data-old_color="#000000" fill="#2196F3"/><path d="m272 216v32h64v160h128v-192zm0 0" data-original="#000000" class="active-path" data-old_color="#000000" fill="#2196F3"/></g><path d="m272 448h16v16h-16zm0 0" data-original="#000000" class="active-path" data-old_color="#000000" fill="#2196F3"/><path d="m240 448h16v16h-16zm0 0" data-original="#000000" class="active-path" data-old_color="#000000" fill="#2196F3"/><path d="m208 448h16v16h-16zm0 0" data-original="#000000" class="active-path" data-old_color="#000000" fill="#2196F3"/><path d="m496 0h-219.3125l-82.144531 82.144531c-14.191407-11.585937-32.007813-18.144531-50.542969-18.144531-44.113281 0-80 35.886719-80 80 0 26.183594 12.703125 49.398438 32.199219 64h-32.199219v64h-64v200c0 13.230469 10.769531 24 24 24h272c13.230469 0 24-10.769531 24-24v-24h176zm-224 27.3125v68.6875h-68.6875zm-192 116.6875c0-35.289062 28.710938-64 64-64 14.289062 0 28.046875 4.863281 39.191406 13.496094l-7.191406 7.191406v22.167969l-5.328125 3.527343c3.488281 5.257813 5.328125 11.351563 5.328125 17.617188 0 17.648438-14.351562 32-32 32-6.265625 0-12.351562-1.839844-17.625-5.328125l-8.832031 13.34375c7.898437 5.222656 17.050781 7.984375 26.457031 7.984375 12.304688 0 23.496094-4.6875 32-12.320312v19.558593c-9.710938 5.640625-20.640625 8.761719-32 8.761719-35.289062 0-64-28.710938-64-64zm0 80h160v48h-16v-32h-128v32h-16zm56 104v24h-48c-36.992188 0-67.527344-28.054688-71.527344-64h287.054688c-4 35.945312-34.535156 64-71.527344 64h-48v-24zm32 16v32h-16v-32zm40-72h-96v-16h96zm88 208h-272c-4.40625 0-8-3.59375-8-8v-141.558594c15.9375 22.671875 42.238281 37.558594 72 37.558594h48v24h48v-24h48c29.761719 0 56.0625-14.886719 72-37.558594v141.558594c0 4.40625-3.59375 8-8 8zm184-48h-160v-160h-64v-64h-64v-96h96v-96h192zm0 0" data-original="#000000" class="active-path" data-old_color="#000000" fill="#2196F3"/><path d="m136 32h16v16h-16zm0 0" data-original="#000000" class="active-path" data-old_color="#000000" fill="#2196F3"/><path d="m32 136h16v16h-16zm0 0" data-original="#000000" class="active-path" data-old_color="#000000" fill="#2196F3"/><path d="m59.152344 70.460938 11.3125-11.3125 11.3125 11.3125-11.3125 11.3125zm0 0" data-original="#000000" class="active-path" data-old_color="#000000" fill="#2196F3"/><path d="m144 112c6.265625 0 12.359375 1.839844 17.617188 5.328125l8.832031-13.34375c-7.882813-5.222656-17.035157-7.984375-26.449219-7.984375-26.472656 0-48 21.527344-48 48 0 9.414062 2.761719 18.566406 7.984375 26.457031l13.34375-8.832031c-3.488281-5.265625-5.328125-11.359375-5.328125-17.625 0-17.648438 14.351562-32 32-32zm0 0" data-original="#000000" class="active-path" data-old_color="#000000" fill="#2196F3"/><path d="m464 176v-144h-160v144zm-96-80c0-8.824219 7.175781-16 16-16s16 7.175781 16 16-7.175781 16-16 16-16-7.175781-16-16zm16 32c17.648438 0 32 14.351562 32 32h-64c0-17.648438 14.351562-32 32-32zm-64-80h128v112h-16c0-18.078125-10.054688-33.839844-24.855469-42.023438 5.457031-5.746093 8.855469-13.457031 8.855469-21.976562 0-17.648438-14.351562-32-32-32s-32 14.351562-32 32c0 8.519531 3.398438 16.230469 8.855469 21.976562-14.800781 8.183594-24.855469 23.945313-24.855469 42.023438h-16zm0 0" data-original="#000000" class="active-path" data-old_color="#000000" fill="#2196F3"/><path d="m272 208h192v16h-192zm0 0" data-original="#000000" class="active-path" data-old_color="#000000" fill="#2196F3"/><path d="m272 240h192v16h-192zm0 0" data-original="#000000" class="active-path" data-old_color="#000000" fill="#2196F3"/><path d="m336 272h128v16h-128zm0 0" data-original="#000000" class="active-path" data-old_color="#000000" fill="#2196F3"/><path d="m336 304h128v16h-128zm0 0" data-original="#000000" class="active-path" data-old_color="#000000" fill="#2196F3"/><path d="m336 336h128v16h-128zm0 0" data-original="#000000" class="active-path" data-old_color="#000000" fill="#2196F3"/><path d="m336 368h128v16h-128zm0 0" data-original="#000000" class="active-path" data-old_color="#000000" fill="#2196F3"/><path d="m336 400h128v16h-128zm0 0" data-original="#000000" class="active-path" data-old_color="#000000" fill="#2196F3"/><path d="m208 160h32v16h-32zm0 0" data-original="#000000" class="active-path" data-old_color="#000000" fill="#2196F3"/><path d="m256 160h32v16h-32zm0 0" data-original="#000000" class="active-path" data-old_color="#000000" fill="#2196F3"/><path d="m208 128h80v16h-80zm0 0" data-original="#000000" class="active-path" data-old_color="#000000" fill="#2196F3"/></g> </svg>
