<svg xmlns="http://www.w3.org/2000/svg" width="1717.453" height="1452.396" viewBox="0 0 1717.453 1452.396">
  <g id="Group_44" data-name="Group 44" transform="translate(-277.362 -194.06)">
    <g id="Group_43" data-name="Group 43">
      <g id="Group_24" data-name="Group 24" transform="translate(1771.5 843.5) rotate(-90)">
        <circle id="Ellipse_1" data-name="Ellipse 1" cx="3.5" cy="3.5" r="3.5" transform="translate(0 -7)" fill="none" stroke="#d4d4e7" stroke-width="0.913"/>
        <path id="Path_3" data-name="Path 3" d="M6.5-2.5h114a33,33,0,0,0,33-33v-327h0" fill="none" stroke="#d4d4e7" stroke-width="0.913" fill-rule="evenodd"/>
        <circle id="Ellipse_2" data-name="Ellipse 2" cx="3.5" cy="3.5" r="3.5" transform="translate(150 -370)" fill="none" stroke="#d4d4e7" stroke-width="0.913"/>
      </g>
      <g id="Group_25" data-name="Group 25" transform="translate(2216.5 566.5) rotate(-90)">
        <path id="Path_4" data-name="Path 4" d="M4-222.921V-367" transform="translate(0 1.142)" fill="none" stroke="#d4d4e7" stroke-width="0.913" fill-rule="evenodd"/>
        <ellipse id="Ellipse_4" data-name="Ellipse 4" cx="3.5" cy="4.071" rx="3.5" ry="4.071" transform="translate(1 -374)" fill="none" stroke="#d4d4e7" stroke-width="0.913"/>
      </g>
      <g id="Group_26" data-name="Group 26" transform="translate(2331.5 499.5) rotate(-90)">
        <path id="Path_5" data-name="Path 5" d="M7-336.779V-422" fill="none" stroke="#d4d4e7" stroke-width="0.913" fill-rule="evenodd"/>
        <circle id="Ellipse_6" data-name="Ellipse 6" cx="3.5" cy="3.5" r="3.5" transform="translate(4 -429)" fill="none" stroke="#d4d4e7" stroke-width="0.913"/>
      </g>
      <g id="Group_27" data-name="Group 27" transform="translate(979 704) rotate(180)">
        <circle id="Ellipse_7" data-name="Ellipse 7" cx="3.5" cy="3.5" r="3.5" transform="translate(0 -7)" fill="none" stroke="#d4d4e7" stroke-width="0.913"/>
        <path id="Path_6" data-name="Path 6" d="M7-3H84a33,33,0,0,0,33-33V-363h0" fill="none" stroke="#d4d4e7" stroke-width="0.913" fill-rule="evenodd"/>
        <circle id="Ellipse_8" data-name="Ellipse 8" cx="3.5" cy="3.5" r="3.5" transform="translate(114 -370)" fill="none" stroke="#d4d4e7" stroke-width="0.913"/>
      </g>
      <g id="Group_28" data-name="Group 28" transform="translate(1523 1276) rotate(180)">
        <circle id="Ellipse_9" data-name="Ellipse 9" cx="3.5" cy="3.5" r="3.5" transform="translate(0 -7)" fill="none" stroke="#d4d4e7" stroke-width="0.913"/>
        <path id="Path_7" data-name="Path 7" d="M7-3H84a33,33,0,0,0,33-33V-363h0" fill="none" stroke="#d4d4e7" stroke-width="0.913" fill-rule="evenodd"/>
        <circle id="Ellipse_10" data-name="Ellipse 10" cx="3.5" cy="3.5" r="3.5" transform="translate(114 -370)" fill="none" stroke="#d4d4e7" stroke-width="0.913"/>
      </g>
      <g id="Group_29" data-name="Group 29" transform="translate(1290 1133) rotate(180)">
        <circle id="Ellipse_11" data-name="Ellipse 11" cx="3.5" cy="3.5" r="3.5" transform="translate(0 -7)" fill="none" stroke="#d4d4e7" stroke-width="0.913"/>
        <path id="Path_8" data-name="Path 8" d="M3-7V-367M3-7V-367" fill="none" stroke="#d4d4e7" stroke-width="0.913" fill-rule="evenodd"/>
        <circle id="Ellipse_12" data-name="Ellipse 12" cx="3.5" cy="3.5" r="3.5" transform="translate(0 -374)" fill="none" stroke="#d4d4e7" stroke-width="0.913"/>
      </g>
      <g id="Group_30" data-name="Group 30" transform="translate(906 1100) rotate(180)">
        <circle id="Ellipse_13" data-name="Ellipse 13" cx="3.5" cy="3.5" r="3.5" transform="translate(0 -7)" fill="none" stroke="#d4d4e7" stroke-width="0.913"/>
        <path id="Path_9" data-name="Path 9" d="M3-7V-367M3-7V-367" fill="none" stroke="#d4d4e7" stroke-width="0.913" fill-rule="evenodd"/>
        <circle id="Ellipse_14" data-name="Ellipse 14" cx="3.5" cy="3.5" r="3.5" transform="translate(0 -374)" fill="none" stroke="#d4d4e7" stroke-width="0.913"/>
      </g>
      <g id="Group_31" data-name="Group 31" transform="translate(819 1180) rotate(180)">
        <circle id="Ellipse_15" data-name="Ellipse 15" cx="3.5" cy="3.5" r="3.5" transform="translate(0 -7)" fill="none" stroke="#d4d4e7" stroke-width="0.913"/>
        <path id="Path_10" data-name="Path 10" d="M3-7V-367M3-7V-367" fill="none" stroke="#d4d4e7" stroke-width="0.913" fill-rule="evenodd"/>
        <circle id="Ellipse_16" data-name="Ellipse 16" cx="3.5" cy="3.5" r="3.5" transform="translate(0 -374)" fill="none" stroke="#d4d4e7" stroke-width="0.913"/>
      </g>
      <g id="Group_32" data-name="Group 32" transform="translate(791 970) rotate(180)">
        <circle id="Ellipse_17" data-name="Ellipse 17" cx="3.5" cy="3.5" r="3.5" fill="none" stroke="#d4d4e7" stroke-width="0.913"/>
        <path id="Path_11" data-name="Path 11" d="M3,7V367" fill="none" stroke="#d4d4e7" stroke-width="0.913" fill-rule="evenodd"/>
        <circle id="Ellipse_18" data-name="Ellipse 18" cx="3.5" cy="3.5" r="3.5" transform="translate(0 367)" fill="none" stroke="#d4d4e7" stroke-width="0.913"/>
      </g>
      <g id="Group_33" data-name="Group 33" transform="translate(552 499) rotate(180)">
        <ellipse id="Ellipse_19" data-name="Ellipse 19" cx="3.5" cy="4" rx="3.5" ry="4" fill="none" stroke="#d4d4e7" stroke-width="0.913"/>
        <path id="Path_12" data-name="Path 12" d="M7,3H84.464c18.1,0,32.773,15.868,32.773,35.442V304.718" transform="translate(-0.048 0.222)" fill="none" stroke="#d4d4e7" stroke-width="0.913" fill-rule="evenodd"/>
      </g>
      <g id="Group_34" data-name="Group 34" transform="translate(483 1) rotate(180)">
        <path id="Path_13" data-name="Path 13" d="M118-194.09V-363h0" transform="translate(0 1.03)" fill="none" stroke="#d4d4e7" stroke-width="0.913" fill-rule="evenodd"/>
        <ellipse id="Ellipse_22" data-name="Ellipse 22" cx="3.5" cy="4" rx="3.5" ry="4" transform="translate(115 -370)" fill="none" stroke="#d4d4e7" stroke-width="0.913"/>
      </g>
      <g id="Group_35" data-name="Group 35" transform="translate(451.5 1273.5) rotate(-90)">
        <circle id="Ellipse_23" data-name="Ellipse 23" cx="3.5" cy="3.5" r="3.5" fill="none" stroke="#d4d4e7" stroke-width="0.913"/>
        <path id="Path_14" data-name="Path 14" d="M6,4H123a33,33,0,0,1,33,33V240h0" fill="none" stroke="#d4d4e7" stroke-width="0.913" fill-rule="evenodd"/>
        <circle id="Ellipse_24" data-name="Ellipse 24" cx="3.5" cy="3.5" r="3.5" transform="translate(153 242)" fill="none" stroke="#d4d4e7" stroke-width="0.913"/>
      </g>
      <g id="Group_36" data-name="Group 36" transform="translate(37.122 896) rotate(-90)">
        <path id="Path_15" data-name="Path 15" d="M2.5,0V255.4" transform="translate(0 240.24)" fill="none" stroke="#d4d4e7" stroke-width="0.913" fill-rule="evenodd"/>
        <ellipse id="Ellipse_25" data-name="Ellipse 25" cx="3.5" cy="4" rx="3.5" ry="4" transform="translate(0 494.878)" fill="none" stroke="#d4d4e7" stroke-width="0.913"/>
      </g>
      <g id="Group_37" data-name="Group 37" transform="translate(1503.363 1474.5) rotate(90)">
        <circle id="Ellipse_26" data-name="Ellipse 26" cx="3.5" cy="3.5" r="3.5" transform="translate(0 -8.137)" fill="none" stroke="#d4d4e7" stroke-width="0.913"/>
        <path id="Path_16" data-name="Path 16" d="M7-4.137H84a32.961,32.961,0,0,0,33-32.92V-474.432" fill="none" stroke="#d4d4e7" stroke-width="0.913" fill-rule="evenodd"/>
      </g>
      <g id="Group_38" data-name="Group 38" transform="translate(2290.5 1055.5) rotate(-90)">
        <path id="Path_17" data-name="Path 17" d="M3-296.323,3.3-440" transform="translate(0.349 0.636)" fill="none" stroke="#d4d4e7" stroke-width="0.913" fill-rule="evenodd"/>
        <ellipse id="Ellipse_28" data-name="Ellipse 28" cx="3.5" cy="3.818" rx="3.5" ry="3.818" transform="translate(0 -447)" fill="none" stroke="#d4d4e7" stroke-width="0.913"/>
      </g>
      <g id="Group_39" data-name="Group 39" transform="translate(2234 1208) rotate(-90)">
        <path id="Path_18" data-name="Path 18" d="M3-257.868,3.338-440" transform="translate(0.331 1.663)" fill="none" stroke="#d4d4e7" stroke-width="0.913" fill-rule="evenodd"/>
        <ellipse id="Ellipse_30" data-name="Ellipse 30" cx="3.5" cy="4.5" rx="3.5" ry="4.5" transform="translate(0 -447)" fill="none" stroke="#d4d4e7" stroke-width="0.913"/>
      </g>
      <g id="Group_40" data-name="Group 40" transform="translate(2186.5 1133.5) rotate(-90)">
        <path id="Path_19" data-name="Path 19" d="M7-191.687V-447" transform="translate(0 0)" fill="none" stroke="#d4d4e7" stroke-width="0.913" fill-rule="evenodd"/>
        <circle id="Ellipse_32" data-name="Ellipse 32" cx="3.5" cy="3.5" r="3.5" transform="translate(3 -454)" fill="none" stroke="#d4d4e7" stroke-width="0.913"/>
      </g>
      <g id="Group_42" data-name="Group 42" transform="translate(-6.285 976) rotate(-90)">
        <path id="Path_20" data-name="Path 20" d="M3.5,7V83.138" transform="translate(0 276.647)" fill="none" stroke="#d4d4e7" stroke-width="0.913" fill-rule="evenodd"/>
        <circle id="Ellipse_35" data-name="Ellipse 35" cx="3.5" cy="3.5" r="3.5" transform="translate(0.5 359.785)" fill="none" stroke="#d4d4e7" stroke-width="0.913"/>
      </g>
    </g>
  </g>
</svg>
