<?xml version="1.0"?>
<svg xmlns="http://www.w3.org/2000/svg" height="512px" viewBox="0 0 480 480" width="512px" class="">
    <g>
        <script xmlns=""/>
        <path d="m472 40v-32h-464v32zm0 0" fill="#bddbff" data-original="#BDDBFF" class="active-path"
              data-old_color="#bddbff" style="fill:#A7CEFD"/>
        <path d="m472 440h-464v32h464zm0 0" fill="#bddbff" data-original="#BDDBFF" class="active-path"
              data-old_color="#bddbff" style="fill:#A7CEFD"/>
        <path d="m464 40h-448v400h448zm-96 336c0 8.835938-7.164062 16-16 16h-224c-8.835938 0-16-7.164062-16-16v-272c0-8.835938 7.164062-16 16-16h224c8.835938 0 16 7.164062 16 16zm0 0"
              fill="#bddbff" data-original="#BDDBFF" class="active-path" data-old_color="#bddbff" style="fill:#FFFFFF"/>
        <g fill="#3d9ae2">
            <path d="m480 40v-32c0-4.417969-3.582031-8-8-8h-464c-4.417969 0-8 3.582031-8 8v32c0 4.417969 3.582031 8 8 8v384c-4.417969 0-8 3.582031-8 8v32c0 4.417969 3.582031 8 8 8h464c4.417969 0 8-3.582031 8-8v-32c0-4.417969-3.582031-8-8-8v-384c4.417969 0 8-3.582031 8-8zm-464-24h448v16h-448zm448 448h-448v-16h448zm-8-32h-432v-384h432zm0 0"
                  data-original="#000000" class="" data-old_color="#000000" style="fill:#2196F3"/>
            <path d="m152 208h16c13.253906 0 24-10.746094 24-24v-56h-16v56c0 4.417969-3.582031 8-8 8h-16c-4.417969 0-8-3.582031-8-8h-16c0 13.253906 10.746094 24 24 24zm0 0"
                  data-original="#000000" class="" data-old_color="#000000" style="fill:#2196F3"/>
            <path d="m232 208h16c13.253906 0 24-10.746094 24-24v-32c0-13.253906-10.746094-24-24-24h-16c-13.253906 0-24 10.746094-24 24v32c0 13.253906 10.746094 24 24 24zm-8-56c0-4.417969 3.582031-8 8-8h16c4.417969 0 8 3.582031 8 8v32c0 4.417969-3.582031 8-8 8h-16c-4.417969 0-8-3.582031-8-8zm0 0"
                  data-original="#000000" class="" data-old_color="#000000" style="fill:#2196F3"/>
            <path d="m296 208h32c9.484375.042969 18.097656-5.53125 21.945312-14.199219 3.847657-8.667969 2.207032-18.792969-4.183593-25.800781 6.390625-7.007812 8.03125-17.132812 4.183593-25.800781-3.847656-8.667969-12.460937-14.242188-21.945312-14.199219h-32c-4.417969 0-8 3.582031-8 8v64c0 4.417969 3.582031 8 8 8zm32-16h-24v-16h24c4.417969 0 8 3.582031 8 8s-3.582031 8-8 8zm-24-48h24c4.417969 0 8 3.582031 8 8s-3.582031 8-8 8h-24zm0 0"
                  data-original="#000000" class="" data-old_color="#000000" style="fill:#2196F3"/>
            <path d="m128 400h224c13.253906 0 24-10.746094 24-24v-272c0-13.253906-10.746094-24-24-24h-224c-13.253906 0-24 10.746094-24 24v272c0 13.253906 10.746094 24 24 24zm-8-296c0-4.417969 3.582031-8 8-8h224c4.417969 0 8 3.582031 8 8v272c0 4.417969-3.582031 8-8 8h-224c-4.417969 0-8-3.582031-8-8zm0 0"
                  data-original="#000000" class="" data-old_color="#000000" style="fill:#2196F3"/>
            <path d="m136 240h32v16h-32zm0 0" data-original="#000000" class="" data-old_color="#000000"
                  style="fill:#2196F3"/>
            <path d="m184 240h16v16h-16zm0 0" data-original="#000000" class="" data-old_color="#000000"
                  style="fill:#2196F3"/>
            <path d="m216 240h128v16h-128zm0 0" data-original="#000000" class="" data-old_color="#000000"
                  style="fill:#2196F3"/>
            <path d="m136 288h80v16h-80zm0 0" data-original="#000000" class="" data-old_color="#000000"
                  style="fill:#2196F3"/>
            <path d="m232 288h32v16h-32zm0 0" data-original="#000000" class="" data-old_color="#000000"
                  style="fill:#2196F3"/>
            <path d="m280 288h64v16h-64zm0 0" data-original="#000000" class="" data-old_color="#000000"
                  style="fill:#2196F3"/>
            <path d="m136 336h48v16h-48zm0 0" data-original="#000000" class="" data-old_color="#000000"
                  style="fill:#2196F3"/>
            <path d="m200 336h64v16h-64zm0 0" data-original="#000000" class="" data-old_color="#000000"
                  style="fill:#2196F3"/>
            <path d="m280 336h64v16h-64zm0 0" data-original="#000000" class="" data-old_color="#000000"
                  style="fill:#2196F3"/>
        </g>
    </g>
</svg>
