<svg height="512" viewBox="0 0 64 64" width="512" xmlns="http://www.w3.org/2000/svg"><g id="Goal-calendar-mouse-target-date"><path d="m49 51v6a4 4 0 0 0 4 4h4a4 4 0 0 0 4-4v-6z" fill="#bddbff"/><path d="m55 3a6 6 0 1 0 6 6 6 6 0 0 0 -6-6zm0 8a2 2 0 1 1 2-2 2.006 2.006 0 0 1 -2 2z" fill="#bddbff"/><path d="m21 26a11 11 0 1 0 20-6.32v-10.68a2.006 2.006 0 0 0 -2-2h-4v2a2 2 0 0 1 -4 0v-2h-7v2a2 2 0 0 1 -4 0v-2h-7v2a2 2 0 0 1 -4 0v-2h-4a2.006 2.006 0 0 0 -2 2v6h29a10.994 10.994 0 0 0 -11 11zm18 0a7 7 0 1 1 -7-7 7.008 7.008 0 0 1 7 7z" fill="#bddbff"/><circle cx="32" cy="26" fill="#bddbff" r="3"/><path d="m15 37h4v4h-4z" fill="#bddbff"/><path d="m15 28h4v4h-4z" fill="#bddbff"/><path d="m15 19h4v4h-4z" fill="#bddbff"/><path d="m9 61a6 6 0 1 0 -6-6 6 6 0 0 0 6 6zm0-8a2 2 0 1 1 -2 2 2.006 2.006 0 0 1 2-2z" fill="#bddbff"/><path d="m7 37h4v4h-4z" fill="#bddbff"/><path d="m7 28h4v4h-4z" fill="#bddbff"/><path d="m7 19h4v4h-4z" fill="#bddbff"/><g fill="#57a4ff"><path d="m9 48a7 7 0 1 0 7 7 7.008 7.008 0 0 0 -7-7zm0 12a5 5 0 1 1 5-5 5.006 5.006 0 0 1 -5 5z"/><path d="m9 52a3 3 0 1 0 3 3 3 3 0 0 0 -3-3zm0 4a1 1 0 1 1 1-1 1 1 0 0 1 -1 1z"/><path d="m57.293 22.293-3 3a1 1 0 0 0 0 1.414l3 3 1.414-1.414-2.293-2.293 2.293-2.293z"/><path d="m57 44h-1v-1a3.009 3.009 0 0 0 -3-3h-6a3.009 3.009 0 0 0 -3 3v4a1 1 0 0 1 -1 1h-10v-2h6a3.009 3.009 0 0 0 3-3v-10.38a11.9 11.9 0 0 0 1.95-5.62h5.64l2.7 2.71 1.42-1.42-2.3-2.29 2.3-2.29-1.42-1.42-2.7 2.71h-5.64a11.9 11.9 0 0 0 -1.95-5.62v-10.38a3.009 3.009 0 0 0 -3-3h-3v-1a3 3 0 0 0 -6 0v1h-5v-1a3 3 0 0 0 -6 0v1h-5v-1a3 3 0 0 0 -6 0v1h-3a3.009 3.009 0 0 0 -3 3v34a3.009 3.009 0 0 0 3 3h26v3a1 1 0 0 0 1 1h11a3.009 3.009 0 0 0 3-3v-4a1 1 0 0 1 1-1h6a1 1 0 0 1 1 1v1h-1a5 5 0 0 0 -5 5v8a5 5 0 0 0 5 5h4a5 5 0 0 0 5-5v-8a5 5 0 0 0 -5-5zm-17-1a1 1 0 0 1 -1 1h-6v-6.05a11.91 11.91 0 0 0 7-3.03zm-8-38a1 1 0 0 1 2 0v4a1 1 0 0 1 -2 0zm-11 0a1 1 0 0 1 2 0v4a1 1 0 0 1 -2 0zm-11 0a1 1 0 0 1 2 0v4a1 1 0 0 1 -2 0zm-6 4a1 1 0 0 1 1-1h3v1a3 3 0 0 0 6 0v-1h5v1a3 3 0 0 0 6 0v-1h5v1a3 3 0 0 0 6 0v-1h3a1 1 0 0 1 1 1v8.08a11.929 11.929 0 0 0 -8-3.08h-28zm27 35h-26a1 1 0 0 1 -1-1v-27h21.38a11.988 11.988 0 0 0 5.62 21.95zm-9-18a10 10 0 0 1 19.95-1h-2.02a8 8 0 1 0 0 2h2.02a10 10 0 0 1 -19.95-1zm11.72 1a2 2 0 1 1 0-2h-1.72v2zm-1.72-5a4 4 0 1 0 3.86 5h2.05a6 6 0 1 1 0-2h-2.05a4 4 0 0 0 -3.86-3zm18 27a3.009 3.009 0 0 1 3-3h1v4h-4zm10 8a3.009 3.009 0 0 1 -3 3h-4a3.009 3.009 0 0 1 -3-3v-5h10zm0-7h-4v-4h1a3.009 3.009 0 0 1 3 3z"/><path d="m11 18h-4a1 1 0 0 0 -1 1v4a1 1 0 0 0 1 1h4a1 1 0 0 0 1-1v-4a1 1 0 0 0 -1-1zm-1 4h-2v-2h2z"/><path d="m11 36h-4a1 1 0 0 0 -1 1v4a1 1 0 0 0 1 1h4a1 1 0 0 0 1-1v-4a1 1 0 0 0 -1-1zm-1 4h-2v-2h2z"/><path d="m11 27h-4a1 1 0 0 0 -1 1v4a1 1 0 0 0 1 1h4a1 1 0 0 0 1-1v-4a1 1 0 0 0 -1-1zm-1 4h-2v-2h2z"/><path d="m19 27h-4a1 1 0 0 0 -1 1v4a1 1 0 0 0 1 1h4a1 1 0 0 0 1-1v-4a1 1 0 0 0 -1-1zm-1 4h-2v-2h2z"/><path d="m15 24h4a1 1 0 0 0 1-1v-4a1 1 0 0 0 -1-1h-4a1 1 0 0 0 -1 1v4a1 1 0 0 0 1 1zm1-4h2v2h-2z"/><path d="m19 36h-4a1 1 0 0 0 -1 1v4a1 1 0 0 0 1 1h4a1 1 0 0 0 1-1v-4a1 1 0 0 0 -1-1zm-1 4h-2v-2h2z"/><path d="m55 16a7 7 0 1 0 -7-7 7.008 7.008 0 0 0 7 7zm0-12a5 5 0 1 1 -5 5 5.006 5.006 0 0 1 5-5z"/><path d="m55 12a3 3 0 1 0 -3-3 3 3 0 0 0 3 3zm0-4a1 1 0 1 1 -1 1 1 1 0 0 1 1-1z"/><path d="m18 48h2v2h-2z"/><path d="m22 48h6v2h-6z"/><path d="m18 54h2v2h-2z"/><path d="m22 54h6v2h-6z"/><path d="m18 60h2v2h-2z"/><path d="m22 60h6v2h-6z"/></g></g></svg>