<?xml version="1.0" encoding="iso-8859-1"?>
<!-- Generator: Adobe Illustrator 19.0.0, SVG Export Plug-In . SVG Version: 6.00 Build 0)  -->
<svg version="1.1" id="Capa_1" xmlns="http://www.w3.org/2000/svg" xmlns:xlink="http://www.w3.org/1999/xlink" x="0px" y="0px"
	 viewBox="0 0 368 368" style="enable-background:new 0 0 368 368;" xml:space="preserve">
<path style="fill:#CCE4FF;" d="M360,24v48H136V8h208C352.8,8,360,15.2,360,24z"/>
<g>
	<path style="fill:#007AFF;" d="M344,0H24C10.768,0,0,10.768,0,24v320c0,13.232,10.768,24,24,24h320c13.232,0,24-10.768,24-24V24
		C368,10.768,357.232,0,344,0z M80,16h48v48H80V16z M16,24c0-4.408,3.584-8,8-8h40v48H16V24z M352,344c0,4.408-3.584,8-8,8H24
		c-4.416,0-8-3.592-8-8V80h336V344z M352,64H144V16h200c4.416,0,8,3.592,8,8V64z"/>
	<path style="fill:#007AFF;" d="M272,240v56c0,4.408-3.584,8-8,8h-32c-4.424,0-8,3.584-8,8s3.576,8,8,8h32c13.232,0,24-10.768,24-24
		v-52.688l29.656-29.656c3.128-3.128,3.128-8.184,0-11.312L288,172.688V136c0-13.232-10.768-24-24-24h-32c-4.424,0-8,3.584-8,8
		s3.576,8,8,8h32c4.416,0,8,3.592,8,8v40c0,2.12,0.84,4.16,2.344,5.656L300.688,208l-26.344,26.344
		C272.84,235.84,272,237.88,272,240z"/>
	<path style="fill:#007AFF;" d="M80,243.312V296c0,13.232,10.768,24,24,24h32c4.424,0,8-3.584,8-8s-3.576-8-8-8h-32
		c-4.416,0-8-3.592-8-8v-56c0-2.12-0.84-4.16-2.344-5.656L67.312,208l26.344-26.344C95.16,180.16,96,178.12,96,176v-40
		c0-4.408,3.584-8,8-8h32c4.424,0,8-3.584,8-8s-3.576-8-8-8h-32c-13.232,0-24,10.768-24,24v36.688l-29.656,29.656
		c-3.128,3.128-3.128,8.184,0,11.312L80,243.312z"/>
</g>
<g>
</g>
<g>
</g>
<g>
</g>
<g>
</g>
<g>
</g>
<g>
</g>
<g>
</g>
<g>
</g>
<g>
</g>
<g>
</g>
<g>
</g>
<g>
</g>
<g>
</g>
<g>
</g>
<g>
</g>
</svg>
