<?xml version="1.0"?>
<svg xmlns="http://www.w3.org/2000/svg" height="512px" viewBox="0 0 64 64" width="512px" class=""><g><script xmlns="" style="fill:null"/><path d="m7 5a4 4 0 0 0 -4 4v50h34a4 4 0 0 0 4-4v-4.49l-6 4.49.9-7.56 5.1-8.83v-33.61zm8 42a7 7 0 1 1 5.85-10.85 6.925 6.925 0 0 1 1.15 3.85 7 7 0 0 1 -7 7zm19-32h-23v-6h23z" fill="#78b9eb" data-original="#78B9EB" style="fill:#FFFFFF" class="active-path" data-old_color="#78b9eb"/><path d="m59 18.64a3 3 0 0 1 -.4 1.49l-4 6.93-5.2-3 4-6.93a3 3 0 0 1 5.6 1.51z" fill="#78b9eb" data-original="#78B9EB" style="fill:#FFFFFF" class="active-path" data-old_color="#78b9eb"/><g fill="#006df0"><path d="m28.465 54h-.744l-.773-2.316a1 1 0 0 0 -.948-.684h-2a1 1 0 0 0 -.895.553l-.229.459-1.044-1.567a1 1 0 0 0 -1.8.312l-.813 3.243h-1.219v2h2a1 1 0 0 0 .97-.757l.452-1.807.746 1.119a.98.98 0 0 0 .894.443 1 1 0 0 0 .833-.551l.723-1.447h.661l.773 2.316a1 1 0 0 0 .948.684h2a1 1 0 0 0 .832-.445l4-6-1.664-1.11z" data-original="#006DF0" class="" style="fill:#006DF0" data-old_color="#006DF0"/><path d="m62.53 22.73a1.006 1.006 0 0 0 -.47-.6l-2.6-1.5a4.008 4.008 0 0 0 -1.46-5.47 4.026 4.026 0 0 0 -3.04-.4 3.956 3.956 0 0 0 -2.42 1.87l-10.54 18.25v-13.88h5a1 1 0 0 0 1-1v-11a5 5 0 0 0 -5-5h-36a5 5 0 0 0 -5 5v50a1 1 0 0 0 1 1h34a5 5 0 0 0 5-5v-4.12l14.46-25.06 1.74 1-3.5 6.07 1.73 1 4-6.93 2-3.47a1.007 1.007 0 0 0 .1-.76zm-20.53-16.73h1a3.009 3.009 0 0 1 3 3v10h-4zm-2 49a3.009 3.009 0 0 1 -3 3h-33v-49a3.009 3.009 0 0 1 3-3h33v32.34l-4.96 8.6a1.073 1.073 0 0 0 -.13.38l-.9 7.56a.993.993 0 0 0 .49.99 1.009 1.009 0 0 0 .5.13 1.029 1.029 0 0 0 .6-.2l4.4-3.29zm-3.28-5.94 2.56 1.49-3.01 2.25zm4.01.01-3.46-2 12.5-21.65 3.46 2zm13.5-23.38-3.46-2 3.5-6.06a2 2 0 0 1 1.21-.94 2.06 2.06 0 0 1 1.52.2 2.008 2.008 0 0 1 .93 1.22 1.974 1.974 0 0 1 -.2 1.52zm4.97-.6-1.74-1 1-1.73 1.74 1z" data-original="#006DF0" class="" style="fill:#006DF0" data-old_color="#006DF0"/><path d="m23 40a7.938 7.938 0 0 0 -.905-3.681l2.612-2.612-1.414-1.414-2.36 2.36a7.986 7.986 0 1 0 2.067 5.347zm-8 6a6 6 0 1 1 4.52-9.934l-4.52 4.52-3.293-3.293-1.414 1.414 4 4a1 1 0 0 0 1.414 0l4.88-4.88a5.988 5.988 0 0 1 -5.587 8.173z" data-original="#006DF0" class="" style="fill:#006DF0" data-old_color="#006DF0"/><path d="m11 16h23a1 1 0 0 0 1-1v-6a1 1 0 0 0 -1-1h-23a1 1 0 0 0 -1 1v6a1 1 0 0 0 1 1zm1-6h21v4h-21z" data-original="#006DF0" class="" style="fill:#006DF0" data-old_color="#006DF0"/><path d="m8 20h4v2h-4z" data-original="#006DF0" class="" style="fill:#006DF0" data-old_color="#006DF0"/><path d="m15 20h21v2h-21z" data-original="#006DF0" class="" style="fill:#006DF0" data-old_color="#006DF0"/><path d="m8 26h4v2h-4z" data-original="#006DF0" class="" style="fill:#006DF0" data-old_color="#006DF0"/><path d="m15 26h21v2h-21z" data-original="#006DF0" class="" style="fill:#006DF0" data-old_color="#006DF0"/></g></g> </svg>
