<?xml version="1.0" encoding="iso-8859-1"?>
<!-- Generator: Adobe Illustrator 19.0.0, SVG Export Plug-In . SVG Version: 6.00 Build 0)  -->
<svg version="1.1" id="Capa_1" xmlns="http://www.w3.org/2000/svg" xmlns:xlink="http://www.w3.org/1999/xlink" x="0px" y="0px"
	 viewBox="0 0 480.001 480.001" style="enable-background:new 0 0 480.001 480.001;" xml:space="preserve">
<g>
	<path style="fill:#78B9EB;" d="M410.864,453.368c-0.8-0.8-1.504-1.6-2.248-2.448C409.36,451.744,410.08,452.592,410.864,453.368z"
		/>
	<path style="fill:#78B9EB;" d="M434.096,468.072c1.04,0.384,2.072,0.8,3.136,1.12C436.168,468.864,435.136,468.456,434.096,468.072
		z"/>
	<path style="fill:#78B9EB;" d="M440.136,469.936c1.088,0.28,2.16,0.592,3.264,0.8C442.296,470.528,441.224,470.216,440.136,469.936
		z"/>
	<path style="fill:#78B9EB;" d="M446.4,471.2c1.128,0.176,2.248,0.376,3.4,0.488C448.64,471.576,447.52,471.376,446.4,471.2z"/>
	<path style="fill:#78B9EB;" d="M428.336,465.648c0.992,0.48,1.968,0.984,2.992,1.416
		C430.304,466.632,429.328,466.128,428.336,465.648z"/>
	<path style="fill:#78B9EB;" d="M422.896,462.704c0.928,0.568,1.84,1.16,2.8,1.672C424.736,463.864,423.824,463.272,422.896,462.704
		z"/>
	<path style="fill:#78B9EB;" d="M395.808,429.6c0.408,1.136,0.8,2.296,1.256,3.408C396.592,431.888,396.216,430.728,395.808,429.6z"
		/>
	<path style="fill:#78B9EB;" d="M392,408c-0.001,2.194,0.111,4.386,0.336,6.568C392.111,412.386,391.999,410.194,392,408z"/>
	<path style="fill:#78B9EB;" d="M393.968,423.496c0.296,1.208,0.56,2.4,0.928,3.6C394.528,425.92,394.264,424.704,393.968,423.496z"
		/>
	<path style="fill:#78B9EB;" d="M392.632,416.52c0.2,1.488,0.384,2.976,0.68,4.424C393.016,419.496,392.8,418.008,392.632,416.52z"
		/>
	<path style="fill:#78B9EB;" d="M412.992,455.304c0.8,0.736,1.6,1.504,2.448,2.2C414.592,456.8,413.8,456.04,412.992,455.304z"/>
	<path style="fill:#78B9EB;" d="M404.68,446.136c0.672,0.904,1.312,1.832,2.032,2.696C405.992,448,405.352,447.04,404.68,446.136z"
		/>
	<path style="fill:#78B9EB;" d="M401.232,441c0.584,0.968,1.136,1.96,1.768,2.888C402.4,442.96,401.816,441.968,401.232,441z"/>
	<path style="fill:#78B9EB;" d="M417.744,459.2c0.88,0.664,1.736,1.344,2.648,1.96C419.48,460.568,418.624,459.888,417.744,459.2z"
		/>
	<path style="fill:#78B9EB;" d="M398.24,435.432c0.504,1.064,0.976,2.144,1.536,3.2C399.2,437.6,398.744,436.496,398.24,435.432z"/>
	<path style="fill:#78B9EB;" d="M392.336,414.568c0.064,0.664,0.208,1.304,0.296,1.952C392.544,415.872,392.4,415.2,392.336,414.568
		z"/>
	<path style="fill:#78B9EB;" d="M437.232,469.192c0.952,0.296,1.936,0.496,2.904,0.744
		C439.2,469.688,438.184,469.488,437.232,469.192z"/>
	<path style="fill:#78B9EB;" d="M446.4,471.2c-1-0.144-2.008-0.256-2.992-0.456s-2.176-0.528-3.264-0.8s-1.952-0.448-2.904-0.744
		s-2.096-0.736-3.136-1.12s-1.864-0.632-2.768-1.008s-2-0.936-2.992-1.416s-1.784-0.8-2.64-1.272s-1.872-1.104-2.8-1.672
		s-1.696-0.976-2.504-1.52s-1.768-1.296-2.648-1.96s-1.6-1.112-2.304-1.72s-1.6-1.464-2.448-2.2s-1.448-1.256-2.128-1.936
		s-1.504-1.6-2.248-2.448c-0.632-0.696-1.304-1.368-1.904-2.088c-0.72-0.864-1.36-1.792-2.032-2.696
		c-0.552-0.752-1.152-1.472-1.68-2.248c-0.632-0.928-1.184-1.92-1.768-2.888c-0.48-0.8-1.008-1.6-1.456-2.4
		c-0.56-1.032-1.032-2.112-1.536-3.2c-0.392-0.8-0.8-1.6-1.176-2.4c-0.472-1.112-0.848-2.272-1.256-3.408
		c-0.296-0.8-0.648-1.648-0.912-2.496c-0.368-1.176-0.632-2.4-0.928-3.6c-0.216-0.848-0.48-1.688-0.656-2.552
		c-0.296-1.448-0.48-2.936-0.68-4.424c-0.088-0.648-0.232-1.288-0.296-1.952c-0.228-2.185-0.343-4.38-0.344-6.576v-16H40v16
		c0,35.346,28.654,64,64,64h352c-1.056,0-2.08-0.104-3.12-0.16s-2.072-0.056-3.088-0.152C448.64,471.576,447.52,471.376,446.4,471.2
		L446.4,471.2z"/>
	<path style="fill:#78B9EB;" d="M443.4,470.744c0.984,0.2,1.992,0.312,2.992,0.456C445.392,471.056,444.384,470.944,443.4,470.744z"
		/>
	<path style="fill:#78B9EB;" d="M393.312,420.944c0.176,0.864,0.44,1.704,0.656,2.552
		C393.752,422.648,393.488,421.808,393.312,420.944z"/>
	<path style="fill:#78B9EB;" d="M412.992,455.304c-0.712-0.648-1.448-1.256-2.128-1.936
		C411.544,454.048,412.28,454.656,412.992,455.304z"/>
	<path style="fill:#78B9EB;" d="M397.064,433c0.352,0.8,0.8,1.6,1.176,2.4C397.848,434.616,397.416,433.832,397.064,433z"/>
	<path style="fill:#78B9EB;" d="M452.88,471.84c-1.032-0.048-2.072-0.056-3.088-0.152
		C450.808,471.784,451.848,471.792,452.88,471.84z"/>
	<path style="fill:#78B9EB;" d="M406.712,448.8c0.6,0.72,1.272,1.392,1.904,2.088C408,450.224,407.312,449.552,406.712,448.8z"/>
	<path style="fill:#78B9EB;" d="M403,443.888c0.528,0.8,1.128,1.496,1.68,2.248C404.128,445.384,403.528,444.664,403,443.888z"/>
	<path style="fill:#78B9EB;" d="M394.896,427.096c0.264,0.848,0.616,1.656,0.912,2.496
		C395.512,428.752,395.2,427.944,394.896,427.096z"/>
	<path style="fill:#78B9EB;" d="M399.776,438.608c0.448,0.8,0.976,1.6,1.456,2.4C400.752,440.2,400.224,439.424,399.776,438.608z"/>
	<path style="fill:#78B9EB;" d="M431.328,467.064c0.904,0.376,1.84,0.672,2.768,1.008
		C433.168,467.736,432.232,467.44,431.328,467.064z"/>
	<path style="fill:#78B9EB;" d="M420.392,461.184c0.8,0.544,1.664,1.016,2.504,1.52C422.056,462.2,421.2,461.728,420.392,461.184z"
		/>
	<path style="fill:#78B9EB;" d="M425.696,464.376c0.856,0.464,1.76,0.848,2.64,1.272
		C427.456,465.224,426.552,464.84,425.696,464.376z"/>
	<path style="fill:#78B9EB;" d="M415.44,457.504c0.736,0.608,1.536,1.152,2.304,1.72
		C416.976,458.656,416.176,458.112,415.44,457.504z"/>
	<path style="fill:#78B9EB;" d="M256,152H56v64h200l-8-32L256,152z"/>
	<path style="fill:#78B9EB;" d="M184,336h240V96L184,336z M376,288h-76.12L376,211.88V288z"/>
</g>
<g>
	<path style="fill:#1E81CE;" d="M472,0H112c-4.418,0-8,3.582-8,8v120h16V16h344v440c0.077,4.207-3.169,7.731-7.368,8
		c-0.688,0-1.376-0.056-2.064-0.072c-1.416-0.04-2.832-0.072-4.224-0.216c-0.12,0-0.232,0-0.352-0.048
		c-26.128-2.856-46.767-23.475-49.648-49.6c0-0.112-0.04-0.232-0.056-0.344c-0.194-1.901-0.29-3.81-0.288-5.72v-16
		c0-4.418-3.582-8-8-8H120V240h-16v144H40c-4.418,0-8,3.582-8,8v16c0.044,39.746,32.254,71.956,72,72h352.8
		c12.982-0.34,23.3-11.014,23.2-24V8C480,3.582,476.418,0,472,0z M104,464c-30.913-0.035-55.965-25.087-56-56v-8h336v8
		c0.011,2.638,0.163,5.274,0.456,7.896c0.072,0.696,0.208,1.368,0.304,2.056c0.264,1.936,0.584,3.864,1.008,5.76
		c0.144,0.664,0.328,1.32,0.496,1.984c0.488,1.928,1.04,3.824,1.68,5.696c0.184,0.536,0.376,1.064,0.576,1.6
		c0.728,1.984,1.552,3.92,2.456,5.832c0.192,0.392,0.368,0.8,0.56,1.16c1.003,2.027,2.104,3.997,3.304,5.912
		c0.16,0.256,0.304,0.52,0.464,0.8c1.304,2.043,2.712,4.019,4.216,5.92l0.256,0.344c1.746,2.193,3.616,4.284,5.6,6.264
		c1.723,1.707,3.509,3.307,5.36,4.8L104,464z"/>
	<path style="fill:#1E81CE;" d="M264,224c2.122,0,4.156-0.844,5.656-2.344l32-32c3.123-3.124,3.123-8.188,0-11.312l-32-32
		c-1.5-1.5-3.534-2.344-5.656-2.344H40c-22.091,0-40,17.909-40,40s17.909,40,40,40L264,224z M241.76,176H80v16h161.76l4,16H64v-48
		h181.76L241.76,176z M284.688,184l-22.752,22.752L256.248,184l5.688-22.752L284.688,184z M16,184c0-13.255,10.745-24,24-24h8v48h-8
		C26.745,208,16,197.255,16,184z"/>
	<path style="fill:#1E81CE;" d="M184,344h240c4.418,0,8-3.582,8-8V96c-0.001-4.418-3.583-7.999-8.002-7.998
		c-2.121,0-4.154,0.843-5.654,2.342l-240,240c-3.124,3.125-3.123,8.19,0.002,11.314C179.845,343.157,181.879,344,184,344z
		 M416,115.312V136h-16v16h16v16h-16v16h16v16h-16v16h16v16h-16v16h16v16h-16v16h16v16h-16v16h16v16h-16v-16h-16v16h-16v-16h-16v16
		h-16v-16h-16v16h-16v-16h-16v16h-16v-16h-16v16h-16v-16h-16v16h-20.688L416,115.312z"/>
	<path style="fill:#1E81CE;" d="M299.88,296H376c4.418,0,8-3.582,8-8v-76.12c-0.001-4.418-3.583-7.999-8.002-7.998
		c-2.121,0-4.154,0.843-5.654,2.342l-76.12,76.12c-3.124,3.125-3.123,8.19,0.002,11.314C295.725,295.157,297.759,296,299.88,296z
		 M368,231.2V280h-48.8L368,231.2z"/>
	<path style="fill:#1E81CE;" d="M208,48h160v16H208V48z"/>
	<path style="fill:#1E81CE;" d="M184,80h208v16H184V80z"/>
	<path style="fill:#1E81CE;" d="M136,248h48v16h-48V248z"/>
	<path style="fill:#1E81CE;" d="M136,280h32v16h-32V280z"/>
</g>
<g>
</g>
<g>
</g>
<g>
</g>
<g>
</g>
<g>
</g>
<g>
</g>
<g>
</g>
<g>
</g>
<g>
</g>
<g>
</g>
<g>
</g>
<g>
</g>
<g>
</g>
<g>
</g>
<g>
</g>
</svg>
