<?xml version="1.0" encoding="iso-8859-1"?>
<!-- Generator: Adobe Illustrator 19.0.0, SVG Export Plug-In . SVG Version: 6.00 Build 0)  -->
<svg version="1.1" id="Capa_1" xmlns="http://www.w3.org/2000/svg" xmlns:xlink="http://www.w3.org/1999/xlink" x="0px" y="0px"
	 viewBox="0 0 480 480" style="enable-background:new 0 0 480 480;" xml:space="preserve">
<g>
	<path style="fill:#78B9EB;" d="M368,176h48v8h-48V176z"/>
	<path style="fill:#78B9EB;" d="M368,280h48v8h-48V280z"/>
	<path style="fill:#78B9EB;" d="M368,184h48v96h-48V184z"/>
	<path style="fill:#78B9EB;" d="M416,176v8v96v8v24h56V152h-56V176z"/>
	<path style="fill:#78B9EB;" d="M64,280h48v8H64V280z"/>
	<path style="fill:#78B9EB;" d="M64,176h48v8H64V176z"/>
	<path style="fill:#78B9EB;" d="M64,184h48v96H64V184z"/>
	<path style="fill:#78B9EB;" d="M64,184v-8v-24H8v160h56v-24v-8V184z"/>
</g>
<g>
	<path style="fill:#1E81CE;" d="M472,144h-56c-4.418,0-8,3.582-8,8v16h-40c-4.418,0-8,3.582-8,8H120c0-4.418-3.582-8-8-8H72v-16
		c0-4.418-3.582-8-8-8H8c-4.418,0-8,3.582-8,8v160c0,4.418,3.582,8,8,8h56c4.418,0,8-3.582,8-8v-16h40c4.418,0,8-3.582,8-8h39.648
		l58.136,58.136c9.335,9.353,24.486,9.368,33.839,0.033c0.011-0.011,0.022-0.022,0.033-0.033l5.72-5.68
		c3.003,3.016,7.088,4.704,11.344,4.688c4.258,0.01,8.343-1.683,11.344-4.704l11.272-11.2l5.6,5.544
		c2.999,3.018,7.081,4.709,11.336,4.696c4.261,0.016,8.351-1.678,11.352-4.704l11.272-11.2l5.6,5.544
		c3,3.016,7.082,4.707,11.336,4.696c4.254,0.018,8.337-1.671,11.336-4.688l11.28-11.28l0.064-0.072
		c5.853-5.977,6.152-15.442,0.688-21.776H408v16c0,4.418,3.582,8,8,8h56c4.418,0,8-3.582,8-8V152C480,147.582,476.418,144,472,144
		L472,144z M408,192v80h-32v-80H408z M360,272h-12.688l-61.656-61.656c-1.5-1.5-3.534-2.344-5.656-2.344h-26.72
		c-2.122,0-4.156,0.844-5.656,2.344l-23.28,23.2c-1.456,1.519-3.498,2.336-5.6,2.24c-0.152,0-0.528-0.152-0.456,0l-0.584-0.064
		c-1.755-0.127-3.403-0.893-4.632-2.152c-1.292-1.252-2.09-2.928-2.248-4.72c-0.022-0.355-0.067-0.707-0.136-1.056
		c0.037-2.095,0.899-4.09,2.4-5.552L243.312,192H360V272z M72,272v-80h32v80H72z M56,304H16V160h40V304z M347.856,317.736
		l-5.6-5.544c-3.001-3.014-7.083-4.702-11.336-4.688c-4.261-0.01-8.35,1.681-11.36,4.696l-11.264,11.2l-5.6-5.552
		c-3.003-3.016-7.088-4.704-11.344-4.688c-4.258-0.01-8.343,1.683-11.344,4.704l-11.384,11.112
		c-6.356-5.938-16.245-5.871-22.52,0.152l-5.68,5.68c-3.144,3.013-8.104,3.013-11.248,0l-60.48-60.48
		c-1.522-1.514-3.589-2.353-5.736-2.328H120v-80h100.688l-18.896,18.896c-4.526,4.477-7.072,10.578-7.072,16.944
		c-0.018,0.947,0.063,1.893,0.24,2.824c0.576,5.374,2.986,10.386,6.824,14.192c3.751,3.771,8.681,6.143,13.968,6.72
		c0.96,0.235,1.953,0.302,2.936,0.2c6.366,0.119,12.501-2.383,16.968-6.92L256.592,224h20.088l82.456,82.584L347.856,317.736z
		 M464,304h-40V160h40V304z"/>
	<path style="fill:#1E81CE;" d="M384,200h16v16h-16V200z"/>
	<path style="fill:#1E81CE;" d="M80,200h16v16H80V200z"/>
	<path style="fill:#1E81CE;" d="M138.34,325.657l11.314-11.313l45.253,45.256l-11.314,11.313L138.34,325.657z"/>
	<path style="fill:#1E81CE;" d="M121.369,342.629l11.314-11.313l56.566,56.57l-11.314,11.313L121.369,342.629z"/>
	<path style="fill:#1E81CE;" d="M256,136h64v16h-64V136z"/>
	<path style="fill:#1E81CE;" d="M256,112h80v16h-80V112z"/>
	<path style="fill:#1E81CE;" d="M128,56h16v16h-16V56z"/>
	<path style="fill:#1E81CE;" d="M144,72h16v16h-16V72z"/>
	<path style="fill:#1E81CE;" d="M112,72h16v16h-16V72z"/>
	<path style="fill:#1E81CE;" d="M128,88h16v16h-16V88z"/>
	<path style="fill:#1E81CE;" d="M400,24h16v16h-16V24z"/>
	<path style="fill:#1E81CE;" d="M416,40h16v16h-16V40z"/>
	<path style="fill:#1E81CE;" d="M384,40h16v16h-16V40z"/>
	<path style="fill:#1E81CE;" d="M400,56h16v16h-16V56z"/>
	<path style="fill:#1E81CE;" d="M280,48h16v16h-16V48z"/>
	<path style="fill:#1E81CE;" d="M296,64h16v16h-16V64z"/>
	<path style="fill:#1E81CE;" d="M264,64h16v16h-16V64z"/>
	<path style="fill:#1E81CE;" d="M280,80h16v16h-16V80z"/>
	<path style="fill:#1E81CE;" d="M376,360h16v16h-16V360z"/>
	<path style="fill:#1E81CE;" d="M392,376h16v16h-16V376z"/>
	<path style="fill:#1E81CE;" d="M360,376h16v16h-16V376z"/>
	<path style="fill:#1E81CE;" d="M376,392h16v16h-16V392z"/>
	<path style="fill:#1E81CE;" d="M264,408h16v16h-16V408z"/>
	<path style="fill:#1E81CE;" d="M280,424h16v16h-16V424z"/>
	<path style="fill:#1E81CE;" d="M248,424h16v16h-16V424z"/>
	<path style="fill:#1E81CE;" d="M264,440h16v16h-16V440z"/>
	<path style="fill:#1E81CE;" d="M64,376h16v16H64V376z"/>
	<path style="fill:#1E81CE;" d="M80,392h16v16H80V392z"/>
	<path style="fill:#1E81CE;" d="M48,392h16v16H48V392z"/>
	<path style="fill:#1E81CE;" d="M64,408h16v16H64V408z"/>
</g>
<g>
</g>
<g>
</g>
<g>
</g>
<g>
</g>
<g>
</g>
<g>
</g>
<g>
</g>
<g>
</g>
<g>
</g>
<g>
</g>
<g>
</g>
<g>
</g>
<g>
</g>
<g>
</g>
<g>
</g>
</svg>
