<svg id="icons" enable-background="new 0 0 64 64" height="512" viewBox="0 0 64 64" width="512" xmlns="http://www.w3.org/2000/svg"><path d="m47 18v4c-2.761-3.61-4.83-4.87-7-4.99l5.39-6.01c1.03 2.11 1.61 4.49 1.61 7z" fill="#5c9eff"/><path d="m17 20.27c-.65-.07-1.311-.16-2-.27v-2c0-8.84 7.159-16 16-16 6.319 0 11.79 3.67 14.39 9l-5.39 6.01c-1.29-.069-2.61.271-4.141.76h-.01c-2.8.91-6.27 2.341-11.43 2.711-2.159.149-4.6.119-7.419-.211z" fill="#94c1ff"/><path d="m35.859 17.77c3.601 1.52 6.141 5.07 6.141 9.23 0 5.52-4.48 10-10 10-5.53 0-10-4.48-10-10 0-2.49.909-4.77 2.42-6.52 5.16-.37 8.63-1.801 11.43-2.711h.009z" fill="#fff"/><path d="m47 22v5c0 5.76-3.24 10.76-8 13.27-2.091 1.1-4.471 1.73-7 1.73-2.53 0-4.91-.63-7-1.73-4.761-2.51-8-7.51-8-13.27v-6.73c2.819.33 5.26.36 7.42.211-1.511 1.749-2.42 4.029-2.42 6.519 0 5.52 4.47 10 10 10 5.52 0 10-4.48 10-10 0-4.16-2.54-7.71-6.141-9.23 1.531-.49 2.851-.83 4.141-.76 2.17.12 4.239 1.38 7 4.99z" fill="#d7e9ff"/><path d="m43.997 18.752v8.248c0 5.76-3.24 10.76-8 13.27-1.671.88-3.529 1.452-5.499 1.649.495.049.994.081 1.502.081 2.529 0 4.909-.63 7-1.73 4.76-2.51 8-7.51 8-13.27v-5c-1.094-1.431-2.077-2.479-3.003-3.248z" fill="#94c1ff"/><path d="m36 48 3-2h6c4.42 0 8 3.58 8 8v7c0 .55-.45 1-1 1h-17l-2-11 2-3.25z" fill="#fff"/><path d="m45 46h-3.003c4.42 0 8 3.58 8 8v7c0 .55-.45 1-1 1h3.003c.55 0 1-.45 1-1v-7c0-4.42-3.58-8-8-8z" fill="#d7e9ff"/><path d="m39 40.27v5.73l-3 2-1-.25-3-.75-3 .75-1 .25-3-2v-5.73c2.09 1.1 4.47 1.73 7 1.73 2.529 0 4.909-.63 7-1.73z" fill="#fff"/><path d="m35 47.75-2 3.25h-2l-2-3.25 3-.75z" fill="#94c1ff"/><path d="m33 51 2 11h-6l2-11z" fill="#5c9eff"/><path d="m29 47.75 2 3.25-2 11h-17c-.561 0-1-.45-1-1v-7c0-4.42 3.58-8 8-8h6l3 2z" fill="#fff"/><g fill="#116fff"><path d="m11 55.002c-.553 0-1-.447-1-1 0-4.964 4.038-9.002 9.002-9.002.553 0 1 .447 1 1s-.447 1-1 1c-3.861 0-7.002 3.141-7.002 7.002 0 .553-.447 1-1 1z"/><path d="m53 55.001c-.553 0-1-.447-1-1 0-3.859-3.141-7-7-7-.553 0-1-.447-1-1s.447-1 1-1c4.963 0 9 4.037 9 9 0 .553-.447 1-1 1z"/><path d="m19.002 47c-.552 0-1-.447-1-1 0-.552.447-1 1-1l5.999-.001c.552 0 1 .447 1 1 0 .552-.447 1-1 1z"/><path d="m11.001 61.999c-.552 0-1-.447-1-1l-.001-6.997c0-.552.447-1 1-1 .552 0 1 .447 1 1l.001 6.997c0 .552-.447 1-1 1z"/><path d="m12.001 62.999c-1.103 0-2-.897-2-2 0-.553.447-1 1-1s1 .447 1 1v.002c.553 0 1 .446 1 .999 0 .552-.447.999-1 .999z"/><path d="m52 62.999c-.553 0-1-.447-1-1s.447-1 1-1h.002c0-.553.446-1 .999-1 .552 0 .999.447.999 1 0 1.103-.897 2-2 2z"/><path d="m53 61.999c-.553 0-1-.447-1-1v-6.998c0-.553.447-1 1-1s1 .447 1 1v6.998c0 .553-.447 1-1 1z"/><path d="m52 62.999h-39.999c-.553 0-1-.447-1-1s.447-1 1-1h39.999c.553 0 1 .447 1 1s-.447 1-1 1z"/><path d="m25 46.999c-.553 0-1-.447-1-1v-5.729c0-.553.447-1 1-1s1 .447 1 1v5.729c0 .553-.447 1-1 1z"/><path d="m39 46.999c-.553 0-1-.447-1-1v-5.729c0-.553.447-1 1-1s1 .447 1 1v5.729c0 .553-.447 1-1 1z"/><path d="m32 43c-8.822 0-16-7.178-16-16 0-.552.447-1 1-1s1 .448 1 1c0 7.72 6.28 14 14 14s14-6.28 14-14c0-.552.447-1 1-1s1 .448 1 1c0 8.822-7.178 16-16 16z"/><path d="m17 28c-.553 0-1-.448-1-1v-6.737c0-.552.447-1 1-1s1 .448 1 1v6.737c0 .552-.447 1-1 1z"/><path d="m47 28c-.553 0-1-.448-1-1v-9.001c0-.552.447-1 1-1s1 .448 1 1v9.001c0 .552-.447 1-1 1z"/><path d="m47 18.999c-.553 0-1-.448-1-1 0-8.27-6.729-14.998-14.998-14.998s-14.998 6.728-14.998 14.998c0 .552-.447 1-1 1s-1-.448-1-1c0-9.373 7.625-16.998 16.998-16.998s16.998 7.625 16.998 16.998c0 .552-.447 1-1 1z"/><path d="m47.001 22.999c-.301 0-.598-.135-.795-.392-4.439-5.795-6.609-5.057-11.364-3.44-4.218 1.435-9.99 3.398-19.994 1.82-.545-.086-.918-.598-.831-1.144.086-.545.601-.917 1.144-.832 9.51 1.503 15.017-.371 19.038-1.738 4.99-1.695 8.285-2.816 13.596 4.118.336.438.253 1.066-.186 1.402-.182.139-.396.206-.608.206z"/><path d="m15.004 20.999c-.553 0-1-.448-1-1v-2c0-.552.447-1 1-1s1 .448 1 1v2c0 .552-.447 1-1 1z"/><path d="m40 18.011c-.238 0-.477-.084-.668-.255-.411-.369-.445-1.001-.076-1.412l5.391-6.012c.369-.412 1.002-.443 1.412-.077.411.369.445 1.001.076 1.412l-5.391 6.012c-.197.219-.471.332-.744.332z"/><path d="m28 48.999c-.448 0-.855-.303-.969-.758-.135-.535.191-1.078.728-1.212l3.999-1c.533-.135 1.078.191 1.212.728.135.535-.191 1.078-.728 1.212l-3.999 1c-.081.02-.163.03-.243.03z"/><path d="m36.001 48.999c-.08 0-.162-.01-.243-.03l-4-1c-.536-.134-.862-.677-.728-1.212.133-.537.674-.863 1.212-.728l4 1c.536.134.862.677.728 1.212-.114.455-.521.758-.969.758z"/><path d="m45 47.001h-6c-.553 0-1-.447-1-1s.447-1 1-1h6c.553 0 1 .447 1 1s-.447 1-1 1z"/><path d="m29.001 62.999c-.06 0-.119-.005-.18-.017-.544-.099-.904-.619-.805-1.162l2-10.998c.099-.544.62-.907 1.162-.805.544.099.904.619.805 1.162l-2 10.998c-.087.484-.507.822-.982.822z"/><path d="m34.999 62.999c-.475 0-.896-.338-.982-.821l-2-11c-.1-.543.261-1.063.805-1.162.542-.105 1.064.261 1.162.805l2 11c.1.543-.261 1.063-.805 1.162-.061.011-.12.016-.18.016z"/><path d="m33 52.001h-2c-.553 0-1-.447-1-1s.447-1 1-1h2c.553 0 1 .447 1 1s-.447 1-1 1z"/><path d="m32.999 52.001c-.179 0-.359-.048-.522-.148-.471-.289-.618-.905-.328-1.375l2-3.252c.288-.472.904-.619 1.375-.328.471.289.618.905.328 1.375l-2 3.252c-.189.307-.517.476-.853.476z"/><path d="m31.001 52.001c-.336 0-.664-.169-.853-.477l-2-3.252c-.29-.47-.143-1.086.328-1.375.469-.291 1.086-.144 1.375.328l2 3.252c.29.47.143 1.086-.328 1.375-.163.101-.343.149-.522.149z"/><path d="m28 48.999c-.19 0-.383-.055-.554-.168l-3-2c-.46-.307-.584-.927-.277-1.387.306-.459.926-.583 1.387-.277l3 2c.46.307.584.927.277 1.387-.192.289-.51.445-.833.445z"/><path d="m36.001 48.999c-.323 0-.641-.156-.833-.445-.307-.46-.183-1.08.277-1.387l3-2c.46-.306 1.081-.182 1.387.277.307.46.183 1.08-.277 1.387l-3 2c-.171.113-.364.168-.554.168z"/><path d="m32 38c-6.065 0-11-4.935-11-11 0-2.633.945-5.182 2.662-7.175.361-.42.992-.465 1.41-.105.419.36.466.992.105 1.41-1.404 1.631-2.177 3.716-2.177 5.87 0 4.962 4.037 9 9 9s9-4.038 9-9c0-3.641-2.171-6.901-5.529-8.307-.51-.213-.75-.799-.537-1.308.214-.51.801-.75 1.309-.537 4.105 1.717 6.757 5.702 6.757 10.152 0 6.065-4.935 11-11 11z"/><path d="m26 27.999c-.256 0-.512-.098-.707-.293-.391-.39-.391-1.023 0-1.414l1.999-2c.391-.391 1.023-.391 1.414 0 .391.39.391 1.023 0 1.414l-1.999 2c-.195.195-.451.293-.707.293z"/><path d="m27.999 29.998c-.256 0-.512-.098-.707-.293l-1.999-2c-.391-.391-.391-1.024 0-1.414.391-.391 1.023-.391 1.414 0l1.999 2c.391.391.391 1.024 0 1.414-.195.195-.451.293-.707.293z"/><path d="m38.003 27.999c-.256 0-.512-.098-.707-.293l-1.999-2c-.391-.391-.391-1.024 0-1.414.391-.391 1.023-.391 1.414 0l1.999 2c.391.391.391 1.024 0 1.414-.195.195-.451.293-.707.293z"/><path d="m36.004 29.998c-.256 0-.512-.098-.707-.293-.391-.39-.391-1.023 0-1.414l1.999-2c.391-.391 1.023-.391 1.414 0 .391.39.391 1.023 0 1.414l-1.999 2c-.195.195-.451.293-.707.293z"/><path d="m31.001 30.999c-.104 0-.211-.017-.316-.052-.523-.175-.807-.741-.632-1.265l1.999-5.999c.175-.524.736-.81 1.265-.633.523.175.807.741.632 1.265l-1.999 5.999c-.14.42-.53.685-.949.685z"/></g></svg>