<svg height="512" viewBox="0 0 64 64" width="512" xmlns="http://www.w3.org/2000/svg"><g id="Storage-data_base-mobile-graph-cloud" data-name="Storage-data base-mobile-graph-cloud"><path d="m48 21a7 7 0 0 1 -7 7h-29a9 9 0 0 1 0-18c.16 0 .31.02.46.02a12.985 12.985 0 0 1 24.5 5.27 6.993 6.993 0 0 1 11.04 5.71z" fill="#2488ff"/><path d="m61 51v8a2.006 2.006 0 0 1 -2 2h-22a2.006 2.006 0 0 1 -2-2v-8z" fill="#e8e5fb"/><path d="m35 25h26v26h-26z" fill="#5bcbfa"/><circle cx="48" cy="56" fill="#5bcbfa" r="2"/><path d="m61 23v2h-26v-2a2.006 2.006 0 0 1 2-2h22a2.006 2.006 0 0 1 2 2z" fill="#e8e5fb"/><path d="m57 36h-7v-7a7 7 0 0 1 7 7z" fill="#ec455a"/><path d="m47 39h7a7 7 0 1 1 -7-7z" fill="#f3ac3c"/><path d="m17 21h2v17h-2z" fill="#6bc19a"/><path d="m28 47h7v2h-7z" fill="#6bc19a"/><path d="m8 49c0 1.66 4.48 3 10 3s10-1.34 10-3v5c0 1.66-4.48 3-10 3s-10-1.34-10-3z" fill="#896ff7"/><path d="m18 42c5.52 0 10-1.34 10-3v5c0 1.66-4.48 3-10 3s-10-1.34-10-3v-5c0 1.66 4.48 3 10 3z" fill="#896ff7"/><path d="m8 44c0 1.66 4.48 3 10 3s10-1.34 10-3v5c0 1.66-4.48 3-10 3s-10-1.34-10-3z" fill="#b9b1f1"/><ellipse cx="18" cy="39" fill="#b9b1f1" rx="10" ry="3"/><circle cx="18" cy="19" fill="#ec455a" r="3"/></g></svg>