<?xml version="1.0" encoding="iso-8859-1"?>
<!-- Generator: Adobe Illustrator 19.0.0, SVG Export Plug-In . SVG Version: 6.00 Build 0)  -->
<svg version="1.1" id="Capa_1" xmlns="http://www.w3.org/2000/svg" xmlns:xlink="http://www.w3.org/1999/xlink" x="0px" y="0px"
	 viewBox="0 0 512 512" style="enable-background:new 0 0 512 512;" xml:space="preserve">
<g>
	<g>
		<g style="fill:#1E81CE;">
			<path d="M352,330.667h21.333v-32c0-5.891-4.776-10.667-10.667-10.667h-32v21.333H352V330.667z"/>
			<path d="M373.333,426.667v-32H352V416h-21.333v21.333h32C368.558,437.333,373.333,432.558,373.333,426.667z"/>
			<path d="M53.333,394.667H32v32c0,5.891,4.776,10.667,10.667,10.667h32V416H53.333V394.667z"/>
			<path d="M32,298.667v32h21.333v-21.333h21.333V288h-32C36.776,288,32,292.776,32,298.667z"/>
			<path d="M480,0H117.333c-17.673,0-32,14.327-32,32v224H32c-17.673,0-32,14.327-32,32v149.333c0,17.673,14.327,32,32,32V480
				c0,17.673,14.327,32,32,32h416c17.673,0,32-14.327,32-32V32C512,14.327,497.673,0,480,0z M384,21.333h64v96h-64V21.333z M32,448
				c-5.891,0-10.667-4.776-10.667-10.667V288c0-5.891,4.776-10.667,10.667-10.667h106.667
				c-47.128,35.346-56.68,102.205-21.333,149.333c6.064,8.086,13.247,15.269,21.333,21.333H32z M288,298.667
				c-6.064-8.086-13.247-15.269-21.333-21.333h106.667c5.891,0,10.667,4.776,10.667,10.667v149.333
				c0,5.891-4.776,10.667-10.667,10.667H266.667C313.795,412.654,323.346,345.795,288,298.667z M288,362.667
				C288,409.795,249.795,448,202.667,448s-85.333-38.205-85.333-85.333s38.205-85.333,85.333-85.333S288,315.538,288,362.667z
				 M426.667,480c0,5.891-4.776,10.667-10.667,10.667H64c-5.891,0-10.667-4.776-10.667-10.667v-10.667h320c17.673,0,32-14.327,32-32
				v-128H416c5.891,0,10.667,4.776,10.667,10.667V480z M490.667,480c0,5.891-4.776,10.667-10.667,10.667h-33.92
				c1.242-3.421,1.891-7.028,1.92-10.667V320c0-17.673-14.327-32-32-32h-10.667c0-17.673-14.327-32-32-32H106.667V32
				c0-5.891,4.776-10.667,10.667-10.667h245.333V128c0,5.891,4.776,10.667,10.667,10.667h85.333c5.891,0,10.667-4.776,10.667-10.667
				V21.333H480c5.891,0,10.667,4.776,10.667,10.667V480z"/>
			<rect x="362.667" y="160" width="106.667" height="21.333"/>
			<rect x="362.667" y="202.667" width="106.667" height="21.333"/>
			<path d="M128,53.333V128h21.333V64h21.333V42.667h-32C132.776,42.667,128,47.442,128,53.333z"/>
			<path d="M224,309.333h-10.667V288H192v21.333h-10.667c-11.782,0-21.333,9.551-21.333,21.333V352
				c0,11.782,9.551,21.333,21.333,21.333H224v21.333h-42.667V384H160v10.667c0,11.782,9.551,21.333,21.333,21.333H192v21.333h21.333
				V416H224c11.782,0,21.333-9.551,21.333-21.333v-21.333c0-11.782-9.551-21.333-21.333-21.333h-42.667v-21.333H224v10.667h21.333
				v-10.667C245.333,318.885,235.782,309.333,224,309.333z"/>
		</g>
	</g>
</g>
<g>
</g>
<g>
</g>
<g>
</g>
<g>
</g>
<g>
</g>
<g>
</g>
<g>
</g>
<g>
</g>
<g>
</g>
<g>
</g>
<g>
</g>
<g>
</g>
<g>
</g>
<g>
</g>
<g>
</g>
</svg>
