<svg height="480pt" viewBox="0 0 480 480" width="480pt" xmlns="http://www.w3.org/2000/svg"><path d="m469.679688 53.039062-15.839844-2c-.558594-1.578124-1.199219-3.128906-1.917969-4.640624l9.757813-12.558594c.851562-1.085938.75-2.636719-.238282-3.601563l-11.679687-11.679687c-.964844-.988282-2.515625-1.089844-3.601563-.238282l-12.558594 9.757813c-1.511718-.71875-3.0625-1.359375-4.640624-1.917969l-2-15.839844c-.179688-1.324218-1.304688-2.3125-2.640626-2.320312h-16.640624c-1.335938.007812-2.460938.996094-2.640626 2.320312l-2 15.839844c-1.578124.558594-3.128906 1.199219-4.640624 1.917969l-12.558594-9.757813c-1.085938-.851562-2.636719-.75-3.601563.238282l-11.679687 11.679687c-.988282.964844-1.089844 2.515625-.238282 3.601563l9.757813 12.558594c-.71875 1.511718-1.359375 3.0625-1.917969 4.640624l-15.839844 2c-1.324218.179688-2.3125 1.304688-2.320312 2.640626v16.640624c.007812 1.335938.996094 2.460938 2.320312 2.640626l15.839844 2c.558594 1.578124 1.199219 3.128906 1.917969 4.640624l-9.757813 12.558594c-.851562 1.085938-.75 2.636719.238282 3.601563l11.679687 11.679687c.964844.988282 2.515625 1.089844 3.601563.238282l12.558594-9.757813c1.511718.71875 3.0625 1.359375 4.640624 1.917969l2 15.839844c.179688 1.324218 1.304688 2.3125 2.640626 2.320312h16.640624c1.335938-.007812 2.460938-.996094 2.640626-2.320312l2-15.839844c1.578124-.558594 3.128906-1.199219 4.640624-1.917969l12.558594 9.757813c1.085938.851562 2.636719.75 3.601563-.238282l11.679687-11.679687c.988282-.964844 1.089844-2.515625.238282-3.601563l-9.757813-12.558594c.71875-1.511718 1.359375-3.0625 1.917969-4.640624l15.839844-2c1.324218-.179688 2.3125-1.304688 2.320312-2.640626v-16.640624c-.007812-1.335938-.996094-2.460938-2.320312-2.640626zm-53.679688 26.960938c-8.835938 0-16-7.164062-16-16s7.164062-16 16-16 16 7.164062 16 16c-.027344 8.824219-7.175781 15.972656-16 16zm0 0" fill="#78b9eb"/><path d="m310.238281 145.359375-8.71875-11.199219c1.304688-2.574218 2.402344-5.25 3.28125-8l27.199219-3.359375c2.292969-.292969 4.011719-2.25 4-4.5625v-28.476562c.011719-2.3125-1.707031-4.269531-4-4.5625l-27.199219-3.359375c-.878906-2.75-1.976562-5.425782-3.28125-8l16.800781-21.601563c1.445313-1.828125 1.273438-4.453125-.398437-6.078125l-20.082031-20.082031c-1.625-1.671875-4.25-1.84375-6.078125-.398437l-21.601563 16.800781c-2.574218-1.304688-5.25-2.402344-8-3.28125l-3.359375-27.199219c-.292969-2.292969-2.25-4.011719-4.5625-4h-28.476562c-2.3125-.011719-4.269531 1.707031-4.5625 4l-3.359375 27.199219c-2.75.878906-5.425782 1.976562-8 3.28125l-21.601563-16.800781c-1.828125-1.445313-4.453125-1.273438-6.078125.398437l-20.082031 20.082031c-1.671875 1.625-1.84375 4.25-.398437 6.078125l16.800781 21.601563c-1.304688 2.574218-2.402344 5.25-3.28125 8l-27.199219 3.359375c-2.292969.292969-4.011719 2.25-4 4.5625v28.476562c-.011719 2.3125 1.707031 4.269531 4 4.5625l27.199219 3.359375c.878906 2.75 1.976562 5.425782 3.28125 8l-8.71875 11.199219-1.761719-1.359375h-112v24h112l.160156-.078125 14 14c1.625 1.671875 4.25 1.84375 6.078125.398437l21.601563-16.800781c2.574218 1.304688 5.25 2.402344 8 3.28125l3.359375 27.199219c.292969 2.292969 2.25 4.011719 4.5625 4h28.476562c2.3125.011719 4.269531-1.707031 4.5625-4l3.359375-27.199219c2.75-.878906 5.425782-1.976562 8-3.28125l21.601563 16.800781c1.828125 1.445313 4.453125 1.273438 6.078125-.398437l14.082031-14 .078125.078125h112v-24h-112zm-70.238281-1.359375c-22.089844 0-40-17.910156-40-40s17.910156-40 40-40 40 17.910156 40 40-17.910156 40-40 40zm0 0" fill="#78b9eb"/><path d="m74.960938 117.679688 2-15.839844c1.578124-.558594 3.128906-1.199219 4.640624-1.917969l12.558594 9.757813c1.085938.851562 2.636719.75 3.601563-.238282l11.679687-11.679687c.988282-.964844 1.089844-2.515625.238282-3.601563l-9.757813-12.558594c.71875-1.511718 1.359375-3.0625 1.917969-4.640624l15.839844-2c1.324218-.179688 2.3125-1.304688 2.320312-2.640626v-16.640624c-.007812-1.335938-.996094-2.460938-2.320312-2.640626l-15.839844-2c-.558594-1.578124-1.199219-3.128906-1.917969-4.640624l9.757813-12.558594c.851562-1.085938.75-2.636719-.238282-3.601563l-11.679687-11.679687c-.964844-.988282-2.515625-1.089844-3.601563-.238282l-12.558594 9.757813c-1.511718-.71875-3.0625-1.359375-4.640624-1.917969l-2-15.839844c-.179688-1.324218-1.304688-2.3125-2.640626-2.320312h-16.640624c-1.335938.007812-2.460938.996094-2.640626 2.320312l-2 15.839844c-1.578124.558594-3.128906 1.199219-4.640624 1.917969l-12.558594-9.757813c-1.085938-.851562-2.636719-.75-3.601563.238282l-11.679687 11.679687c-.988282.964844-1.089844 2.515625-.238282 3.601563l9.757813 12.558594c-.71875 1.511718-1.359375 3.0625-1.917969 4.640624l-15.839844 2c-1.324218.179688-2.3125 1.304688-2.320312 2.640626v16.640624c.007812 1.335938.996094 2.460938 2.320312 2.640626l15.839844 2c.558594 1.578124 1.199219 3.128906 1.917969 4.640624l-9.757813 12.558594c-.851562 1.085938-.75 2.636719.238282 3.601563l11.679687 11.679687c.964844.988282 2.515625 1.089844 3.601563.238282l12.558594-9.757813c1.511718.71875 3.0625 1.359375 4.640624 1.917969l2 15.839844c.179688 1.324218 1.304688 2.3125 2.640626 2.320312h16.640624c1.335938-.007812 2.460938-.996094 2.640626-2.320312zm-26.960938-53.679688c0-8.835938 7.164062-16 16-16s16 7.164062 16 16-7.164062 16-16 16c-8.824219-.027344-15.972656-7.175781-16-16zm0 0" fill="#78b9eb"/><path d="m112 344h64c8.835938 0 16 7.164062 16 16v64c0 8.835938-7.164062 16-16 16h-64c-8.835938 0-16-7.164062-16-16v-64c0-8.835938 7.164062-16 16-16zm0 0" fill="#78b9eb"/><path d="m112 208h64c8.835938 0 16 7.164062 16 16v64c0 8.835938-7.164062 16-16 16h-64c-8.835938 0-16-7.164062-16-16v-64c0-8.835938 7.164062-16 16-16zm0 0" fill="#78b9eb"/><g fill="#1a6fb0"><path d="m176 200h-64c-13.253906 0-24 10.746094-24 24v64c0 13.253906 10.746094 24 24 24h64c13.253906 0 24-10.746094 24-24v-64c0-13.253906-10.746094-24-24-24zm8 88c0 4.417969-3.582031 8-8 8h-64c-4.417969 0-8-3.582031-8-8v-64c0-4.417969 3.582031-8 8-8h64c4.417969 0 8 3.582031 8 8zm0 0"/><path d="m176 336h-64c-13.253906 0-24 10.746094-24 24v64c0 13.253906 10.746094 24 24 24h64c13.253906 0 24-10.746094 24-24v-64c0-13.253906-10.746094-24-24-24zm8 88c0 4.417969-3.582031 8-8 8h-64c-4.417969 0-8-3.582031-8-8v-64c0-4.417969 3.582031-8 8-8h64c4.417969 0 8 3.582031 8 8zm0 0"/><path d="m216 224h32v16h-32zm0 0"/><path d="m216 248h16v16h-16zm0 0"/><path d="m240 264h88v-16h-88zm0 0"/><path d="m216 272v16h176v-16zm0 0"/><path d="m216 296h40v16h-40zm0 0"/><path d="m216 336v16h176v-16zm0 0"/><path d="m216 360h32v16h-32zm0 0"/><path d="m216 384h16v16h-16zm0 0"/><path d="m240 400h88v-16h-88zm0 0"/><path d="m216 408v16h176v-16zm0 0"/><path d="m216 432h40v16h-40zm0 0"/><path d="m264 432v16h88v-16zm0 0"/><path d="m312 200h80v16h-80zm0 0"/><path d="m344 240v-16h-88v16zm0 0"/><path d="m352 224h40v16h-40zm0 0"/><path d="m336 248h56v16h-56zm0 0"/><path d="m352 312v-16h-88v16zm0 0"/><path d="m360 296h32v16h-32zm0 0"/><path d="m344 376v-16h-88v16zm0 0"/><path d="m352 360h40v16h-40zm0 0"/><path d="m336 384h56v16h-56zm0 0"/><path d="m360 432h32v16h-32zm0 0"/><path d="m240 152c26.507812 0 48-21.492188 48-48s-21.492188-48-48-48-48 21.492188-48 48c.027344 26.5 21.5 47.972656 48 48zm0-80c17.671875 0 32 14.328125 32 32s-14.328125 32-32 32-32-14.328125-32-32 14.328125-32 32-32zm0 0"/><path d="m470.679688 45.105469-6.9375-.875 4.296874-5.519531c3.28125-4.25 2.902344-10.277344-.878906-14.085938l-11.777344-11.753906c-3.808593-3.804688-9.855468-4.175782-14.101562-.871094l-5.519531 4.296875-.867188-6.929687c-.660156-5.34375-5.195312-9.3593755-10.582031-9.367188h-16.625c-5.378906.00390625-9.914062 4.007812-10.582031 9.34375l-.867188 6.945312-5.519531-4.289062c-4.246094-3.304688-10.289062-2.929688-14.09375.871094l-11.769531 11.761718c-3.777344 3.816407-4.140625 9.839844-.855469 14.085938l4.289062 5.511719-6.960937.875c-5.324219.683593-9.316406 5.214843-9.328125 10.582031v16.625c.011719 5.375 4.011719 9.902344 9.34375 10.582031l6.9375.875-4.296875 5.519531c-3.28125 4.25-2.902344 10.277344.878906 14.085938l11.753907 11.753906c3.808593 3.800782 9.851562 4.179688 14.101562.878906l5.519531-4.296874.867188 6.929687c.664062 5.339844 5.199219 9.351563 10.582031 9.359375h16.625c5.378906-.003906 9.914062-4.007812 10.582031-9.34375l.867188-6.945312 5.519531 4.296874c4.246094 3.308594 10.289062 2.933594 14.09375-.871093l11.769531-11.769531c3.777344-3.816407 4.140625-9.839844.855469-14.085938l-4.289062-5.511719 6.960937-.875c5.324219-.683593 9.316406-5.214843 9.328125-10.582031v-16.625c-.011719-5.367188-4-9.894531-9.320312-10.582031zm-6.679688 22.503906-11.199219 1.390625c-3.039062.378906-5.59375 2.457031-6.585937 5.351562-.433594 1.269532-.949219 2.515626-1.542969 3.71875-1.347656 2.746094-1.011719 6.019532.863281 8.433594l6.929688 8.886719-5.105469 5.105469-8.863281-6.894532c-2.421875-1.882812-5.707032-2.21875-8.457032-.859374-1.191406.59375-2.425781 1.109374-3.6875 1.539062-2.894531.988281-4.972656 3.542969-5.351562 6.582031l-1.398438 11.136719h-7.203124l-1.398438-11.199219c-.378906-3.039062-2.457031-5.59375-5.351562-6.585937-1.261719-.429688-2.496094-.941406-3.6875-1.535156-2.753907-1.363282-6.042969-1.03125-8.464844.855468l-8.886719 6.929688-5.105469-5.105469 6.929688-8.886719c1.875-2.414062 2.210937-5.6875.863281-8.433594-.59375-1.207031-1.109375-2.449218-1.542969-3.71875-.992187-2.898437-3.546875-4.976562-6.585937-5.351562l-11.167969-1.359375v-7.203125l11.199219-1.390625c3.039062-.378906 5.59375-2.453125 6.585937-5.351563.433594-1.269531.949219-2.511718 1.542969-3.71875 1.332031-2.761718.972656-6.039062-.929687-8.441406l-6.925782-8.894531 5.101563-5.105469 8.890625 6.929688c2.421875 1.882812 5.710937 2.21875 8.464844.855468 1.191406-.59375 2.425781-1.109374 3.6875-1.535156 2.894531-.992187 4.972656-3.546875 5.351562-6.585937l1.429688-11.167969h7.203124l1.398438 11.199219c.378906 3.039062 2.457031 5.59375 5.351562 6.585937 1.261719.429688 2.496094.941406 3.6875 1.535156 2.761719 1.339844 6.046876.984376 8.457032-.921874l8.894531-6.925782 5.105469 5.101563-6.894532 8.929687c-1.875 2.414063-2.210937 5.679688-.867187 8.425782.59375 1.203124 1.109375 2.449218 1.546875 3.71875.988281 2.894531 3.542969 4.972656 6.582031 5.351562l11.199219 1.390625zm0 0"/><path d="m416 40c-13.253906 0-24 10.746094-24 24s10.746094 24 24 24 24-10.746094 24-24-10.746094-24-24-24zm0 32c-4.417969 0-8-3.582031-8-8s3.582031-8 8-8 8 3.582031 8 8-3.582031 8-8 8zm0 0"/><path d="m55.6875 128h16.625c5.378906-.003906 9.914062-4.007812 10.582031-9.34375l.867188-6.945312 5.519531 4.296874c4.246094 3.308594 10.289062 2.933594 14.09375-.871093l11.769531-11.769531c3.777344-3.816407 4.140625-9.839844.855469-14.085938l-4.289062-5.511719 6.960937-.875c5.324219-.683593 9.316406-5.214843 9.328125-10.582031v-16.625c-.011719-5.375-4.011719-9.902344-9.34375-10.582031l-6.9375-.875 4.296875-5.519531c3.28125-4.25 2.902344-10.277344-.878906-14.085938l-11.753907-11.753906c-3.800781-3.816406-9.851562-4.191406-14.09375-.878906l-5.527343 4.296874-.867188-6.929687c-.664062-5.339844-5.199219-9.3515625-10.582031-9.359375h-16.625c-5.378906.00390625-9.914062 4.007812-10.582031 9.34375l-.867188 6.945312-5.519531-4.289062c-4.246094-3.304688-10.289062-2.929688-14.09375.871094l-11.769531 11.761718c-3.777344 3.816407-4.140625 9.839844-.855469 14.085938l4.289062 5.511719-6.9375.875c-5.335937.675781-9.335937 5.207031-9.351562 10.582031v16.625c.0117188 5.375 4.011719 9.902344 9.34375 10.582031l6.9375.875-4.296875 5.519531c-3.28125 4.25-2.902344 10.277344.878906 14.085938l11.753907 11.753906c3.800781 3.808594 9.847656 4.183594 14.09375.878906l5.527343-4.296874.867188 6.929687c.664062 5.339844 5.199219 9.351563 10.582031 9.359375zm-14.191406-34.398438-8.886719 6.925782-5.105469-5.101563 6.894532-8.921875c1.878906-2.414062 2.210937-5.6875.867187-8.433594-.59375-1.203124-1.109375-2.449218-1.546875-3.71875-.988281-2.894531-3.542969-4.972656-6.582031-5.351562l-11.136719-1.390625v-7.203125l11.199219-1.390625c3.039062-.378906 5.59375-2.453125 6.585937-5.351563.433594-1.269531.949219-2.511718 1.542969-3.71875 1.332031-2.761718.972656-6.039062-.929687-8.441406l-6.894532-8.894531 5.105469-5.105469 8.886719 6.894532c2.421875 1.886718 5.710937 2.21875 8.464844.859374 1.191406-.59375 2.425781-1.109374 3.6875-1.539062 2.878906-.980469 4.953124-3.503906 5.351562-6.519531l1.398438-11.199219h7.203124l1.398438 11.199219c.378906 3.039062 2.457031 5.59375 5.351562 6.585937 1.261719.429688 2.496094.941406 3.6875 1.535156 2.761719 1.339844 6.046876.984376 8.457032-.921874l8.894531-6.925782 5.105469 5.101563-6.894532 8.929687c-1.875 2.414063-2.210937 5.679688-.867187 8.425782.59375 1.203124 1.109375 2.449218 1.546875 3.71875.988281 2.894531 3.542969 4.972656 6.582031 5.351562l11.199219 1.390625v7.203125l-11.199219 1.390625c-3.039062.378906-5.59375 2.453125-6.582031 5.351563-.4375 1.269531-.953125 2.511718-1.546875 3.71875-1.34375 2.746093-1.011719 6.019531.867187 8.433593l6.925782 8.886719-5.101563 5.105469-8.929687-6.878907c-2.421875-1.882812-5.707032-2.21875-8.457032-.859374-1.191406.59375-2.425781 1.109374-3.6875 1.539062-2.894531.988281-4.972656 3.542969-5.351562 6.582031l-1.398438 11.136719h-7.203124l-1.398438-11.199219c-.378906-3.039062-2.457031-5.59375-5.351562-6.585937-1.261719-.429688-2.496094-.941406-3.6875-1.535156-2.765626-1.34375-6.054688-.988282-8.464844.921874zm0 0"/><path d="m88 64c0-13.253906-10.746094-24-24-24s-24 10.746094-24 24 10.746094 24 24 24 24-10.746094 24-24zm-32 0c0-4.417969 3.582031-8 8-8s8 3.582031 8 8-3.582031 8-8 8-8-3.582031-8-8zm0 0"/><path d="m424 136h-110.902344l-1.976562-2.535156 21.878906-2.738282c6.28125-.804687 10.988281-6.148437 11-12.480468v-28.492188c-.011719-6.332031-4.71875-11.675781-11-12.480468l-21.871094-2.738282 13.535156-17.390625c3.875-5.011719 3.429688-12.121093-1.039062-16.609375l-20.160156-20.160156c-4.492188-4.46875-11.605469-4.910156-16.609375-1.023438l-17.398438 13.527344-2.738281-21.863281c-.789062-6.289063-6.132812-11.0078125-12.472656-11.015625h-28.492188c-6.339844.0078125-11.683594 4.726562-12.472656 11.015625l-2.738281 21.863281-17.398438-13.535156c-5.015625-3.863281-12.113281-3.417969-16.609375 1.039062l-20.152344 20.152344c-4.46875 4.492188-4.914062 11.605469-1.03125 16.617188l13.527344 17.382812-21.878906 2.738282c-6.28125.804687-10.988281 6.148437-11 12.480468v28.492188c.011719 6.335937 4.722656 11.679687 11.007812 12.480468l21.871094 2.738282-1.976562 2.535156h-110.902344c-4.417969 0-8 3.582031-8 8v312c0 13.253906 10.746094 24 24 24h336c13.253906 0 24-10.746094 24-24v-312c0-4.417969-3.582031-8-8-8zm-8 24h-88.894531c.304687-2.800781-.351563-5.621094-1.867188-8h90.761719zm-264-44.800781v-22.398438l24.160156-3.015625c3.035156-.382812 5.585938-2.457031 6.574219-5.351562.824219-2.40625 1.804687-4.753906 2.929687-7.035156 1.347657-2.746094 1.007813-6.023438-.871093-8.4375l-14.953125-19.199219 15.871094-15.882813 19.199218 14.96875c2.421875 1.882813 5.699219 2.21875 8.449219.863282 2.273437-1.128907 4.617187-2.105469 7.015625-2.925782 2.894531-.988281 4.972656-3.542968 5.351562-6.578125l3.074219-24.207031h22.398438l3.015625 24.160156c.382812 3.035156 2.457031 5.585938 5.351562 6.574219 2.402344.824219 4.746094 1.800781 7.019532 2.929687 2.753906 1.363282 6.046874 1.027344 8.46875-.863281l19.203124-14.96875 15.902344 15.878907-14.953125 19.199218c-1.878906 2.417969-2.21875 5.695313-.871093 8.441406 1.125 2.277344 2.105468 4.628907 2.929687 7.03125.988281 2.894532 3.539063 4.972657 6.574219 5.351563l24.160156 3.066406v22.398438l-24.160156 3.015625c-3.035156.382812-5.585938 2.457031-6.574219 5.351562-.824219 2.40625-1.804687 4.753906-2.929687 7.035156-1.347657 2.746094-1.007813 6.023438.871093 8.4375l14.953125 19.199219-15.871094 15.882813-19.199218-14.96875c-2.421875-1.882813-5.699219-2.21875-8.449219-.863282-2.273437 1.128907-4.617187 2.105469-7.015625 2.925782-2.894531.988281-4.972656 3.542968-5.351562 6.578125l-3.074219 24.207031h-22.398438l-3.015625-24.160156c-.382812-3.035156-2.457031-5.585938-5.351562-6.574219-2.402344-.824219-4.746094-1.800781-7.019532-2.929687-2.746093-1.355469-6.027343-1.019532-8.445312.863281l-19.199219 14.96875-15.929687-15.878907 14.953125-19.199218c1.878906-2.417969 2.21875-5.695313.871093-8.441406-1.125-2.277344-2.105468-4.628907-2.929687-7.03125-.988281-2.894532-3.539063-4.972657-6.574219-5.351563zm2.761719 36.800781c-1.515625 2.378906-2.171875 5.199219-1.867188 8h-88.894531v-8zm261.238281 304c0 4.417969-3.582031 8-8 8h-336c-4.417969 0-8-3.582031-8-8v-280h100.929688l11.613281 11.625c4.492187 4.46875 11.605469 4.910156 16.609375 1.023438l17.390625-13.527344 2.738281 21.863281c.789062 6.289063 6.132812 11.007813 12.472656 11.015625h28.492188c6.339844-.007812 11.683594-4.726562 12.472656-11.015625l2.738281-21.863281 17.398438 13.535156c5.011719 3.878906 12.121093 3.433594 16.609375-1.039062l11.605468-11.617188h100.929688zm0 0"/><path d="m0 160v288c0 4.417969 3.582031 8 8 8h24v-16h-16v-272h16v-16h-24c-4.417969 0-8 3.582031-8 8zm0 0"/><path d="m472 152h-24v16h16v272h-16v16h24c4.417969 0 8-3.582031 8-8v-288c0-4.417969-3.582031-8-8-8zm0 0"/></g></svg>