<svg height="512" viewBox="0 0 64 64" width="512" xmlns="http://www.w3.org/2000/svg"><g id="Graphic_Designer-Occupation-Avatar-Designer-Graphic_Tablet" data-name="Graphic Designer-Occupation-Avatar-Designer-Graphic Tablet"><path d="m57 42v11l-1 2h-1-1l-1-2v-11z" fill="#bddbff"/><path d="m53 38v3 1h4v-1-3z" fill="#bddbff"/><circle cx="39" cy="51" fill="#bddbff" r="2"/><path d="m10 61h-7v-12.65a9.989 9.989 0 0 1 7.02-9.54l6.77-2.12.21 5.31 6-2 6 2 .21-5.31 6.77 2.12a9.887 9.887 0 0 1 3.79 2.19h-4.77a2.006 2.006 0 0 0 -2 2v16a2.006 2.006 0 0 0 2 2z" fill="#bddbff"/><path d="m33 13v3c-2.3 0-4.24-2.49-4.81-5.88a15.053 15.053 0 0 1 -5.19.88 15.053 15.053 0 0 1 -5.19-.88c-.57 3.39-2.51 5.88-4.81 5.88v-3a10 10 0 0 1 20 0z" fill="#bddbff"/><path d="m29.21 36.69-.21 5.31-6-2 4-4z" fill="#bddbff"/><ellipse cx="23" cy="28" fill="#bddbff" rx="5.83" ry="5"/><path d="m23 40-6 2-.21-5.31 2.21-.69z" fill="#bddbff"/><g fill="#3d9ae2"><path d="m18 18h2v2h-2z"/><path d="m26 18h2v2h-2z"/><path d="m21 27h4v2h-4z"/><path d="m11 48h-2v12h-5v-11.65a8.948 8.948 0 0 1 6.319-8.585l5.524-1.729.158 4a1 1 0 0 0 .999.964 1.01 1.01 0 0 0 .316-.051l5.684-1.895 5.684 1.895a1 1 0 0 0 .884-.126 1 1 0 0 0 .432-.783l.158-4 4.542 1.418.6-1.909-7.3-2.284v-2.479a11 11 0 0 0 6-9.786v-1a3 3 0 0 0 0-6v-3a11 11 0 0 0 -22 0v3a3 3 0 0 0 0 6v1a11 11 0 0 0 6 9.786v2.479l-8.277 2.59a10.94 10.94 0 0 0 -7.723 10.495v12.65a1 1 0 0 0 1 1h27v-2h-19zm17.181-10.582-.128 3.212-3.2-1.067 2.428-2.428zm-10.014-9.418c0-2.206 2.168-4 4.833-4s4.833 1.794 4.833 4-2.168 4-4.833 4-4.833-1.794-4.833-4zm16.833-9a1 1 0 0 1 -1 1v-2a1 1 0 0 1 1 1zm-12-15a9.011 9.011 0 0 1 9 9v1.739c-1.314-.633-2.43-2.44-2.824-4.785a1 1 0 0 0 -1.334-.771 15.022 15.022 0 0 1 -9.684 0 1 1 0 0 0 -1.334.771c-.394 2.346-1.51 4.152-2.824 4.785v-1.739a9.011 9.011 0 0 1 9-9zm-12 15a1 1 0 0 1 1-1v2a1 1 0 0 1 -1-1zm3 4v-6.133c2.052-.513 3.784-2.573 4.553-5.456a17.324 17.324 0 0 0 8.894 0c.769 2.883 2.5 4.943 4.553 5.456v6.133a8.956 8.956 0 0 1 -2.266 5.951 4.84 4.84 0 0 0 .1-.951c0-3.309-3.065-6-6.833-6s-6.833 2.691-6.833 6a4.84 4.84 0 0 0 .1.951 8.956 8.956 0 0 1 -2.268-5.951zm9 11a10.966 10.966 0 0 0 3-.426v2.012l-3 3-3-3v-2.012a10.966 10.966 0 0 0 3 .426zm-4.279 3.135 2.428 2.428-3.2 1.067-.128-3.212z"/><path d="m60 43v16a1 1 0 0 1 -1 1h-24a1 1 0 0 1 -1-1v-16a1 1 0 0 1 1-1h15v-2h-15a3 3 0 0 0 -3 3v16a3 3 0 0 0 3 3h24a3 3 0 0 0 3-3v-16z"/><path d="m42 51a3 3 0 1 0 -3 3 3 3 0 0 0 3-3zm-3 1a1 1 0 1 1 1-1 1 1 0 0 1 -1 1z"/><path d="m37 44h4v2h-4z"/><path d="m37 56h4v2h-4z"/><path d="m53.105 55.447a1 1 0 0 0 .895.553v2h2v-2a1 1 0 0 0 .9-.553l1-2a1 1 0 0 0 .1-.447v-15a1 1 0 0 0 -1-1h-4a1 1 0 0 0 -1 1v15a1 1 0 0 0 .1.447zm2.277-1.447h-.764l-.618-1.236v-9.764h2v9.764zm.618-15v2h-2v-2z"/></g></g></svg>