<svg xmlns="http://www.w3.org/2000/svg" viewBox="0 0 400 300"><g id="_017" data-name="017"><path d="M213.93,95.91h34.39a17.22,17.22,0,0,1,17.22,17.22v65.94a0,0,0,0,1,0,0H196.71a0,0,0,0,1,0,0V113.13A17.22,17.22,0,0,1,213.93,95.91Z" fill="#fff"/><path d="M265.53,179.53H196.71a.47.47,0,0,1-.46-.46V113.13a17.7,17.7,0,0,1,17.68-17.68h34.38A17.7,17.7,0,0,1,266,113.13v65.94A.47.47,0,0,1,265.53,179.53Zm-68.36-.93h67.9V113.13a16.78,16.78,0,0,0-16.76-16.76H213.93a16.78,16.78,0,0,0-16.76,16.76Z" fill="#d1d3d4"/><path d="M204.37,95.91h34.39A17.22,17.22,0,0,1,256,113.13v65.94a0,0,0,0,1,0,0H187.15a0,0,0,0,1,0,0V113.13A17.22,17.22,0,0,1,204.37,95.91Z" fill="#fff"/><path d="M256,179.53H187.15a.47.47,0,0,1-.46-.46V113.13a17.7,17.7,0,0,1,17.68-17.68h34.39a17.7,17.7,0,0,1,17.67,17.68v65.94A.46.46,0,0,1,256,179.53Zm-68.35-.93h67.89V113.13a16.78,16.78,0,0,0-16.75-16.76H204.37a16.77,16.77,0,0,0-16.75,16.76Z" fill="#d1d3d4"/><path d="M220,80a.46.46,0,1,1,0-.92c1.7,0,3.42-1,5.11-3,7.35-8.75,3.87-22.42-3.84-29.21-6.62-5.82-16-6.82-22.89-2.44s-9,10.16-6.76,18.7a.46.46,0,0,1-.33.56.46.46,0,0,1-.56-.33c-2.32-9-.11-15.06,7.15-19.7s17.07-3.56,24,2.53c8,7.07,11.63,21.32,3.94,30.48C224,78.81,222,80,220.05,80Z" fill="#231f20"/><path d="M205.34,87.2s-21.41-.51-26.79,8.33-22,60.41-22,60.41l74.16.09s3.79-32.68.95-46.16C228.38,94.12,230.77,83.7,205.34,87.2Z" fill="#0086ff"/><path d="M193.46,88.08s-1.92,10.53-1.43,14.33c.67,5.16.38,13.38,11.66,13,8.86-.3,18.59-27.48,18.59-27.48S206.08,85.21,193.46,88.08Z" fill="#231f20"/><path d="M202.94,115.86c-9.91,0-10.64-6.85-11.18-11.89,0-.52-.11-1-.17-1.5C191.1,98.64,193,88.43,193,88a.41.41,0,0,1,.34-.35c12.55-2.86,28.82-.18,29-.15a.45.45,0,0,1,.31.21.4.4,0,0,1,0,.37c-.4,1.12-9.93,27.46-19,27.77Zm-9.09-27.42c-.31,1.71-1.82,10.57-1.38,13.92.06.48.11,1,.17,1.52.54,5.09,1.22,11.44,11,11.09,7.82-.26,16.63-23,18-26.69C218.82,87.86,204.92,86,193.85,88.44Z" fill="#231f20"/><path d="M195.39,67.63a6.78,6.78,0,0,0-1.34-2.46,2.28,2.28,0,0,0-2.56-.6,2.2,2.2,0,0,0-1.08,1.74,4.83,4.83,0,0,0,.35,2.08,8.43,8.43,0,0,0,2,3.34,4.83,4.83,0,0,0,3.57,1.4" fill="#fff"/><path d="M196.09,73.54A5.29,5.29,0,0,1,192.52,72a8.68,8.68,0,0,1-2.14-3.5,5.3,5.3,0,0,1-.36-2.26,2.58,2.58,0,0,1,1.29-2.05,2.7,2.7,0,0,1,3,.68,7,7,0,0,1,1.42,2.6.41.41,0,0,1-.23.52.41.41,0,0,1-.52-.24,6.43,6.43,0,0,0-1.24-2.32,1.91,1.91,0,0,0-2.1-.53,1.8,1.8,0,0,0-.86,1.43,4.55,4.55,0,0,0,.33,1.91,7.81,7.81,0,0,0,1.93,3.18,4.39,4.39,0,0,0,3.27,1.29.39.39,0,0,1,.42.37.39.39,0,0,1-.37.42Z" fill="#231f20"/><path d="M200.36,80.19l-1.12,11.16s.54,6.35,7.52,5.09a14.12,14.12,0,0,0,9.77-7.16l1.05-19.42c0-.82-3-4.23-2.16-11.31a17.31,17.31,0,0,1-12.14-6.91s-3.24,4-4.6,5.23A16.71,16.71,0,0,0,195.81,60c-2.15,3.25-2.07,8.56-1.55,12.28C194.69,75.37,196.48,80.26,200.36,80.19Z" fill="#fff"/><path d="M205,97.06a6.09,6.09,0,0,1-3.81-1.18,6.86,6.86,0,0,1-2.42-4.49l1.07-10.76c-3.88-.33-5.62-5.3-6-8.29-.36-2.51-.91-8.76,1.62-12.59a17.5,17.5,0,0,1,2.94-3.22c1.32-1.19,4.52-5.14,4.55-5.18a.49.49,0,0,1,.38-.16.43.43,0,0,1,.36.2,17,17,0,0,0,11.81,6.7.48.48,0,0,1,.3.17.47.47,0,0,1,.1.34,16.89,16.89,0,0,0,1.71,10,3.39,3.39,0,0,1,.46,1.31c0,.09-1,19.41-1,19.41a.47.47,0,0,1,0,.17,14.46,14.46,0,0,1-10.11,7.42A10.84,10.84,0,0,1,205,97.06Zm-5.32-5.66a5.33,5.33,0,0,0,7,4.59,13.71,13.71,0,0,0,9.41-6.83c1-19.32,1-19.32,1-19.33a5.77,5.77,0,0,0-.37-.85,17.7,17.7,0,0,1-1.83-10,17.79,17.79,0,0,1-11.66-6.56A64,64,0,0,1,199,57.21a16.58,16.58,0,0,0-2.8,3c-2.35,3.57-1.82,9.55-1.48,12,.4,2.83,2,7.62,5.64,7.52a.42.42,0,0,1,.34.15.44.44,0,0,1,.12.35L199.69,91.4Z" fill="#231f20"/><path d="M199.9,83.58a8.28,8.28,0,0,0,5.52-.28c4-1.4,4.21-4.11,4.21-4.11s-3.35,2.1-9.27,1Z" fill="#231f20"/><path d="M202.07,84.35a7.22,7.22,0,0,1-2.22-.33.43.43,0,0,1-.23-.1.43.43,0,0,1-.14-.46l.44-3.33a.42.42,0,0,1,.18-.3.45.45,0,0,1,.34-.08c5.68,1.06,8.92-.92,8.95-.94a.45.45,0,0,1,.46,0,.42.42,0,0,1,.21.41c0,.13-.29,3-4.49,4.49A10.69,10.69,0,0,1,202.07,84.35Zm-1.68-1.09a8.46,8.46,0,0,0,4.88-.38A5.94,5.94,0,0,0,208.91,80a15.1,15.1,0,0,1-8.18.68Z" fill="#231f20"/><path d="M206.41,61.3s-4.09,5-3.33,6,3.22.62,3.22.62" fill="#fff"/><path d="M205.24,68.48a3.15,3.15,0,0,1-2.51-.87c-.85-1.12,1.73-4.61,3.34-6.59a.43.43,0,0,1,.62-.06.44.44,0,0,1,.07.62c-2,2.44-3.54,5-3.32,5.5.49.64,2.22.53,2.79.44a.45.45,0,1,1,.14.88A7.42,7.42,0,0,1,205.24,68.48Z" fill="#231f20"/><ellipse cx="201.71" cy="62.4" rx="1.16" ry="0.62" transform="translate(113.12 254.06) rotate(-82.38)" fill="#231f20"/><ellipse cx="211.34" cy="63.19" rx="1.16" ry="0.62" transform="translate(145.69 273.78) rotate(-89.33)" fill="#231f20"/><path d="M215.21,65.59a7.78,7.78,0,0,1,1.25-2.65,3.56,3.56,0,0,1,2.9-1.48,2.32,2.32,0,0,1,1.77.95,3.13,3.13,0,0,1,.44,1.33c.37,2.49-.46,5.72-2.79,7a2.51,2.51,0,0,1-2.64,0" fill="#fff"/><path d="M217.3,71.54a2.21,2.21,0,0,1-1.4-.45.4.4,0,0,1,.48-.63,2.12,2.12,0,0,0,2.2-.06c2.17-1.19,2.95-4.22,2.6-6.6a2.78,2.78,0,0,0-.38-1.16,2,2,0,0,0-1.47-.78,3.12,3.12,0,0,0-2.56,1.32,7.47,7.47,0,0,0-1.18,2.53.41.41,0,0,1-.5.27.41.41,0,0,1-.27-.5,8.31,8.31,0,0,1,1.33-2.79,3.94,3.94,0,0,1,3.23-1.62,2.69,2.69,0,0,1,2.07,1.12,3.55,3.55,0,0,1,.52,1.5c.39,2.64-.52,6-3,7.4A3.49,3.49,0,0,1,217.3,71.54Z" fill="#231f20"/><path d="M200.26,70.27l10.75.29s-1.43,5.74-6,5.45S200.26,70.27,200.26,70.27Z" fill="#fff"/><path d="M205.32,76.46H205c-4.93-.31-5.14-6.11-5.14-6.16A.41.41,0,0,1,200,70a.46.46,0,0,1,.32-.13l10.75.29a.44.44,0,0,1,.34.17.47.47,0,0,1,.08.38C211.43,70.73,209.94,76.46,205.32,76.46Zm-4.58-5.73c.15,1.26.86,4.62,4.28,4.84s4.93-3.22,5.4-4.58Z" fill="#231f20"/><path d="M109.29,116.46H158a2.86,2.86,0,0,1,2.76,2.11l9,32.87h31.64a2,2,0,1,1,0,4h-83a2.86,2.86,0,0,1-2.76-2.11l-9.14-33.27A2.86,2.86,0,0,1,109.29,116.46Z" fill="#231f20"/><path d="M201.45,155.9h-83a3.32,3.32,0,0,1-3.19-2.43l-9.13-33.27a3.31,3.31,0,0,1,3.18-4.18H158a3.31,3.31,0,0,1,3.18,2.43L170.15,151h31.3a2.45,2.45,0,1,1,0,4.9Zm-92.16-39A2.43,2.43,0,0,0,107,120l9.13,33.28a2.43,2.43,0,0,0,2.34,1.78h83a1.57,1.57,0,1,0,0-3.14H169.81a.44.44,0,0,1-.42-.32l-9-32.88A2.41,2.41,0,0,0,158,116.9Z" fill="#231f20"/><path d="M168.43,151.56H119.69a.5.5,0,0,1,0-1h48.74a.5.5,0,0,1,0,1Z" fill="#fff"/><path d="M175.3,152.05h-.08a.52.52,0,0,1-.43-.59c.3-1.83,7.19-44.86,7.48-46a.52.52,0,0,1,1,.25c-.22.89-5,30.43-7.46,45.93A.52.52,0,0,1,175.3,152.05Z" fill="#231f20"/><path d="M226.72,90.56s19.6,28.39,21.6,28.67,18.16-21.5,18.16-21.5l11.28,10.89s-19.3,40.91-27.91,38.9-26.28-27-26.28-27Z" fill="#0086ff"/><path d="M229.94,62.84s2.67-4.92-.91-11.94-9.7-11-11.85-10.9a21.42,21.42,0,0,0-4.74,1S226.92,43.63,229.94,62.84Z" fill="#231f20"/><path d="M229.94,63.28h-.08a.44.44,0,0,1-.36-.37c-1.53-9.75-6.1-15.06-9.67-17.79a19.64,19.64,0,0,0-7.46-3.64.42.42,0,0,1-.36-.39.45.45,0,0,1,.29-.46,22.52,22.52,0,0,1,4.85-1.07h.14c2.63,0,8.65,4.32,12.13,11.14,3.65,7.15,1,12.14.9,12.35A.42.42,0,0,1,229.94,63.28ZM214,41c3.7,1.25,13.2,5.79,16.07,20.1a14.15,14.15,0,0,0-1.44-10c-3.44-6.75-9.44-10.76-11.43-10.66A17.84,17.84,0,0,0,214,41Z" fill="#231f20"/><path d="M232,60.32a.45.45,0,0,1-.42-.3.46.46,0,0,1,.26-.59A7.66,7.66,0,0,0,236,55.15a14.75,14.75,0,0,0,1-6.2,14.2,14.2,0,0,0-1.86-7.36,12.72,12.72,0,0,0-8.71-5.33,8.47,8.47,0,0,0-4.41.17,4.06,4.06,0,0,0-2.72,3,.46.46,0,1,1-.9-.15,5,5,0,0,1,3.3-3.68,9.42,9.42,0,0,1,4.89-.22,13.59,13.59,0,0,1,9.32,5.74,15.06,15.06,0,0,1,2,7.82,15.83,15.83,0,0,1-1,6.58,8.57,8.57,0,0,1-4.7,4.79A.41.41,0,0,1,232,60.32Z" fill="#231f20"/><polygon points="211.65 121.69 223.9 121.81 224.29 117.37 212.53 117.23 211.65 121.69" fill="#fff"/><path d="M247.94,146.8l-.17,0C237.1,143,227,124.38,226.56,123.59a.52.52,0,0,1,.91-.49c.1.19,10.35,19.08,20.64,22.7a.51.51,0,0,1,.32.65A.52.52,0,0,1,247.94,146.8Z" fill="#231f20"/><rect x="269.44" y="156.34" width="65.03" height="49.59" rx="9.58" fill="#fff"/><path d="M324.89,206.44H279a10.11,10.11,0,0,1-10.1-10.1V165.92a10.11,10.11,0,0,1,10.1-10.1h45.87a10.11,10.11,0,0,1,10.1,10.1v30.42A10.11,10.11,0,0,1,324.89,206.44ZM279,156.85a9.08,9.08,0,0,0-9.07,9.07v30.42a9.08,9.08,0,0,0,9.07,9.07h45.87a9.08,9.08,0,0,0,9.07-9.07V165.92a9.08,9.08,0,0,0-9.07-9.07Z" fill="#231f20"/><rect x="65.53" y="156.34" width="227.88" height="49.59" rx="7.61" transform="translate(358.94 362.26) rotate(-180)" fill="#fff"/><path d="M285.8,206.44H73.14A8.14,8.14,0,0,1,65,198.31V164a8.14,8.14,0,0,1,8.13-8.13H285.8a8.14,8.14,0,0,1,8.13,8.13v34.36A8.14,8.14,0,0,1,285.8,206.44ZM73.14,156.85A7.11,7.11,0,0,0,66,164v34.36a7.11,7.11,0,0,0,7.1,7.1H285.8a7.11,7.11,0,0,0,7.09-7.1V164a7.11,7.11,0,0,0-7.09-7.1Z" fill="#231f20"/><rect x="74.7" y="205.92" width="250.19" height="54.29" transform="translate(399.6 466.13) rotate(-180)" fill="#fff"/><path d="M324.89,260.73H74.7a.51.51,0,0,1-.51-.52V205.92a.51.51,0,0,1,.51-.51H324.89a.51.51,0,0,1,.52.51v54.29A.52.52,0,0,1,324.89,260.73Zm-249.67-1H324.38V206.44H75.22Z" fill="#231f20"/><line x1="285.8" y1="205.92" x2="285.8" y2="259.83" fill="#fff"/><path d="M285.8,260.34a.51.51,0,0,1-.52-.51V205.92a.52.52,0,0,1,1,0v53.91A.51.51,0,0,1,285.8,260.34Z" fill="#231f20"/><path d="M299.44,230.88a32.16,32.16,0,0,1,8.28-5.4c.25,8.86-3.34,17-6.67,22.59H290.24" fill="#fff"/><path d="M301.05,248.59H290.24a.52.52,0,0,1,0-1h10.52c3-5.14,6.48-12.86,6.46-21.29a33.91,33.91,0,0,0-7.44,5,.52.52,0,1,1-.69-.77,32.61,32.61,0,0,1,8.44-5.5.52.52,0,0,1,.47,0,.53.53,0,0,1,.24.42c.26,9.12-3.53,17.47-6.74,22.88A.55.55,0,0,1,301.05,248.59Z" fill="#231f20"/><path d="M284,233.26c2.65-13.85,13.51-22.57,13.51-22.57a50.38,50.38,0,0,1,2,20.19,75,75,0,0,1-3.74,17.19H284.07" fill="#fff"/><path d="M295.7,248.59H284.07a.52.52,0,1,1,0-1h11.26a73.86,73.86,0,0,0,3.59-16.72,49.94,49.94,0,0,0-1.71-19.24c-2.27,2-10.52,10.09-12.76,21.76a.52.52,0,0,1-.6.41.51.51,0,0,1-.41-.6c2.66-13.89,13.59-22.79,13.7-22.88a.53.53,0,0,1,.47-.09.51.51,0,0,1,.34.33,50.66,50.66,0,0,1,2,20.4,74.84,74.84,0,0,1-3.77,17.31A.5.5,0,0,1,295.7,248.59Z" fill="#231f20"/><path d="M278.2,248.07h10.3c.1-3-.59-7.66-3.9-13.65-.23-.4-.44-.78-.66-1.15-6-10.1-11.42-10-11.42-10C270.22,233.91,275.09,243.38,278.2,248.07Z" fill="#fff"/><path d="M288.5,248.59H278.2a.54.54,0,0,1-.43-.23c-3.15-4.76-8.1-14.37-5.75-25.19a.5.5,0,0,1,.49-.4c.26,0,5.83,0,11.88,10.23l.66,1.17c3.45,6.25,4.06,11,4,13.92A.51.51,0,0,1,288.5,248.59Zm-10-1H288c0-2.81-.7-7.2-3.84-12.89l-.65-1.15c-4.79-8.1-9.23-9.45-10.57-9.68C270.93,233.94,275.46,242.93,278.48,247.56Z" fill="#231f20"/><polygon points="280.08 264.4 300.27 264.4 303.52 248.08 276.82 248.08 280.08 264.4" fill="#231f20"/><path d="M268.2,98.4s6.08-15.35,7.15-14.94-.8,8.33-.8,8.33,7.61-8.29,8.6-7.75.36,2.59-2.5,6.8c0,0,5.05-5.84,5.86-4.63s-4.17,6.45-4.17,6.45,4.77-5,5.45-4-4.51,6.25-4.51,6.25,4.84-5.65,5.18-3.9-9.27,13.12-12,16.25" fill="#fff"/><path d="M276.44,107.73a.54.54,0,0,1-.34-.12.51.51,0,0,1,0-.71c4.94-5.61,11.71-14.13,11.9-15.72a8.91,8.91,0,0,0-2.15,1.72c-.69.79-1.44,1.59-2.17,2.33a.5.5,0,0,1-.69,0,.51.51,0,0,1-.05-.7c.59-.68,1.35-1.53,2.14-2.3A13.4,13.4,0,0,0,287.32,89,21,21,0,0,0,282.74,93l0,0a.51.51,0,0,1-.71,0,.5.5,0,0,1,0-.71h0l0,0c2.32-2.46,4.18-5.07,4.1-5.74-.69.1-2.95,2.15-5.09,4.62a.5.5,0,0,1-.68.06.49.49,0,0,1-.11-.67c2.73-4,2.95-5.4,2.83-5.87a.34.34,0,0,0-.08-.16c-.94.29-4.86,4.11-8.06,7.6a.53.53,0,0,1-.61.1.51.51,0,0,1-.25-.56,34.05,34.05,0,0,0,1.12-7.46c-1.12,1.52-4.06,8.17-6.51,14.37a.5.5,0,0,1-.93-.37C274,82.42,275,82.8,275.53,83c.34.12,1.32.49-.09,7.1,6.73-7.16,7.64-6.66,7.95-6.49a1.33,1.33,0,0,1,.65.86c.11.46.1,1.22-.69,2.85,1.1-1,2.21-1.81,2.89-1.76a.88.88,0,0,1,.69.38c.36.54.06,1.46-.55,2.5a2.24,2.24,0,0,1,1.21-.43.79.79,0,0,1,.61.35c.26.4.08,1.05-.37,1.85a1,1,0,0,1,.51,0,.84.84,0,0,1,.61.71c.45,2.35-12,16.53-12.14,16.67A.51.51,0,0,1,276.44,107.73Z" fill="#231f20"/><path d="M274.55,91.79A3.7,3.7,0,0,1,276,96.31" fill="#fff"/><path d="M276,96.81l-.17,0a.5.5,0,0,1-.3-.64,3.2,3.2,0,0,0-1.22-3.93.51.51,0,0,1-.17-.69.5.5,0,0,1,.68-.17,4.19,4.19,0,0,1,1.65,5.12A.48.48,0,0,1,276,96.81Z" fill="#231f20"/><rect x="90.88" y="142.51" width="5.6" height="3.44" rx="0.88" fill="#fff"/><path d="M95.6,146.4H91.76a1.34,1.34,0,0,1-1.34-1.34v-1.67a1.34,1.34,0,0,1,1.34-1.34H95.6a1.34,1.34,0,0,1,1.34,1.34v1.67A1.34,1.34,0,0,1,95.6,146.4ZM91.76,143a.42.42,0,0,0-.42.43v1.67a.42.42,0,0,0,.42.43H95.6a.42.42,0,0,0,.42-.43v-1.67a.42.42,0,0,0-.42-.43Z" fill="#231f20"/><path d="M81.73,156.17a12,12,0,0,1,23.9,0Z" fill="#fff"/><path d="M105.63,156.63H81.73a.45.45,0,0,1-.45-.46,12.4,12.4,0,1,1,24.8,0A.45.45,0,0,1,105.63,156.63Zm-23.43-.91h23a11.49,11.49,0,0,0-23,0Z" fill="#231f20"/><rect x="80.09" y="152.23" width="27.18" height="4.09" rx="1.64" fill="#fff"/><path d="M105.63,156.77H81.73a2.1,2.1,0,0,1-2.1-2.09v-.82a2.1,2.1,0,0,1,2.1-2.09h23.9a2.1,2.1,0,0,1,2.1,2.09v.82A2.1,2.1,0,0,1,105.63,156.77Zm-23.9-4.09a1.18,1.18,0,0,0-1.18,1.18v.82a1.18,1.18,0,0,0,1.18,1.18h23.9a1.18,1.18,0,0,0,1.18-1.18v-.82a1.18,1.18,0,0,0-1.18-1.18Z" fill="#231f20"/><rect x="102.49" y="52.87" width="48.35" height="34.54" fill="#fff"/><path d="M150.84,87.87H102.49a.46.46,0,0,1-.46-.47V52.87a.46.46,0,0,1,.46-.47h48.35a.47.47,0,0,1,.46.47V87.4A.47.47,0,0,1,150.84,87.87ZM103,86.94h47.43V53.33H103Z" fill="#d1d3d4"/><path d="M144.51,63.11H108.82a.45.45,0,0,1-.46-.46.46.46,0,0,1,.46-.46h35.69a.47.47,0,0,1,.46.46A.46.46,0,0,1,144.51,63.11Z" fill="#d1d3d4"/><path d="M144.51,70.6H108.82a.47.47,0,0,1,0-.93h35.69a.47.47,0,0,1,0,.93Z" fill="#d1d3d4"/><path d="M144.51,78.08H108.82a.46.46,0,0,1-.46-.46.45.45,0,0,1,.46-.46h35.69a.46.46,0,0,1,.46.46A.47.47,0,0,1,144.51,78.08Z" fill="#d1d3d4"/><path d="M126.09,55a.46.46,0,0,1-.46-.46V49.7a.46.46,0,0,1,.46-.46.47.47,0,0,1,.46.46v4.8A.47.47,0,0,1,126.09,55Z" fill="#d1d3d4"/></g></svg>