<svg xmlns="http://www.w3.org/2000/svg" viewBox="0 0 400 300"><g id="_241_reminder_note_flatline" data-name="#241_reminder_note_flatline"><rect x="152.76" y="67.73" width="154.74" height="149.52" transform="translate(460.26 284.97) rotate(-180)" fill="#fff"/><path d="M307.5,217.75H152.76a.5.5,0,0,1-.5-.5V67.73a.5.5,0,0,1,.5-.5H307.5a.5.5,0,0,1,.5.5V217.25A.5.5,0,0,1,307.5,217.75Zm-154.24-1H307V68.23H153.26Z" fill="#231f20"/><path d="M293.4,97.22H168.06a.5.5,0,0,1-.5-.5.5.5,0,0,1,.5-.5H293.4a.5.5,0,0,1,.5.5A.5.5,0,0,1,293.4,97.22Z" fill="#d1d3d4"/><path d="M223.6,129.44H168.06a.5.5,0,0,1-.5-.5.5.5,0,0,1,.5-.5H223.6a.5.5,0,0,1,.5.5A.5.5,0,0,1,223.6,129.44Z" fill="#d1d3d4"/><path d="M232.56,75l-.91,5.82s-2.42,1.58-4.38-.16l-.67-6.22Z" fill="#fff"/><path d="M229.42,82a3.62,3.62,0,0,1-2.48-.94.49.49,0,0,1-.16-.32l-.68-6.22a.49.49,0,0,1,.14-.4.47.47,0,0,1,.4-.15l6,.56a.55.55,0,0,1,.35.2.5.5,0,0,1,.1.38l-.91,5.81a.54.54,0,0,1-.22.34A4.79,4.79,0,0,1,229.42,82Zm-1.67-1.57a3.16,3.16,0,0,0,3.45.1l.79-5L227.16,75Z" fill="#231f20"/><ellipse cx="230.13" cy="67.73" rx="15.14" ry="9.25" fill="#fff"/><path d="M230.13,77.48c-8.62,0-15.64-4.38-15.64-9.75s7-9.75,15.64-9.75,15.64,4.37,15.64,9.75S238.75,77.48,230.13,77.48Zm0-18.5c-8.07,0-14.64,3.92-14.64,8.75s6.57,8.75,14.64,8.75,14.64-3.93,14.64-8.75S238.2,59,230.13,59Z" fill="#231f20"/><path d="M237.18,55.49c0,.2-.42,10.36-.42,10.36s-2.29,2.92-7.44,2.36-5.77-3.4-5.77-3.4l-.35-12.25Z" fill="#231f20"/><path d="M230.61,68.79a12.64,12.64,0,0,1-1.34-.08c-5.45-.59-6.18-3.67-6.21-3.8l-.36-12.33a.49.49,0,0,1,.18-.4.46.46,0,0,1,.42-.1l14,2.92a.49.49,0,0,1,.4.49c0,.21-.38,9.34-.42,10.38a.46.46,0,0,1-.11.29A8.37,8.37,0,0,1,230.61,68.79Zm-6.89-15.61.33,11.61s.65,2.42,5.32,2.93c4.27.46,6.42-1.55,6.9-2.07.12-3,.34-8.26.4-9.76Z" fill="#231f20"/><ellipse cx="230.64" cy="52.8" rx="6.68" ry="10.62" transform="translate(158.74 278.21) rotate(-85.2)" fill="#fff"/><path d="M231.51,60q-.73,0-1.47-.06c-6.11-.51-10.81-4.14-10.48-8.08h0c.33-3.95,5.57-6.74,11.68-6.23a14.84,14.84,0,0,1,7.58,2.68c2,1.53,3.06,3.45,2.9,5.41s-1.5,3.67-3.76,4.84A14.18,14.18,0,0,1,231.51,60ZM220.56,52c-.29,3.39,4,6.53,9.56,7a13.83,13.83,0,0,0,7.38-1.26c1.94-1,3.09-2.45,3.22-4s-.75-3.2-2.5-4.52a13.78,13.78,0,0,0-7.06-2.48c-5.56-.46-10.32,1.92-10.6,5.31Z" fill="#231f20"/><polygon points="197.49 104.44 220 122.26 220.61 123.32 223.6 128.51 217.86 126.79 216.69 126.44 194.18 108.61 197.49 104.44" fill="#fff"/><path d="M223.6,129a.36.36,0,0,1-.14,0l-6.91-2.07a.56.56,0,0,1-.17-.09L193.87,109a.5.5,0,0,1-.08-.7l3.31-4.17a.5.5,0,0,1,.7-.09l22.51,17.83a.53.53,0,0,1,.12.14l3.61,6.25a.52.52,0,0,1,0,.56A.53.53,0,0,1,223.6,129Zm-6.67-3,5.61,1.68-2.93-5.08-22-17.45-2.68,3.39Z" fill="#231f20"/><path d="M194.19,99.29h3.91a1.32,1.32,0,0,1,1.32,1.32v13.64a0,0,0,0,1,0,0h-6.55a0,0,0,0,1,0,0V100.61A1.32,1.32,0,0,1,194.19,99.29Z" transform="translate(-9.33 194.26) rotate(-51.62)" fill="#231f20"/><path d="M200,114.48a.5.5,0,0,1-.31-.1L189,105.91a1.76,1.76,0,0,1-.68-1.22,1.79,1.79,0,0,1,.38-1.34l2.42-3.07a1.84,1.84,0,0,1,1.22-.68,1.8,1.8,0,0,1,1.34.39l10.7,8.47a.48.48,0,0,1,.18.33.5.5,0,0,1-.1.37l-4.07,5.13A.48.48,0,0,1,200,114.48Zm-7.45-13.89h-.09a.78.78,0,0,0-.55.3L189.46,104h0a.82.82,0,0,0,.14,1.15l10.3,8.16,3.44-4.35L193,100.77A.78.78,0,0,0,192.53,100.59Zm-3.46,3.07h0Z" fill="#231f20"/><path d="M197.08,115.66a.51.51,0,0,1-.31-.11c-.23-.18-5.59-4.38-6.3-5s-1.48-3.92-1.69-4.89a.52.52,0,0,1,1-.21,15.55,15.55,0,0,0,1.39,4.35c.54.5,4.3,3.47,6.22,5a.5.5,0,0,1,.09.72A.51.51,0,0,1,197.08,115.66Z" fill="#231f20"/><path d="M150.88,186.57s16.43,8.64,26.17,7.12c10-1.57,26.87-40.09,32.56-48.69,5.22-7.88,9-15.93,7.36-25.67a8.85,8.85,0,0,0-3.67-6.11c-1-.6-2.13-1.07-2.48-2.12-.13-.39-.13-.81-.28-1.18a2,2,0,0,0-2.28-1,5,5,0,0,0-2.23,1.43c-2.69,2.59-6.18,6.75-7.53,10.26a19.48,19.48,0,0,0-.93,4.08c-.73,4.74-.77,9.41-3.51,13.37s-22.16,25.62-22.16,25.62l-10.18-4.8" fill="#fff"/><path d="M174.54,194.37c-9.78,0-23.27-7-23.89-7.35a.5.5,0,0,1,.46-.89c.17.09,16.4,8.55,25.86,7.07,7.14-1.12,18.29-22.44,25.66-36.54,2.71-5.17,5-9.64,6.57-11.94,4.76-7.2,9-15.24,7.28-25.3a8.31,8.31,0,0,0-3.45-5.78l-.57-.34a4.08,4.08,0,0,1-2.12-2,5.82,5.82,0,0,1-.14-.6,2.54,2.54,0,0,0-.12-.54,1.51,1.51,0,0,0-1.71-.66,4.53,4.53,0,0,0-2,1.3c-2.58,2.5-6.07,6.63-7.4,10.08a19.16,19.16,0,0,0-.91,4c-.14.92-.25,1.84-.37,2.75-.48,3.88-.94,7.53-3.22,10.82-2.7,3.91-21.41,24.79-22.2,25.67a.51.51,0,0,1-.59.12l-10.17-4.8a.5.5,0,1,1,.42-.9l9.84,4.64c2.28-2.55,19.38-21.68,21.88-25.3,2.13-3.08,2.58-6.62,3-10.37.11-.92.23-1.85.37-2.78a20.89,20.89,0,0,1,1-4.2c1.39-3.59,5-7.86,7.65-10.43a5.5,5.5,0,0,1,2.47-1.56,2.45,2.45,0,0,1,2.85,1.26,3.18,3.18,0,0,1,.19.75,3.78,3.78,0,0,0,.1.46c.22.66.92,1.07,1.67,1.5.2.12.41.23.6.36a9.26,9.26,0,0,1,3.91,6.45c1.72,10.43-2.79,19-7.44,26-1.49,2.26-3.82,6.71-6.51,11.85-7.92,15.14-18.75,35.87-26.4,37.06A16.48,16.48,0,0,1,174.54,194.37Z" fill="#231f20"/><path d="M102.5,118.45C96,116.51,92.61,109,90.91,103c-1.93-6.84-4.2-12.42-1.46-19.54.64-1.63,1.64-3.34,3.33-3.81A3.33,3.33,0,0,0,94,79.2a2.44,2.44,0,0,0,.63-1c3.93-9.25,15-9.51,23.35-8.2,4.83.76,11.09,3,12.58,7.92,2.76,9.13.43,19.06-4.63,26.95C121.12,112.27,112.16,121.36,102.5,118.45Z" fill="#fff"/><path d="M106.18,119.5a13.08,13.08,0,0,1-3.83-.57c-6.72-2-10.19-9.73-11.92-15.84-.22-.78-.45-1.54-.67-2.3C88,94.84,86.49,89.7,89,83.24c.89-2.3,2.12-3.68,3.65-4.11l.33-.08a1.71,1.71,0,0,0,.67-.25,1.92,1.92,0,0,0,.44-.72l0-.1c4-9.49,15.21-9.85,23.89-8.49,3.31.52,11.2,2.37,13,8.26,2.62,8.67.91,18.65-4.69,27.37C121.59,112.46,114.12,119.5,106.18,119.5ZM102.64,118c8.79,2.64,17.55-5.19,22.82-13.4C130.9,96.1,132.57,86.43,130,78c-1.62-5.35-9.06-7.07-12.19-7.56-8.32-1.31-19-1-22.81,7.89a2.82,2.82,0,0,1-.78,1.22,2.62,2.62,0,0,1-1.07.43l-.28.07c-1.21.34-2.22,1.52-3,3.51-2.37,6.14-.9,11.13.8,16.91.22.76.45,1.53.67,2.31,1.66,5.87,5,13.27,11.25,15.16Z" fill="#231f20"/><path d="M74.2,174s-12.73,37.24-9.93,47.79,37.7,1.74,37.7,1.74l-8.76-52.95Z" fill="#fff"/><path d="M77.54,227.5c-6.8,0-12.63-1.31-13.76-5.56-2.8-10.57,9.42-46.54,9.94-48.07a.51.51,0,0,1,.39-.33l19-3.42a.49.49,0,0,1,.37.09.47.47,0,0,1,.21.32l8.77,52.95a.5.5,0,0,1-.37.57C101.21,224.27,88.2,227.5,77.54,227.5Zm-3-53c-1.16,3.44-12.43,37.41-9.83,47.22,2.47,9.33,32.6,2.47,36.65,1.5l-8.61-52Z" fill="#231f20"/><path d="M162,255.11l-7.09-32.25-70.76,19s.14,5.29.34,13.25Z" fill="#231f20"/><path d="M131.82,100s6.92,8.65,5.84,10.68-5.39,1.14-5.39,1.14" fill="#fff"/><path d="M134.29,112.48a12.2,12.2,0,0,1-2.12-.2.5.5,0,1,1,.2-1c1.09.22,4.1.5,4.85-.89.57-1.07-2.56-6.09-5.79-10.13a.51.51,0,0,1,.07-.71.52.52,0,0,1,.71.08c1.19,1.49,7.07,9,5.89,11.23C137.4,112.18,135.69,112.48,134.29,112.48Z" fill="#231f20"/><path d="M129.41,87.91c4.17,2.81,3.65,9.6,4,14q.77,9.19,1.1,18.4c.15,3.89-9.89,4.89-11.77,3.89l3,15.18-21.83-6.18L103,115.4s6.64-.55,9.84-8.81,1.94-20.39,1.94-20.39S125.35,85.16,129.41,87.91Z" fill="#fff"/><path d="M125.72,139.83l-.14,0-21.83-6.18a.49.49,0,0,1-.36-.45l-.94-17.75a.51.51,0,0,1,.45-.53c.26,0,6.38-.64,9.43-8.49,3.12-8,1.92-20,1.9-20.16a.52.52,0,0,1,.11-.36.53.53,0,0,1,.34-.19c.44,0,10.85-1,15,1.8h0c3.67,2.47,3.91,7.73,4.09,12,0,.83.08,1.63.14,2.36.5,6.11.87,12.3,1.1,18.42a3.28,3.28,0,0,1-1.86,2.91c-2.57,1.61-7.45,2.14-9.76,1.72l2.81,14.36a.52.52,0,0,1-.16.47A.51.51,0,0,1,125.72,139.83Zm-21.35-7.06,20.7,5.86-2.81-14.38a.51.51,0,0,1,.73-.54c1.22.65,6.89.31,9.64-1.41a2.39,2.39,0,0,0,1.39-2c-.22-6.1-.59-12.29-1.1-18.37-.06-.75-.1-1.56-.14-2.41-.17-4-.4-9-3.65-11.18s-11.73-1.82-13.85-1.66c.2,2.42.86,12.7-2,20.11-2.82,7.25-8.15,8.76-9.79,9.06Z" fill="#231f20"/><path d="M171.93,159.1s-27.82-15-38.77-23.46C123,127.8,95.79,123,85.58,137.44c0,0-16,29.84-17.73,46.19l12.34,5.52a529.42,529.42,0,0,0,2.92,57.26c24.94,4.38,76.6-15.56,76.16-15.76L154,191.8l4.57,3.53Z" fill="#0086ff"/><path d="M134,115.71s-6,0-7.45-8.11" fill="#fff"/><path d="M134,116.21c-.06,0-6.45-.1-7.94-8.52a.5.5,0,0,1,1-.18c1.35,7.58,6.73,7.7,7,7.7a.5.5,0,0,1,.5.5A.5.5,0,0,1,134,116.21Z" fill="#231f20"/><path d="M120.44,105a8.37,8.37,0,0,0-2.09-4,12.11,12.11,0,0,0-2.47-2.58,4,4,0,0,0-3.39-.7,3.77,3.77,0,0,0-2.23,2.11,7.29,7.29,0,0,0-.49,3.11,13.2,13.2,0,0,0,7.12,11.09l-.37-.33" fill="#fff"/><path d="M116.89,114.44a.59.59,0,0,1-.23,0,13.8,13.8,0,0,1-7.39-11.53,7.48,7.48,0,0,1,.54-3.32,4.18,4.18,0,0,1,2.53-2.39,4.47,4.47,0,0,1,3.82.77,12.3,12.3,0,0,1,2.58,2.68,8.8,8.8,0,0,1,2.2,4.3.5.5,0,1,1-1,.1,8,8,0,0,0-2-3.78,11.59,11.59,0,0,0-2.36-2.48,3.56,3.56,0,0,0-3-.64,3.28,3.28,0,0,0-1.92,1.85,6.51,6.51,0,0,0-.45,2.88,12.79,12.79,0,0,0,6.15,10.29.52.52,0,0,1,.43.11l.37.34a.49.49,0,0,1,.08.65A.5.5,0,0,1,116.89,114.44Z" fill="#231f20"/><path d="M122.75,124.15s-5.35-1.14-8.1-4.49c0,0,1,8.11,9.19,10.08Z" fill="#231f20"/><path d="M123.84,130.24l-.11,0c-8.47-2-9.56-10.42-9.57-10.5a.5.5,0,0,1,.88-.38c2.6,3.17,7.77,4.31,7.82,4.32a.49.49,0,0,1,.38.4l1.09,5.58a.49.49,0,0,1-.14.46A.5.5,0,0,1,123.84,130.24Zm-8.31-9A11.38,11.38,0,0,0,123.2,129l-.88-4.48A18,18,0,0,1,115.53,121.25Z" fill="#231f20"/><path d="M158.55,195.83a.46.46,0,0,1-.29-.1c-.21-.15-21.08-15.41-29.29-23.86a.5.5,0,1,1,.72-.7c8.15,8.39,28.95,23.6,29.16,23.75a.51.51,0,0,1,.11.7A.49.49,0,0,1,158.55,195.83Z" fill="#231f20"/><ellipse cx="127.95" cy="96.05" rx="2.2" ry="0.86" transform="matrix(0.08, -1, 1, 0.08, 22.33, 216.22)" fill="#231f20"/><path d="M79.23,184.08h0a.5.5,0,0,1-.49-.52c0-1.21,1-29.73,4.87-39.7a.5.5,0,0,1,.93.37c-3.84,9.8-4.79,39.07-4.8,39.36A.51.51,0,0,1,79.23,184.08Z" fill="#231f20"/><path d="M309.35,169.06H246.12l-10.6-13.48-.11,13.67a11.08,11.08,0,0,0-9.08,10.9v47.62a11.09,11.09,0,0,0,11.09,11.1h71.93a11.1,11.1,0,0,0,11.1-11.1V180.15A11.1,11.1,0,0,0,309.35,169.06Z" fill="#fff"/><path d="M309.35,239.37H237.42a11.61,11.61,0,0,1-11.59-11.6V180.15a11.57,11.57,0,0,1,9.09-11.31l.1-13.27a.5.5,0,0,1,.89-.3l10.46,13.29h63A11.61,11.61,0,0,1,321,180.15v47.62A11.61,11.61,0,0,1,309.35,239.37ZM236,157l-.1,12.24a.49.49,0,0,1-.41.49,10.58,10.58,0,0,0-8.67,10.41v47.62a10.6,10.6,0,0,0,10.59,10.6h71.93a10.61,10.61,0,0,0,10.6-10.6V180.15a10.6,10.6,0,0,0-10.6-10.59H246.12a.51.51,0,0,1-.39-.19Z" fill="#231f20"/><path d="M296.15,220.1H250.63l.5-.4c.44-.37.87-.75,1.33-1.09a13.91,13.91,0,0,0,5.61-10.43c.27-3,.32-5.92.5-8.88a18.19,18.19,0,0,1,1.84-7.3c2.07-4.07,5.5-6.24,9.91-7l.16,0c.56-2.09,1.51-2.92,3.17-2.81a2.82,2.82,0,0,1,2.66,2.75c.93.25,1.87.44,2.78.75,4.67,1.62,7.35,5,8.55,9.69a27,27,0,0,1,.7,6.76,38.79,38.79,0,0,0,.85,8.6,12.89,12.89,0,0,0,4.27,7.15Z" fill="#0086ff"/><path d="M279.54,222.63a6.16,6.16,0,0,1-6.64,5.07c-2.86-.24-5.55-2.7-5.53-5.07Z" fill="#0086ff"/></g></svg>