<svg id="line" height="512" viewBox="0 0 64 64" width="512" xmlns="http://www.w3.org/2000/svg"><circle cx="47.5" cy="47" fill="#c4a2fc" r="4"/><path d="m59.5 13h-24a3 3 0 0 0 -3 3v44a3 3 0 0 0 3 3h24a3 3 0 0 0 3-3v-44a3 3 0 0 0 -3-3zm-6 4a1 1 0 1 1 -1 1 1 1 0 0 1 1-1zm-7.449 14.146 3.626-8.628a.82.82 0 0 1 1.08-.429.8.8 0 0 1 .414 1.051l-3.625 8.642a.822.822 0 0 1 -1.051.43.8.8 0 0 1 -.444-1.066zm-9.27-4.662 4.159-4.217a.964.964 0 0 1 1.332 0 .937.937 0 0 1 0 1.331l-3.508 3.538 3.508 3.536a.939.939 0 0 1 0 1.333.965.965 0 0 1 -1.332 0l-4.159-4.218c-.338-.115-.295-1.105 0-1.303zm18.719 20.516a7.743 7.743 0 0 1 -.081 1.108l1.375.794a2 2 0 0 1 .732 2.732l-1 1.732a2 2 0 0 1 -2.732.732l-1.377-.8a8.056 8.056 0 0 1 -1.917 1.11v1.592a2 2 0 0 1 -2 2h-2a2 2 0 0 1 -2-2v-1.587a8.075 8.075 0 0 1 -1.917-1.11l-1.377.8a2 2 0 0 1 -2.732-.732l-1-1.732a2 2 0 0 1 .733-2.732l1.374-.794a7.619 7.619 0 0 1 0-2.216l-1.375-.797a2 2 0 0 1 -.732-2.732l1-1.732a2 2 0 0 1 2.732-.732l1.377.8a8.056 8.056 0 0 1 1.917-1.11v-1.594a2 2 0 0 1 2-2h2a2 2 0 0 1 2 2v1.587a8.056 8.056 0 0 1 1.917 1.11l1.377-.8a2 2 0 0 1 2.732.732l1 1.732a2 2 0 0 1 -.732 2.732l-1.375.794a7.743 7.743 0 0 1 .081 1.113zm2.719-19.213-4.158 4.218a.968.968 0 0 1 -1.333 0 .939.939 0 0 1 0-1.333l3.508-3.536-3.508-3.536a.937.937 0 0 1 0-1.331.965.965 0 0 1 1.333 0l4.158 4.217a.931.931 0 0 1 0 1.301zm-.719-8.787a1 1 0 1 1 1-1 1 1 0 0 1 -1 1z" fill="#c4a2fc"/><g fill="#151a6a"><path d="m48.5 1h-44a3 3 0 0 0 -3 3v27a3 3 0 0 0 3 3h12v7h-4a1 1 0 0 0 0 2h28a1 1 0 0 0 0-2h-4v-7h12a3 3 0 0 0 3-3v-27a3 3 0 0 0 -3-3zm-14 40h-16v-7h3.1a5 5 0 0 0 9.8 0h3.1zm-10.816-7h5.632a2.982 2.982 0 0 1 -5.632 0zm25.816-3a1 1 0 0 1 -1 1h-44a1 1 0 0 1 -1-1v-27a1 1 0 0 1 1-1h44a1 1 0 0 1 1 1z"/><path d="m17.036 15.5a1 1 0 0 0 .866.5h5.2a1 1 0 0 0 .866-.5l2.6-4.5a1 1 0 0 0 0-1l-2.6-4.5a1 1 0 0 0 -.868-.5h-5.2a1 1 0 0 0 -.866.5l-2.6 4.5a1 1 0 0 0 0 1zm1.443-8.5h4.042l2.021 3.5-2.021 3.5h-4.042l-2.021-3.5z"/><path d="m35.964 12.5a1 1 0 0 0 -.864-.5h-5.2a1 1 0 0 0 -.866.5l-2.6 4.5a1 1 0 0 0 0 1l2.6 4.5a1 1 0 0 0 .866.5h5.2a1 1 0 0 0 .866-.5l2.6-4.5a1 1 0 0 0 0-1zm-1.443 8.5h-4.042l-2.021-3.5 2.021-3.5h4.042l2.021 3.5z"/><path d="m23.964 19.5a1 1 0 0 0 -.864-.5h-5.2a1 1 0 0 0 -.866.5l-2.6 4.5a1 1 0 0 0 0 1l2.6 4.5a1 1 0 0 0 .866.5h5.2a1 1 0 0 0 .866-.5l2.6-4.5a1 1 0 0 0 0-1zm-1.443 8.5h-4.042l-2.021-3.5 2.021-3.5h4.042l2.021 3.5z"/></g></svg>