<svg height="512" viewBox="0 0 64 64" width="512" xmlns="http://www.w3.org/2000/svg"><g fill="#9bc9ff"><path d="m49 3h-26v14a2 2 0 0 1 -2 2h-14v36a2.006 2.006 0 0 0 2 2h24l-.4-.8-1.6-3.2v-32a4 4 0 0 1 8 0v32l-1.6 3.2-.4.8h8v-44h6v-8a2.006 2.006 0 0 0 -2-2z"/><path d="m39 27v-4h-8v4h4z"/><path d="m35 61 2-4h-4z"/><path d="m35 55a3 3 0 0 0 -2.4 1.2l.4.8h4l.4-.8a3 3 0 0 0 -2.4-1.2z"/></g><path d="m57 12h-5v-7a3 3 0 0 0 -3-3h-26a1 1 0 0 0 -.707.293l-16 16a1 1 0 0 0 -.293.707v36a3 3 0 0 0 3 3h23.382l1.718 3.447a1 1 0 0 0 1.79 0l1.728-3.447h6.382v3a1 1 0 0 0 1 1h12a1 1 0 0 0 1-1v-48a1 1 0 0 0 -1-1zm-35-6.586v11.586a1 1 0 0 1 -1 1h-11.586zm13 53.35-1.178-2.356a2.1 2.1 0 0 1 2.356 0zm2.078-4.156a3.855 3.855 0 0 0 -4.156 0l-.7-1.411 2.778-2.783 2.783 2.786zm-5.078-4.022v-22.586h2v20.586zm6 0-2-2v-20.586h2zm0-24.586h-6v-2h6zm0-4h-6v-1a3 3 0 0 1 6 0zm6-9v43h-5.382l1.282-2.553a1 1 0 0 0 .1-.447v-32a5 5 0 0 0 -10 0v32a1 1 0 0 0 .105.447l1.277 2.553h-22.382a1 1 0 0 1 -1-1v-35h13a3 3 0 0 0 3-3v-13h25a1 1 0 0 1 1 1v7h-5a1 1 0 0 0 -1 1zm9 13h3v4h-3a1 1 0 0 0 0 2h3v4h-3a1 1 0 0 0 0 2h3v4h-3a1 1 0 0 0 0 2h3v4h-3a1 1 0 0 0 0 2h3v4h-3a1 1 0 0 0 0 2h3v4h-10v-46h10v4h-3a1 1 0 0 0 0 2h3v4h-3a1 1 0 0 0 0 2z" fill="#1e81ce"/></svg>