<?xml version="1.0" encoding="iso-8859-1"?>
<!-- Generator: Adobe Illustrator 19.0.0, SVG Export Plug-In . SVG Version: 6.00 Build 0)  -->
<svg version="1.1" id="Capa_1" xmlns="http://www.w3.org/2000/svg" xmlns:xlink="http://www.w3.org/1999/xlink" x="0px" y="0px"
	 viewBox="0 0 512 512" style="enable-background:new 0 0 512 512;" xml:space="preserve">
<g>
	<g transform="translate(0 1)">
		<path style="fill:#7FACFA;" d="M328.68,331.8h150.952c6.556-0.234,12.75-3.062,17.22-7.863c4.47-4.801,6.849-11.181,6.615-17.737
			v-256c0.235-6.556-2.145-12.936-6.615-17.737c-4.47-4.801-10.664-7.63-17.22-7.863H66.501c-6.556,0.234-12.75,3.062-17.22,7.863
			S42.432,43.644,42.667,50.2v256c-0.235,6.556,2.145,12.936,6.615,17.737c4.47,4.801,10.664,7.63,17.22,7.863h150.952"/>
		<path style="fill:#FFFFFF;" d="M294.547,331.8h150.952c6.556-0.234,12.75-3.062,17.22-7.863c4.47-4.801,6.849-11.181,6.615-17.737
			v-256c0.235-6.556-2.145-12.936-6.615-17.737c-4.47-4.801-10.664-7.63-17.22-7.863H32.368c-6.556,0.234-12.75,3.062-17.22,7.863
			S8.299,43.644,8.533,50.2v256c-0.235,6.556,2.145,12.936,6.615,17.737c4.47,4.801,10.664,7.63,17.22,7.863H183.32"/>
		<path style="fill:#E3E7F2;" d="M309.554,331.8h145.361c13.397-0.753,23.661-12.201,22.952-25.6v-256
			c0.709-13.399-9.555-24.847-22.952-25.6H57.085c-13.397,0.753-23.661,12.201-22.952,25.6v256
			c-0.709,13.399,9.555,24.847,22.952,25.6H309.554z"/>
		<rect x="68.267" y="75.8" style="fill:#A4C2F7;" width="435.2" height="51.2"/>
		
			<linearGradient id="SVGID_1_" gradientUnits="userSpaceOnUse" x1="-48.6684" y1="651.2018" x2="-48.1107" y2="646.3685" gradientTransform="matrix(443.7334 0 0 -51.2 21728.0684 33319.2031)">
			<stop  offset="0" style="stop-color:#D4E1F4"/>
			<stop  offset="0.1717" style="stop-color:#D4E1F4"/>
			<stop  offset="0.2" style="stop-color:#D4E1F4"/>
			<stop  offset="0.2001" style="stop-color:#DAE4F4"/>
			<stop  offset="0.2007" style="stop-color:#EBEBF4"/>
			<stop  offset="0.2014" style="stop-color:#F6F1F4"/>
			<stop  offset="0.2023" style="stop-color:#FDF4F4"/>
			<stop  offset="0.205" style="stop-color:#FFF5F4"/>
			<stop  offset="0.2522" style="stop-color:#FFF5F4"/>
			<stop  offset="0.26" style="stop-color:#FFF5F4"/>
			<stop  offset="0.26" style="stop-color:#D4E1F4"/>
			<stop  offset="0.3974" style="stop-color:#D4E1F4"/>
			<stop  offset="0.42" style="stop-color:#D4E1F4"/>
			<stop  offset="0.4201" style="stop-color:#DAE4F4"/>
			<stop  offset="0.4207" style="stop-color:#EBEBF4"/>
			<stop  offset="0.4214" style="stop-color:#F6F1F4"/>
			<stop  offset="0.4223" style="stop-color:#FDF4F4"/>
			<stop  offset="0.425" style="stop-color:#FFF5F4"/>
			<stop  offset="0.4894" style="stop-color:#FFF5F4"/>
			<stop  offset="0.5" style="stop-color:#FFF5F4"/>
			<stop  offset="0.5" style="stop-color:#F9F2F4"/>
			<stop  offset="0.5001" style="stop-color:#E8EBF4"/>
			<stop  offset="0.5003" style="stop-color:#DDE5F4"/>
			<stop  offset="0.5005" style="stop-color:#D6E2F4"/>
			<stop  offset="0.501" style="stop-color:#D4E1F4"/>
			<stop  offset="0.7062" style="stop-color:#D4E1F4"/>
			<stop  offset="0.74" style="stop-color:#D4E1F4"/>
			<stop  offset="0.741" style="stop-color:#FFF5F4"/>
			<stop  offset="0.8346" style="stop-color:#FFF5F4"/>
			<stop  offset="0.85" style="stop-color:#FFF5F4"/>
			<stop  offset="0.851" style="stop-color:#D4E1F4"/>
		</linearGradient>
		<rect x="34.133" y="75.8" style="fill:url(#SVGID_1_);" width="443.733" height="51.2"/>
		<g>
			<path style="fill:#A4C2F7;" d="M59.733,246.467h34.133c9.426,0,17.067,7.641,17.067,17.067V280.6
				c0,9.426-7.641,17.067-17.067,17.067H59.733c-9.426,0-17.067-7.641-17.067-17.067v-17.067
				C42.667,254.108,50.308,246.467,59.733,246.467z"/>
			<path style="fill:#A4C2F7;" d="M51.2,161.133h213.333c4.713,0,8.533,3.821,8.533,8.533v17.067c0,4.713-3.82,8.533-8.533,8.533
				H51.2c-4.713,0-8.533-3.821-8.533-8.533v-17.067C42.667,164.954,46.487,161.133,51.2,161.133z"/>
		</g>
		<circle style="fill:#D4E1F4;" cx="256" cy="306.285" r="76.885"/>
		<path style="fill:#E3E7F2;" d="M332.8,383h42.667c9.414,0.028,17.039,7.652,17.067,17.067v68.267
			c-0.028,9.414-7.652,17.039-17.067,17.067H136.533c-9.414-0.028-17.039-7.652-17.067-17.067v-68.267
			c0.028-9.414,7.652-17.039,17.067-17.067H332.8z"/>
	</g>
	<g>
		<path style="fill:#FFFFFF;" d="M17.067,128v175.408l0.011,3.952c0.018,0.9,0.102,1.798,0.252,2.685
			c0.282,1.767,0.849,3.476,1.679,5.06c1.673,3.197,4.319,5.78,7.555,7.376c1.592,0.819,3.316,1.353,5.093,1.578
			c0.926,0.135,1.861,0.205,2.797,0.208h149.098v17.067H34.454c-1.75-0.006-3.498-0.133-5.231-0.382
			c-3.562-0.482-7.018-1.555-10.228-3.173c-6.474-3.199-11.766-8.371-15.113-14.77c-1.665-3.184-2.809-6.615-3.388-10.162
			c-0.295-1.762-0.456-3.545-0.482-5.331L0,303.408V128H17.067z"/>
		<g>
			<path style="fill:#428DFF;" d="M8.533,170.667c4.707-0.014,8.519-3.826,8.533-8.533V128H0v34.133
				C0.014,166.84,3.826,170.653,8.533,170.667z"/>
			<path style="fill:#428DFF;" d="M183.552,341.333v-17.067H34.454c-0.936-0.003-1.871-0.072-2.797-0.208
				c-1.777-0.225-3.5-0.758-5.093-1.578c-3.236-1.596-5.882-4.179-7.555-7.376c-0.83-1.585-1.397-3.294-1.679-5.06
				c-0.149-0.888-0.233-1.785-0.252-2.685l-0.011-3.952V230.4c0-4.713-3.821-8.533-8.533-8.533S0,225.687,0,230.4v73.008
				l0.012,4.107c0.026,1.787,0.188,3.569,0.482,5.331c0.579,3.547,1.722,6.977,3.388,10.162c3.347,6.4,8.639,11.571,15.114,14.77
				c3.209,1.619,6.666,2.691,10.228,3.173c1.733,0.248,3.48,0.376,5.231,0.382H183.552z"/>
			<path style="fill:#428DFF;" d="M17.067,196.267c-0.033-2.259-0.917-4.422-2.475-6.059l-1.279-1.025
				c-0.476-0.324-0.993-0.583-1.538-0.771c-0.484-0.245-1.003-0.417-1.538-0.508c-0.563-0.096-1.133-0.153-1.704-0.171
				c-2.259,0.031-4.423,0.915-6.059,2.475c-3.222,3.397-3.222,8.721,0,12.117c0.815,0.771,1.77,1.379,2.813,1.792
				c1.027,0.438,2.13,0.67,3.246,0.683c2.259-0.034,4.422-0.918,6.059-2.475C16.149,200.689,17.032,198.525,17.067,196.267z"/>
			<path style="fill:#428DFF;" d="M460.8,298.667h-42.667c-4.713,0-8.533-3.821-8.533-8.533c0-4.713,3.82-8.533,8.533-8.533H460.8
				c4.713,0,8.533,3.821,8.533,8.533C469.333,294.846,465.513,298.667,460.8,298.667z"/>
			<path style="fill:#428DFF;" d="M460.8,264.533h-59.733c-4.713,0-8.533-3.821-8.533-8.533c0-4.713,3.82-8.533,8.533-8.533H460.8
				c4.713,0,8.533,3.821,8.533,8.533C469.333,260.713,465.513,264.533,460.8,264.533z"/>
			<path style="fill:#428DFF;" d="M477.867,341.333H328.45c-4.713,0-8.533-3.82-8.533-8.533s3.82-8.533,8.533-8.533h149.417
				c9.421-0.011,17.056-7.645,17.067-17.067v-256c-0.011-9.421-7.645-17.056-17.067-17.067H34.133
				c-9.421,0.011-17.056,7.645-17.067,17.067V128c0,4.713-3.821,8.533-8.533,8.533S0,132.713,0,128V51.2
				c0.02-18.843,15.29-34.113,34.133-34.133h443.733C496.71,17.087,511.98,32.357,512,51.2v256
				C511.98,326.043,496.71,341.313,477.867,341.333z"/>
			<path style="fill:#428DFF;" d="M503.467,136.533H8.533c-2.263,0.001-4.434-0.898-6.035-2.499c-1.6-1.6-2.499-3.771-2.499-6.035
				V76.8c-0.001-2.263,0.898-4.434,2.499-6.035c1.6-1.6,3.771-2.499,6.035-2.499h494.933c2.263-0.001,4.434,0.898,6.035,2.499
				c1.6,1.6,2.499,3.771,2.499,6.035V128c0.001,2.263-0.898,4.434-2.499,6.035C507.901,135.635,505.73,136.534,503.467,136.533z
				 M17.067,119.467h477.867V85.333H17.067V119.467z"/>
			<path style="fill:#428DFF;" d="M93.867,307.2H59.733c-14.132-0.015-25.585-11.468-25.6-25.6v-17.067
				c0.015-14.132,11.468-25.585,25.6-25.6h34.133c14.132,0.015,25.585,11.468,25.6,25.6V281.6
				C119.451,295.732,107.999,307.185,93.867,307.2z M59.733,256c-4.711,0.005-8.529,3.822-8.533,8.533V281.6
				c0.005,4.711,3.822,8.529,8.533,8.533h34.133c4.711-0.005,8.529-3.822,8.533-8.533v-17.067c-0.005-4.711-3.822-8.529-8.533-8.533
				H59.733z"/>
			<path style="fill:#428DFF;" d="M264.533,204.8H51.2c-9.421-0.011-17.056-7.645-17.067-17.067v-17.067
				c0.011-9.421,7.645-17.056,17.067-17.067h213.333c9.421,0.011,17.056,7.645,17.067,17.067v17.067
				C281.589,197.155,273.955,204.789,264.533,204.8z M51.2,170.667v17.067h213.346l-0.012-17.067H51.2z"/>
			<path style="fill:#428DFF;" d="M256,392.625c-34.533,0-65.666-20.802-78.88-52.707s-5.909-68.628,18.51-93.046
				s61.143-31.722,93.047-18.505c31.904,13.216,52.705,44.35,52.703,78.883C341.325,354.38,303.13,392.573,256,392.625z
				 M256,238.933c-37.727,0-68.312,30.584-68.312,68.311c-0.001,37.727,30.582,68.312,68.31,68.314
				c37.727,0.002,68.313-30.581,68.315-68.308C324.27,269.539,293.711,238.979,256,238.933z"/>
			<path style="fill:#428DFF;" d="M247.467,341.333c-2.263,0-4.433-0.899-6.033-2.5l-17.067-17.067
				c-3.281-3.341-3.256-8.701,0.054-12.012c3.311-3.311,8.671-3.335,12.012-0.054l9.708,9.708l28.359-42.542
				c1.677-2.57,4.605-4.041,7.668-3.853c3.063,0.188,5.789,2.005,7.14,4.76c1.351,2.755,1.119,6.023-0.608,8.56l-34.133,51.2
				c-1.418,2.127-3.715,3.506-6.258,3.758C248.025,341.316,247.746,341.333,247.467,341.333z"/>
			<path style="fill:#428DFF;" d="M375.467,494.933H136.533c-14.132-0.015-25.585-11.468-25.6-25.6v-68.267
				c0.015-14.132,11.468-25.585,25.6-25.6h238.933c14.132,0.015,25.585,11.468,25.6,25.6v68.267
				C401.051,483.465,389.599,494.918,375.467,494.933z M136.533,392.533c-4.711,0.005-8.529,3.822-8.533,8.533v68.267
				c0.005,4.711,3.822,8.529,8.533,8.533h238.933c4.711-0.005,8.529-3.822,8.533-8.533v-68.267
				c-0.005-4.711-3.822-8.529-8.533-8.533H136.533z"/>
			<path style="fill:#428DFF;" d="M179.2,460.8c-2.263,0.001-4.434-0.898-6.035-2.499c-1.6-1.6-2.499-3.771-2.499-6.035v-34.133
				c0-4.713,3.821-8.533,8.533-8.533s8.533,3.82,8.533,8.533v34.133c0.001,2.263-0.898,4.434-2.499,6.035
				C183.634,459.902,181.463,460.801,179.2,460.8z"/>
			<path style="fill:#428DFF;" d="M162.142,452.267c-3.96,0.005-7.403-2.715-8.315-6.569s0.947-7.828,4.49-9.598l34.133-17.067
				c4.213-2.09,9.323-0.378,11.426,3.829c2.103,4.206,0.407,9.321-3.792,11.438l-34.133,17.067
				C164.767,451.957,163.464,452.265,162.142,452.267z"/>
			<path style="fill:#428DFF;" d="M196.258,452.267c-1.322-0.002-2.625-0.31-3.808-0.9L158.316,434.3
				c-2.737-1.358-4.54-4.075-4.726-7.125c-0.186-3.05,1.272-5.967,3.824-7.647c2.552-1.681,5.807-1.869,8.536-0.494l34.133,17.067
				c3.542,1.77,5.401,5.745,4.49,9.598C203.661,449.552,200.218,452.272,196.258,452.267z"/>
			<path style="fill:#428DFF;" d="M256,460.8c-2.263,0.001-4.434-0.898-6.035-2.499c-1.6-1.6-2.499-3.771-2.499-6.035v-34.133
				c0-4.713,3.821-8.533,8.533-8.533c4.713,0,8.533,3.82,8.533,8.533v34.133c0.001,2.263-0.898,4.434-2.499,6.035
				C260.434,459.902,258.263,460.801,256,460.8z"/>
			<path style="fill:#428DFF;" d="M238.942,452.267c-3.96,0.005-7.403-2.715-8.315-6.569c-0.912-3.854,0.947-7.828,4.49-9.598
				l34.133-17.067c4.213-2.09,9.323-0.378,11.426,3.829c2.103,4.206,0.407,9.321-3.792,11.438l-34.133,17.067
				C241.567,451.957,240.264,452.265,238.942,452.267z"/>
			<path style="fill:#428DFF;" d="M273.058,452.267c-1.322-0.002-2.625-0.31-3.808-0.9L235.116,434.3
				c-2.737-1.358-4.54-4.075-4.726-7.125c-0.186-3.05,1.272-5.967,3.824-7.647c2.552-1.681,5.807-1.869,8.536-0.494l34.133,17.067
				c3.542,1.77,5.401,5.745,4.49,9.598C280.461,449.552,277.018,452.272,273.058,452.267z"/>
			<path style="fill:#428DFF;" d="M332.8,460.8c-2.263,0.001-4.434-0.898-6.035-2.499c-1.6-1.6-2.499-3.771-2.499-6.035v-34.133
				c0-4.713,3.82-8.533,8.533-8.533s8.533,3.82,8.533,8.533v34.133c0.001,2.263-0.898,4.434-2.499,6.035
				C337.234,459.902,335.063,460.801,332.8,460.8z"/>
			<path style="fill:#428DFF;" d="M315.742,452.267c-3.96,0.005-7.403-2.715-8.315-6.569c-0.912-3.854,0.947-7.828,4.49-9.598
				l34.133-17.067c4.213-2.09,9.323-0.378,11.426,3.829c2.103,4.206,0.407,9.321-3.792,11.438l-34.133,17.067
				C318.367,451.957,317.064,452.265,315.742,452.267z"/>
			<path style="fill:#428DFF;" d="M349.858,452.267c-1.322-0.002-2.625-0.31-3.808-0.9L311.916,434.3
				c-2.737-1.358-4.54-4.075-4.726-7.125c-0.186-3.05,1.272-5.967,3.824-7.647c2.552-1.681,5.807-1.869,8.536-0.494l34.133,17.067
				c3.542,1.77,5.401,5.745,4.49,9.598C357.261,449.552,353.818,452.272,349.858,452.267z"/>
		</g>
	</g>
</g>
<g>
</g>
<g>
</g>
<g>
</g>
<g>
</g>
<g>
</g>
<g>
</g>
<g>
</g>
<g>
</g>
<g>
</g>
<g>
</g>
<g>
</g>
<g>
</g>
<g>
</g>
<g>
</g>
<g>
</g>
</svg>
