<svg id="Layer_1" enable-background="new 0 0 512 512" height="512" viewBox="0 0 512 512" width="512" xmlns="http://www.w3.org/2000/svg"><g style="fill:#1E81CE;"><circle cx="61.25" cy="131" r="10"/><path d="m457 131c0-5.523-4.727-10-10.25-10h-340.5c-5.523 0-10.25 4.477-10.25 10v40c0 5.523 4.415 10 9.938 10 .042 0 .063-.006.063-.006v.006c6 0 10-4.477 10-10v-30h94v30c0 5.523 4.352 10 9.875 10 .042 0 .02-.006.063-.006.042.001.052.006.094.006 5.523 0 9.969-4.477 9.969-10v-30h93v30c0 5.523 4.415 10 9.938 10 .042 0 .063-.006.063-.006v.006c6 0 10-4.477 10-10v-30h94v30c0 5.523 4.352 10 9.875 10 .042 0 .02-.006.063-.006.042.001.052.006.094.006 5.523 0 9.969-4.477 9.969-10v-40z"/><circle cx="502" cy="334" r="10"/><path d="m509.07 73.93c-1.86-1.86-4.44-2.93-7.07-2.93h-492c-2.63 0-5.21 1.07-7.07 2.93s-2.93 4.44-2.93 7.07v350c0 2.63 1.07 5.21 2.93 7.07s4.44 2.93 7.07 2.93h492c2.63 0 5.21-1.07 7.07-2.93s2.93-4.44 2.93-7.07v-52c0-5.51-4.49-10-10-10s-10 4.49-10 10v42h-472v-330h472v198c0 5.51 4.49 10 10 10s10-4.49 10-10v-208c0-2.63-1.07-5.21-2.93-7.07z"/><path d="m333.25 357h113.5c5.523 0 10.25-4.477 10.25-10v-40c0-5.523-4.727-10-10.25-10h-103.75v-30c0-5.523-4.227-10-9.75-10h-103.25v-30c0-5.523-4.727-10-10.25-10h-113.5c-5.523 0-10.25 4.477-10.25 10v40c0 5.523 4.727 10 10.25 10h103.75v30c0 5.523 4.227 10 9.75 10h103.25v30c0 5.523 4.727 10 10.25 10zm9.75-40h94v20h-94zm-133-60h-94v-20h94zm20 40v-20h93v20z"/></g></svg>