<svg id="_x31_" enable-background="new 0 0 24 24" height="512" viewBox="0 0 24 24" width="512" xmlns="http://www.w3.org/2000/svg"><g><path d="m17.5 24c-3.584 0-6.5-2.916-6.5-6.5s2.916-6.5 6.5-6.5 6.5 2.916 6.5 6.5-2.916 6.5-6.5 6.5zm0-12c-3.033 0-5.5 2.467-5.5 5.5s2.467 5.5 5.5 5.5 5.5-2.467 5.5-5.5-2.467-5.5-5.5-5.5z"/></g><g><path d="m16.5 20c-.132 0-.26-.053-.354-.146l-2-2c-.195-.195-.195-.512 0-.707s.512-.195.707 0l1.622 1.622 3.148-3.598c.183-.209.499-.229.706-.047.208.182.229.498.047.706l-3.5 4c-.091.104-.222.166-.36.17-.005 0-.011 0-.016 0z"/></g><g><path d="m9.5 20h-9c-.276 0-.5-.224-.5-.5v-4c0-1.93 1.57-3.5 3.5-3.5h7c.276 0 .5.224.5.5s-.224.5-.5.5h-7c-1.378 0-2.5 1.122-2.5 2.5v3.5h8.5c.276 0 .5.224.5.5s-.224.5-.5.5z"/></g><g><path d="m8 10c-2.481 0-4.5-2.019-4.5-4.5s2.019-4.5 4.5-4.5 4.5 2.019 4.5 4.5-2.019 4.5-4.5 4.5zm0-8c-1.93 0-3.5 1.57-3.5 3.5s1.57 3.5 3.5 3.5 3.5-1.57 3.5-3.5-1.57-3.5-3.5-3.5z"/></g><g><path d="m11.398 5.584c-1.19 0-2.047-.808-2.49-1.352-1.945 1.495-4.241 1.358-4.938 1.274-.274-.033-.469-.282-.436-.556s.282-.469.557-.436c.64.077 2.863.208 4.568-1.38.112-.104.265-.148.414-.128.15.022.283.112.359.243.039.067.983 1.645 2.413 1.276.269-.066.54.093.609.36.069.268-.092.54-.36.609-.242.063-.475.09-.696.09z"/></g></svg>