<?xml version="1.0" encoding="iso-8859-1"?>
<!-- Generator: Adobe Illustrator 19.0.0, SVG Export Plug-In . SVG Version: 6.00 Build 0)  -->
<svg version="1.1" id="Capa_1" xmlns="http://www.w3.org/2000/svg" xmlns:xlink="http://www.w3.org/1999/xlink" x="0px" y="0px"
	 viewBox="0 0 512 512" style="enable-background:new 0 0 512 512;" xml:space="preserve">
<g>
	<g>
		<path d="M504.5,32.5H481c-4.143,0-7.5,3.357-7.5,7.5s3.357,7.5,7.5,7.5h16v35H127v-35h321c4.143,0,7.5-3.357,7.5-7.5
			s-3.357-7.5-7.5-7.5H119.5H7.5C3.358,32.5,0,35.857,0,40v50v272.75c0,4.143,3.358,7.5,7.5,7.5s7.5-3.357,7.5-7.5V97.5h104.5H497
			v325h-15v-30.85v-64.823V124.65c0-4.143-3.357-7.5-7.5-7.5H232.27c-4.142,0-7.5,3.357-7.5,7.5v267c0,4.143,3.358,7.5,7.5,7.5
			h50.806c0.444,8.456,2.882,16.387,6.834,23.35H15v-27.25c0-4.143-3.358-7.5-7.5-7.5s-7.5,3.357-7.5,7.5V430
			c0,4.143,3.358,7.5,7.5,7.5h295.055c7.661,6.269,17.099,10.435,27.429,11.633v19.035c0,6.248,5.084,11.332,11.332,11.332h112.336
			c6.248,0,11.332-5.084,11.332-11.332v-19.627c5.94-1.745,10.915-5.76,13.922-11.041H504.5c4.143,0,7.5-3.357,7.5-7.5V90V40
			C512,35.857,508.643,32.5,504.5,32.5z M112,82.5H15v-35h97V82.5z M449.983,464.5h-105v-15h105V464.5z M467,292.57
			c-8.323-7.707-19.444-12.429-31.651-12.429h-43.76c-4.611,0-8.362-3.758-8.362-8.377v-68.415c0-7.706-2.998-14.95-8.441-20.397
			c-5.444-5.45-12.685-8.451-20.389-8.451c-15.881,0-28.813,12.933-28.829,28.805l-0.408,95.766
			c-3.693-1.814-7.861-2.723-12.353-2.61C296.371,296.79,283,310.632,283,327.316v15.351c0,4.143,3.357,7.5,7.5,7.5
			s7.5-3.357,7.5-7.5v-15.351c0-8.578,6.777-15.692,15.107-15.86c4.034-0.049,6.98,1.322,9.359,4.414
			c2.56,3.324,6.953,4.654,10.932,3.31c3.998-1.351,6.696-5.091,6.715-9.309l0.454-106.526c0.008-7.634,6.211-13.845,13.829-13.845
			c3.694,0,7.166,1.439,9.777,4.054c2.613,2.614,4.053,6.094,4.053,9.795v68.415c0,12.89,10.48,23.377,23.362,23.377h43.76
			c17.452,0,31.651,14.215,31.651,31.687v64.823v34.163c0,4.79-3.891,8.687-8.672,8.687h-0.845h-120h-1.351
			c-21.026,0-38.133-17.125-38.133-38.174v-21.159c0-4.143-3.357-7.5-7.5-7.5s-7.5,3.357-7.5,7.5v8.983h-43.23V132.15h0.002H467
			V292.57z"/>
	</g>
</g>
<g>
	<g>
		<circle cx="36.5" cy="65" r="7.5"/>
	</g>
</g>
<g>
	<g>
		<circle cx="92.5" cy="65" r="7.5"/>
	</g>
</g>
<g>
	<g>
		<circle cx="64.5" cy="65" r="7.5"/>
	</g>
</g>
<g>
	<g>
		<path d="M197.5,117.24h-160c-4.142,0-7.5,3.357-7.5,7.5v116c0,4.143,3.358,7.5,7.5,7.5h160c4.142,0,7.5-3.357,7.5-7.5v-116
			C205,120.597,201.642,117.24,197.5,117.24z M190,233.24H45v-101h145V233.24z"/>
	</g>
</g>
<g>
	<g>
		<path d="M197.5,268.151h-160c-4.142,0-7.5,3.357-7.5,7.5v116c0,4.143,3.358,7.5,7.5,7.5h160c4.142,0,7.5-3.357,7.5-7.5v-116
			C205,271.508,201.642,268.151,197.5,268.151z M190,384.151H45v-101h145V384.151z"/>
	</g>
</g>
<g>
</g>
<g>
</g>
<g>
</g>
<g>
</g>
<g>
</g>
<g>
</g>
<g>
</g>
<g>
</g>
<g>
</g>
<g>
</g>
<g>
</g>
<g>
</g>
<g>
</g>
<g>
</g>
<g>
</g>
</svg>
