<?xml version="1.0"?>
<svg xmlns="http://www.w3.org/2000/svg" xmlns:xlink="http://www.w3.org/1999/xlink" xmlns:svgjs="http://svgjs.com/svgjs" version="1.1" width="512" height="512" x="0" y="0" viewBox="0 0 74 74" style="enable-background:new 0 0 512 512" xml:space="preserve" class=""><g><script/><path xmlns="http://www.w3.org/2000/svg" d="m71 56h-13v-2h11v-40h-64v40h43v2h-45v-44h68z" fill="#1f81ce" data-original="#000000" style="" class=""/><path xmlns="http://www.w3.org/2000/svg" d="m9 21h38.5v2h-38.5z" fill="#1f81ce" data-original="#000000" style="" class=""/><path xmlns="http://www.w3.org/2000/svg" d="m9 30h31.5v2h-31.5z" fill="#1f81ce" data-original="#000000" style="" class=""/><path xmlns="http://www.w3.org/2000/svg" d="m9 39h22.5v2h-22.5z" fill="#1f81ce" data-original="#000000" style="" class=""/><path xmlns="http://www.w3.org/2000/svg" d="m53 50a11 11 0 1 1 11-11 11.012 11.012 0 0 1 -11 11zm0-20a9 9 0 1 0 9 9 9.01 9.01 0 0 0 -9-9z" fill="#1f81ce" data-original="#000000" style="" class=""/><path xmlns="http://www.w3.org/2000/svg" d="m58 62a1 1 0 0 1 -.721-.307l-4.116-4.279-4.469 4.306a1 1 0 0 1 -1.694-.72v-13.34a1 1 0 0 1 2 0v10.988l3.5-3.368a.958.958 0 0 1 .713-.28 1 1 0 0 1 .7.307l3.087 3.211v-10.858a1 1 0 0 1 2 0v13.34a1 1 0 0 1 -1 1z" fill="#1f81ce" data-original="#000000" style="" class=""/></g></svg>
