<?xml version="1.0"?>
<svg xmlns="http://www.w3.org/2000/svg" xmlns:xlink="http://www.w3.org/1999/xlink" xmlns:svgjs="http://svgjs.com/svgjs" version="1.1" width="512" height="512" x="0" y="0" viewBox="0 0 511.69 511.69" style="enable-background:new 0 0 512 512" xml:space="preserve"><g><script/><g xmlns="http://www.w3.org/2000/svg"><g><g><g><g><path d="m267.182 380.952h-166.167c-4.143 0-7.5-3.358-7.5-7.5s3.357-7.5 7.5-7.5h166.167c4.143 0 7.5 3.358 7.5 7.5s-3.357 7.5-7.5 7.5z" fill="#1f81ce" data-original="#000000" style=""/></g><g><path d="m343.91 261.91h-242.895c-4.143 0-7.5-3.358-7.5-7.5s3.357-7.5 7.5-7.5h242.895c4.143 0 7.5 3.358 7.5 7.5s-3.358 7.5-7.5 7.5z" fill="#1f81ce" data-original="#000000" style=""/></g><g><path d="m343.91 321.431h-242.895c-4.143 0-7.5-3.358-7.5-7.5s3.357-7.5 7.5-7.5h242.895c4.143 0 7.5 3.358 7.5 7.5s-3.358 7.5-7.5 7.5z" fill="#1f81ce" data-original="#000000" style=""/></g><g><path d="m222.462 121.792h-121.447c-4.143 0-7.5-3.358-7.5-7.5s3.357-7.5 7.5-7.5h121.447c4.143 0 7.5 3.358 7.5 7.5s-3.357 7.5-7.5 7.5z" fill="#1f81ce" data-original="#000000" style=""/></g><g><path d="m343.91 202.388h-242.895c-4.143 0-7.5-3.358-7.5-7.5s3.357-7.5 7.5-7.5h242.895c4.143 0 7.5 3.358 7.5 7.5s-3.358 7.5-7.5 7.5z" fill="#1f81ce" data-original="#000000" style=""/></g></g></g><g><path d="m377.33 455.881c-.074 0-.148-.001-.223-.003-2.342-.069-4.516-1.229-5.878-3.134l-23.687-33.123c-2.409-3.37-1.631-8.054 1.738-10.463 3.366-2.407 8.054-1.632 10.463 1.738l17.954 25.107 46.797-57.833c2.604-3.22 7.326-3.719 10.548-1.113 3.22 2.605 3.718 7.328 1.112 10.548l-52.995 65.494c-1.425 1.763-3.57 2.782-5.829 2.782z" fill="#1f81ce" data-original="#000000" style=""/></g></g><g><path d="m287.273 70.617h-129.621c-12.323 0-22.35-10.025-22.35-22.349v-25.92c0-12.323 10.027-22.348 22.35-22.348h129.621c12.323 0 22.349 10.025 22.349 22.349v25.92c0 12.323-10.026 22.348-22.349 22.348zm-129.621-55.617c-4.053 0-7.35 3.296-7.35 7.349v25.92c0 4.052 3.297 7.349 7.35 7.349h129.621c4.052 0 7.349-3.296 7.349-7.349v-25.92c0-4.052-3.297-7.349-7.349-7.349z" fill="#1f81ce" data-original="#000000" style=""/></g><g><path d="m406.889 301.715c-4.143 0-7.5-3.358-7.5-7.5v-233.931c0-9.636-7.84-17.476-17.476-17.476h-44.896c-4.143 0-7.5-3.358-7.5-7.5s3.357-7.5 7.5-7.5h44.896c17.907 0 32.476 14.568 32.476 32.476v233.931c0 4.142-3.357 7.5-7.5 7.5z" fill="#1f81ce" data-original="#000000" style=""/></g><g><path d="m317.345 511.69h-254.334c-17.907 0-32.476-14.568-32.476-32.476v-418.93c0-17.907 14.568-32.476 32.476-32.476h44.896c4.143 0 7.5 3.358 7.5 7.5s-3.357 7.5-7.5 7.5h-44.896c-9.636 0-17.476 7.839-17.476 17.476v418.931c0 9.636 7.84 17.476 17.476 17.476h254.334c4.143 0 7.5 3.358 7.5 7.5s-3.357 7.499-7.5 7.499z" fill="#1f81ce" data-original="#000000" style=""/></g><g><path d="m384.723 511.69c-53.173 0-96.433-43.259-96.433-96.432s43.26-96.432 96.433-96.432 96.432 43.259 96.432 96.432-43.259 96.432-96.432 96.432zm0-177.864c-44.902 0-81.433 36.53-81.433 81.432s36.53 81.432 81.433 81.432c44.901 0 81.432-36.53 81.432-81.432s-36.53-81.432-81.432-81.432z" fill="#1f81ce" data-original="#000000" style=""/></g></g></g></svg>
