<?xml version="1.0"?>
<svg xmlns="http://www.w3.org/2000/svg" xmlns:xlink="http://www.w3.org/1999/xlink" xmlns:svgjs="http://svgjs.com/svgjs" version="1.1" width="512" height="512" x="0" y="0" viewBox="0 0 512 512" style="enable-background:new 0 0 512 512" xml:space="preserve" class=""><g><script/>
<g xmlns="http://www.w3.org/2000/svg">
	<g>
		<path d="M0,48.5V426c0,20.678,16.822,37.5,37.5,37.5h437c20.678,0,37.5-16.822,37.5-37.5V48.5H0z M497,426    c0,12.406-10.094,22.5-22.5,22.5h-437C25.093,448.5,15,438.406,15,426V130h482V426z M497,115H15V63.5h482V115z" fill="#1f81ce" data-original="#000000" style="" class=""/>
	</g>
</g>
<g xmlns="http://www.w3.org/2000/svg">
	<g>
		<rect x="140.75" y="81.75" width="300" height="15" fill="#1f81ce" data-original="#000000" style="" class=""/>
	</g>
</g>
<g xmlns="http://www.w3.org/2000/svg">
	<g>
		<rect x="455.75" y="81.75" width="15" height="15" fill="#1f81ce" data-original="#000000" style="" class=""/>
	</g>
</g>
<g xmlns="http://www.w3.org/2000/svg">
	<g>
		<path d="M58.75,158v164h169V158H58.75z M179.75,307h-75v-9.5c0-20.678,16.822-37.5,37.5-37.5c20.678,0,37.5,16.822,37.5,37.5V307z     M119.75,222.5c0-12.406,10.093-22.5,22.5-22.5s22.5,10.094,22.5,22.5s-10.093,22.5-22.5,22.5S119.75,234.906,119.75,222.5z     M212.75,307h-18v-9.5c0-20.171-11.441-37.711-28.169-46.5c8.051-6.883,13.169-17.103,13.169-28.5c0-20.678-16.822-37.5-37.5-37.5    s-37.5,16.822-37.5,37.5c0,11.398,5.118,21.617,13.169,28.5c-16.728,8.789-28.169,26.329-28.169,46.5v9.5h-16V173h139V307z" fill="#1f81ce" data-original="#000000" style="" class=""/>
	</g>
</g>
<g xmlns="http://www.w3.org/2000/svg">
	<g>
		<rect x="248.5" y="155.5" width="15" height="263" fill="#1f81ce" data-original="#000000" style="" class=""/>
	</g>
</g>
<g xmlns="http://www.w3.org/2000/svg">
	<g>
		<rect x="29.75" y="81.75" width="15" height="15" fill="#1f81ce" data-original="#000000" style="" class=""/>
	</g>
</g>
<g xmlns="http://www.w3.org/2000/svg">
	<g>
		<rect x="59.75" y="81.75" width="15" height="15" fill="#1f81ce" data-original="#000000" style="" class=""/>
	</g>
</g>
<g xmlns="http://www.w3.org/2000/svg">
	<g>
		<rect x="89.75" y="81.75" width="15" height="15" fill="#1f81ce" data-original="#000000" style="" class=""/>
	</g>
</g>
<g xmlns="http://www.w3.org/2000/svg">
	<g>
		<rect x="59.25" y="343" width="15" height="15" fill="#1f81ce" data-original="#000000" style="" class=""/>
	</g>
</g>
<g xmlns="http://www.w3.org/2000/svg">
	<g>
		<rect x="119.25" y="343" width="15" height="15" fill="#1f81ce" data-original="#000000" style="" class=""/>
	</g>
</g>
<g xmlns="http://www.w3.org/2000/svg">
	<g>
		<rect x="89.25" y="343" width="15" height="15" fill="#1f81ce" data-original="#000000" style="" class=""/>
	</g>
</g>
<g xmlns="http://www.w3.org/2000/svg">
	<g>
		<rect x="372.25" y="358" width="15" height="15" fill="#1f81ce" data-original="#000000" style="" class=""/>
	</g>
</g>
<g xmlns="http://www.w3.org/2000/svg">
	<g>
		<rect x="297.25" y="358" width="60" height="15" fill="#1f81ce" data-original="#000000" style="" class=""/>
	</g>
</g>
<g xmlns="http://www.w3.org/2000/svg">
	<g>
		<rect x="402.25" y="358" width="55" height="15" fill="#1f81ce" data-original="#000000" style="" class=""/>
	</g>
</g>
<g xmlns="http://www.w3.org/2000/svg">
	<g>
		<rect x="372.25" y="283.5" width="15" height="15" fill="#1f81ce" data-original="#000000" style="" class=""/>
	</g>
</g>
<g xmlns="http://www.w3.org/2000/svg">
	<g>
		<rect x="297.25" y="283.5" width="60" height="15" fill="#1f81ce" data-original="#000000" style="" class=""/>
	</g>
</g>
<g xmlns="http://www.w3.org/2000/svg">
	<g>
		<rect x="402.25" y="283.5" width="55" height="15" fill="#1f81ce" data-original="#000000" style="" class=""/>
	</g>
</g>
<g xmlns="http://www.w3.org/2000/svg">
	<g>
		<rect x="342.25" y="320.75" width="115" height="15" fill="#1f81ce" data-original="#000000" style="" class=""/>
	</g>
</g>
<g xmlns="http://www.w3.org/2000/svg">
	<g>
		<rect x="297.25" y="320.75" width="30" height="15" fill="#1f81ce" data-original="#000000" style="" class=""/>
	</g>
</g>
<g xmlns="http://www.w3.org/2000/svg">
	<g>
		<rect x="402.25" y="209" width="55" height="15" fill="#1f81ce" data-original="#000000" style="" class=""/>
	</g>
</g>
<g xmlns="http://www.w3.org/2000/svg">
	<g>
		<rect x="297.25" y="209" width="60" height="15" fill="#1f81ce" data-original="#000000" style="" class=""/>
	</g>
</g>
<g xmlns="http://www.w3.org/2000/svg">
	<g>
		<rect x="372.25" y="209" width="15" height="15" fill="#1f81ce" data-original="#000000" style="" class=""/>
	</g>
</g>
<g xmlns="http://www.w3.org/2000/svg">
	<g>
		<rect x="297.25" y="246.25" width="30" height="15" fill="#1f81ce" data-original="#000000" style="" class=""/>
	</g>
</g>
<g xmlns="http://www.w3.org/2000/svg">
	<g>
		<rect x="342.25" y="246.25" width="115" height="15" fill="#1f81ce" data-original="#000000" style="" class=""/>
	</g>
</g>
<g xmlns="http://www.w3.org/2000/svg">
</g>
<g xmlns="http://www.w3.org/2000/svg">
</g>
<g xmlns="http://www.w3.org/2000/svg">
</g>
<g xmlns="http://www.w3.org/2000/svg">
</g>
<g xmlns="http://www.w3.org/2000/svg">
</g>
<g xmlns="http://www.w3.org/2000/svg">
</g>
<g xmlns="http://www.w3.org/2000/svg">
</g>
<g xmlns="http://www.w3.org/2000/svg">
</g>
<g xmlns="http://www.w3.org/2000/svg">
</g>
<g xmlns="http://www.w3.org/2000/svg">
</g>
<g xmlns="http://www.w3.org/2000/svg">
</g>
<g xmlns="http://www.w3.org/2000/svg">
</g>
<g xmlns="http://www.w3.org/2000/svg">
</g>
<g xmlns="http://www.w3.org/2000/svg">
</g>
<g xmlns="http://www.w3.org/2000/svg">
</g>
</g></svg>
