<?xml version="1.0"?>
<svg xmlns="http://www.w3.org/2000/svg" xmlns:xlink="http://www.w3.org/1999/xlink" xmlns:svgjs="http://svgjs.com/svgjs" version="1.1" width="512" height="512" x="0" y="0" viewBox="0 0 64 64" style="enable-background:new 0 0 512 512" xml:space="preserve" class=""><g><script/><g xmlns="http://www.w3.org/2000/svg"><path d="m35.789 21.658.105-.211-1.789-.895-.105.212c-.381.762-1.147 1.236-2 1.236s-1.619-.474-2-1.236l-.105-.211-1.789.895.105.211c.722 1.444 2.174 2.341 3.789 2.341s3.067-.897 3.789-2.342z" fill="#1f81ce" data-original="#000000" style="" class=""/><circle cx="29" cy="18" r="1" fill="#1f81ce" data-original="#000000" style="" class=""/><circle cx="35" cy="18" r="1" fill="#1f81ce" data-original="#000000" style="" class=""/><path d="m32 47c-1.654 0-3 1.346-3 3s1.346 3 3 3 3-1.346 3-3-1.346-3-3-3zm0 4c-.552 0-1-.448-1-1s.448-1 1-1 1 .448 1 1-.448 1-1 1z" fill="#1f81ce" data-original="#000000" style="" class=""/><path d="m13 7.184v-2.184h-2v2h-2v3c0 1.654 1.346 3 3 3 .552 0 1 .448 1 1v1h-1c-.552 0-1-.448-1-1v-1h-2v1c0 1.302.839 2.402 2 2.816v2.184h2v-2h2v-3c0-1.654-1.346-3-3-3-.552 0-1-.448-1-1v-1h1c.552 0 1 .448 1 1v1h2v-1c0-1.302-.839-2.402-2-2.816z" fill="#1f81ce" data-original="#000000" style="" class=""/><path d="m17 39v-3c0-1.654-1.346-3-3-3-.552 0-1-.448-1-1v-1h1c.552 0 1 .448 1 1v1h2v-1c0-1.654-1.346-3-3-3h-3v3c0 1.654 1.346 3 3 3 .552 0 1 .448 1 1v1h-1c-.552 0-1-.448-1-1v-1h-2v1c0 1.654 1.346 3 3 3z" fill="#1f81ce" data-original="#000000" style="" class=""/><path d="m57 33h2v2h-2z" fill="#1f81ce" data-original="#000000" style="" class=""/><path d="m53 33h2v2h-2z" fill="#1f81ce" data-original="#000000" style="" class=""/><path d="m49 33h2v2h-2z" fill="#1f81ce" data-original="#000000" style="" class=""/><path d="m61 29h-14c-1.103 0-2 .897-2 2v.005c-1.196-.649-2.483-1.085-3.834-1.278l-4.372-.624-.618-2.293c1.446-.89 2.589-2.221 3.235-3.81h3.589v1.764c0 1.233 1.003 2.236 2.236 2.236.852 0 1.617-.474 2-1.236l1.382-2.764h8.382c1.103 0 2-.897 2-2v-10c0-1.103-.897-2-2-2h-13.187c-.889-4.553-4.903-8-9.712-8h-4.201c-3.709 0-6.943 2.053-8.639 5.079-1.998-3.103-5.488-5.079-9.261-5.079-6.065 0-11 4.935-11 11s4.935 11 11 11c3.363 0 6.47-1.53 8.526-4.055.686 1.22 1.978 2.055 3.474 2.055h.069c.309 2.458 1.735 4.567 3.754 5.81l-.618 2.293-4.372.624c-.282.04-.563.091-.841.153-1.497-2.894-4.514-4.88-7.992-4.88-4.963 0-9 4.037-9 9 0 4.625 3.507 8.442 8 8.941v9.059c0 2.757 2.243 5 5 5h1v2c0 2.206 1.794 4 4 4h18c2.206 0 4-1.794 4-4v-2h1c2.757 0 5-2.243 5-5v-9.035c.74.129 1.572-.122 2.121-.672l3.293-3.293h4.586c1.103 0 2-.897 2-2v-6c0-1.103-.897-2-2-2zm-23.394 2.24-1.21 4.232-2.784-1.67 2.741-2.741zm4.394-14.24c0 1.103-.897 2-2 2v-4c1.103 0 2 .897 2 2zm15 4h-9.618l-1.934 3.868c-.1.198-.448.116-.448-.104v-3.764h-5c1.474 0 2.75-.81 3.444-2h11.556v-2h-11c0-.732-.212-1.409-.556-2h11.556v-2h-11.234c.143-.657.222-1.328.229-2h13.005zm-45 0c-4.963 0-9-4.037-9-9s4.037-9 9-9c3.616 0 6.907 2.222 8.295 5.545-.186.756-.295 1.542-.295 2.354 0 1.29.272 2.576.763 3.769-.2.276-.363.578-.487.901l-.009-.004c-1.426 3.302-4.671 5.435-8.267 5.435zm10-4c0-1.103.897-2 2-2h.01c-.001.042-.01.081-.01.123v3.877c-1.103 0-2-.897-2-2zm2.488-4h-.488c-.57 0-1.111.124-1.602.34-.256-.788-.398-1.613-.398-2.441 0-4.355 3.544-7.899 7.899-7.899h4.201c4.356 0 7.9 3.544 7.9 7.899 0 .827-.142 1.653-.398 2.441-.491-.216-1.032-.34-1.602-.34h-8c-1.103 0-2-.897-2-2s.897-2 2-2v-2c-1.932 0-3.547 1.376-3.919 3.199l-.293.073c-1.496.375-2.676 1.403-3.3 2.728zm1.512 7v-4.877c0-1.358.909-2.536 2.214-2.891.523 1.601 2.013 2.768 3.786 2.768h6v5c0 3.309-2.691 6-6 6s-6-2.691-6-6zm6 8c.811 0 1.593-.123 2.331-.349l.553 2.051-2.884 2.884-2.884-2.884.553-2.051c.738.226 1.52.349 2.331.349zm-4.354 3.061 2.741 2.741-2.784 1.67-1.21-4.232zm-4.529.647 1.278-.183 2.001 7.003 5.604-3.362 5.604 3.362 2.001-7.003 1.278.183c1.186.169 2.314.557 3.354 1.151.266.152.512.336.763.513v3.628c0 1.103.897 2 2 2h2v6h-4v-1c0-1.654-1.346-3-3-3h-20c-1.654 0-3 1.346-3 3v1h-4v-2.059c4.493-.499 8-4.316 8-8.941 0-.761-.105-1.497-.284-2.204.135-.025.266-.069.401-.088zm19.883 25.292h-22v-13c0-.552.448-1 1-1h20c.552 0 1 .448 1 1zm-36-23c0-3.859 3.141-7 7-7s7 3.141 7 7-3.141 7-7 7-7-3.141-7-7zm11 21c-1.654 0-3-1.346-3-3v-5h4v2h-2v2h2v4zm23 6h-18c-1.103 0-2-.897-2-2h22c0 1.103-.897 2-2 2zm5-6h-1v-4h2v-2h-2v-2h4v5c0 1.654-1.346 3-3 3zm15-18h-5.414l-3.879 3.879c-.239.238-.707.045-.707-.293v-3.586h-4v-6h14z" fill="#1f81ce" data-original="#000000" style="" class=""/></g></g></svg>
