<?xml version="1.0"?>
<svg xmlns="http://www.w3.org/2000/svg" height="512px" viewBox="0 -43 488.458 488" width="512px" class=""><g><script xmlns="" style="fill:null"/><path d="m435.621094 345.691406h-383.242188c-11.253906 0-20.378906-9.121094-20.378906-20.378906v-247.238281c0-11.257813 9.125-20.382813 20.378906-20.382813h383.242188c11.253906 0 20.378906 9.125 20.378906 20.382813v247.238281c0 11.253906-9.125 20.378906-20.378906 20.378906zm0 0" fill="#a4c9ff" data-original="#A4C9FF" class="" style="fill:#A4C9FF"/><path d="m48 315.09375v-227.804688c0-6.679687 5.414062-12.097656 12.097656-12.097656h367.804688c6.683594 0 12.097656 5.417969 12.097656 12.097656v227.808594c0 6.679688-5.414062 12.09375-12.097656 12.09375h-367.804688c-6.683594 0-12.097656-5.414062-12.097656-12.097656zm0 0" fill="#f9a7a7" data-original="#F9A7A7" class="" style="fill:#2296F3" data-old_color="#f9a7a7"/><path d="m445.992188 347.75c-3.117188-1.347656-6.691407-2.058594-10.335938-2.058594h-383.3125c-3.644531 0-7.21875.714844-10.335938 2.058594l-30.007812 12.941406h464zm0 0" fill="#e0ebfc" data-original="#E0EBFC" style="fill:#E0EBFC" class=""/><path d="m474.96875 398.765625h-461.9375c-4.988281 0-9.03125-4.042969-9.03125-9.03125v-20.007813c0-4.988281 4.042969-9.035156 9.03125-9.035156h461.9375c4.988281 0 9.03125 4.046875 9.03125 9.035156v20.007813c0 4.988281-4.042969 9.03125-9.03125 9.03125zm0 0" fill="#a4c9ff" data-original="#A4C9FF" class="" style="fill:#A4C9FF"/><path d="m244 360.691406h-46l6.757812 11.617188c.792969 1.363281 1.890626 2.132812 3.042969 2.132812h72.398438c1.152343 0 2.25-.769531 3.042969-2.132812l6.757812-11.617188zm0 0" fill="#e0ebfc" data-original="#E0EBFC" style="fill:#E0EBFC" class=""/><path d="m435.621094 349.691406h-383.242188c-13.441406 0-24.378906-10.933594-24.378906-24.378906v-247.238281c0-13.445313 10.9375-24.382813 24.378906-24.382813h383.242188c13.441406 0 24.378906 10.9375 24.378906 24.382813v247.238281c0 13.441406-10.9375 24.378906-24.378906 24.378906zm-383.242188-288c-9.03125 0-16.378906 7.347656-16.378906 16.382813v247.238281c0 9.03125 7.347656 16.378906 16.378906 16.378906h383.242188c9.03125 0 16.378906-7.347656 16.378906-16.378906v-247.238281c0-9.035157-7.347656-16.382813-16.378906-16.382813zm0 0" fill="#3762cc" data-original="#3762CC" class="" style="fill:#3762CC" data-old_color="#3762cc"/><path d="m476 364.691406h-464c-1.894531 0-3.535156-1.332031-3.917969-3.191406-.382812-1.855469.59375-3.730469 2.332031-4.480469l30.007813-12.945312c3.617187-1.558594 7.734375-2.382813 11.921875-2.382813h383.3125c4.1875 0 8.304688.824219 11.921875 2.382813l30.007813 12.945312c1.738281.75 2.714843 2.625 2.332031 4.480469-.382813 1.859375-2.023438 3.191406-3.917969 3.191406zm-444.628906-8h425.257812l-12.21875-5.269531c-2.621094-1.132813-5.648437-1.730469-8.753906-1.730469h-383.3125c-3.105469 0-6.128906.597656-8.753906 1.730469zm0 0" fill="#3762cc" data-original="#3762CC" class="" style="fill:#3762CC" data-old_color="#3762cc"/><path d="m474.964844 402.765625h-461.929688c-7.1875 0-13.035156-5.847656-13.035156-13.03125v-20.007813c0-7.1875 5.847656-13.035156 13.035156-13.035156h461.933594c7.1875 0 13.035156 5.847656 13.035156 13.035156v20.007813c-.003906 7.183594-5.851562 13.03125-13.039062 13.03125zm-461.929688-38.074219c-2.777344 0-5.035156 2.257813-5.035156 5.035156v20.007813c0 2.773437 2.257812 5.03125 5.035156 5.03125h461.933594c2.773438 0 5.035156-2.257813 5.035156-5.03125v-20.007813c0-2.777343-2.261718-5.035156-5.035156-5.035156zm0 0" fill="#3762cc" data-original="#3762CC" class="" style="fill:#3762CC" data-old_color="#3762cc"/><path d="m427.902344 331.191406h-367.804688c-8.878906 0-16.097656-7.21875-16.097656-16.09375v-227.808594c0-8.875 7.21875-16.097656 16.097656-16.097656h367.804688c8.878906 0 16.097656 7.222656 16.097656 16.097656v227.804688c0 8.878906-7.21875 16.097656-16.097656 16.097656zm-367.804688-252c-4.464844 0-8.097656 3.632813-8.097656 8.097656v227.804688c0 4.464844 3.628906 8.097656 8.097656 8.097656h367.804688c4.464844 0 8.097656-3.632812 8.097656-8.097656v-227.804688c0-4.464843-3.628906-8.097656-8.097656-8.097656zm0 0" fill="#3762cc" data-original="#3762CC" class="" style="fill:#3762CC" data-old_color="#3762cc"/><path d="m353 294.230469h-208c-8.835938 0-16-7.164063-16-16v-258c0-8.835938 7.164062-16 16-16h208c8.835938 0 16 7.164062 16 16v258c0 8.835937-7.164062 16-16 16zm0 0" fill="#6bdddd" data-original="#6BDDDD" class="" style="fill:#7DC5FF" data-old_color="#6bdddd"/><g fill="#ffea94"><path d="m339 67.933594h-180c-4.417969 0-8-3.582032-8-8 0-4.417969 3.582031-8 8-8h180c4.417969 0 8 3.582031 8 8 0 4.417968-3.582031 8-8 8zm0 0" data-original="#FFEA94" class="" style="fill:#2296F3" data-old_color="#FFEA94"/><path d="m339 111.933594h-180c-4.417969 0-8-3.582032-8-8 0-4.417969 3.582031-8 8-8h180c4.417969 0 8 3.582031 8 8 0 4.417968-3.582031 8-8 8zm0 0" data-original="#FFEA94" class="" style="fill:#2296F3" data-old_color="#FFEA94"/><path d="m339 155.933594h-180c-4.417969 0-8-3.582032-8-8 0-4.417969 3.582031-8 8-8h180c4.417969 0 8 3.582031 8 8 0 4.417968-3.582031 8-8 8zm0 0" data-original="#FFEA94" class="" style="fill:#2296F3" data-old_color="#FFEA94"/><path d="m339 199.933594h-180c-4.417969 0-8-3.582032-8-8 0-4.417969 3.582031-8 8-8h180c4.417969 0 8 3.582031 8 8 0 4.417968-3.582031 8-8 8zm0 0" data-original="#FFEA94" class="" style="fill:#2296F3" data-old_color="#FFEA94"/><path d="m339 243.933594h-180c-4.417969 0-8-3.582032-8-8 0-4.417969 3.582031-8 8-8h180c4.417969 0 8 3.582031 8 8 0 4.417968-3.582031 8-8 8zm0 0" data-original="#FFEA94" class="" style="fill:#2296F3" data-old_color="#FFEA94"/></g><path d="m353 298.230469h-208c-11.027344 0-20-8.972657-20-20v-258c0-11.03125 8.972656-20 20-20h208c11.027344 0 20 8.96875 20 20v258c0 11.027343-8.972656 20-20 20zm-208-290c-6.617188 0-12 5.378906-12 12v258c0 6.617187 5.382812 12 12 12h208c6.617188 0 12-5.382813 12-12v-258c0-6.621094-5.382812-12-12-12zm0 0" fill="#3762cc" data-original="#3762CC" class="" style="fill:#3762CC" data-old_color="#3762cc"/><path d="m472.578125 272.894531h-162.359375c-6.5625 0-11.878906-5.320312-11.878906-11.882812v-134.640625c0-6.558594 5.316406-11.878906 11.878906-11.878906h162.359375c6.5625 0 11.882813 5.320312 11.882813 11.878906v134.640625c0 6.5625-5.320313 11.882812-11.882813 11.882812zm0 0" fill="#e0ebfc" data-original="#E0EBFC" style="fill:#E0EBFC" class=""/><path d="m298.339844 126.371094v15.84375h186.121094v-15.84375c0-6.558594-5.320313-11.878906-11.882813-11.878906h-162.359375c-6.5625 0-11.878906 5.320312-11.878906 11.878906zm0 0" fill="#4671c6" data-original="#4671C6" style="fill:#4671C6" class=""/><path d="m472.578125 272.894531h-162.359375c-6.5625 0-11.878906-5.320312-11.878906-11.882812v-134.640625c0-6.558594 5.316406-11.878906 11.878906-11.878906h162.359375c6.5625 0 11.882813 5.320312 11.882813 11.878906v134.640625c0 6.5625-5.320313 11.882812-11.882813 11.882812zm0 0" fill="#e0ebfc" data-original="#E0EBFC" style="fill:#E0EBFC" class=""/><path d="m484.460938 126.371094c0-6.558594-5.320313-11.878906-11.882813-11.878906h-162.359375c-6.5625 0-11.878906 5.320312-11.878906 11.878906v27.125h184.910156v-11.28125h1.210938zm0 0" fill="#4671c6" data-original="#4671C6" style="fill:#4671C6" class=""/><path d="m469.355469 136.351562 2.382812-2.136718c1.539063-1.378906 1.667969-3.742188.289063-5.28125-1.378906-1.535156-3.742188-1.671875-5.28125-.289063l-2.992188 2.6875-2.996094-2.6875c-1.539062-1.378906-3.898437-1.25-5.28125.289063-1.378906 1.539062-1.25 3.902344.289063 5.28125l2.382813 2.136718-2.382813 2.140626c-1.539063 1.375-1.667969 3.742187-.289063 5.28125.738282.824218 1.757813 1.242187 2.785157 1.242187.886719 0 1.78125-.3125 2.496093-.953125l2.992188-2.6875 2.992188 2.6875c.714843.636719 1.609374.953125 2.496093.953125 1.027344 0 2.046875-.417969 2.785157-1.242187 1.378906-1.539063 1.25-3.902344-.289063-5.28125zm0 0" fill="#f9cfcf" data-original="#F9CFCF" class="" style="fill:#293640" data-old_color="#f9cfcf"/><path d="m440.183594 140.652344h-8.214844c-1.199219 0-2.175781-.976563-2.175781-2.175782v-8.214843c0-1.203125.976562-2.179688 2.175781-2.179688h8.214844c1.203125 0 2.179687.976563 2.179687 2.179688v8.214843c0 1.199219-.976562 2.175782-2.179687 2.175782zm0 0" fill="#f9cfcf" data-original="#F9CFCF" class="" style="fill:#293640" data-old_color="#f9cfcf"/><path d="m409.71875 142.558594h-11.878906c-2.433594 0-4.402344-1.972656-4.402344-4.402344s1.96875-4.398438 4.402344-4.398438h11.878906c2.429688 0 4.398438 1.96875 4.398438 4.398438s-1.96875 4.402344-4.398438 4.402344zm0 0" fill="#f9cfcf" data-original="#F9CFCF" class="" style="fill:#293640" data-old_color="#f9cfcf"/><path d="m433.898438 144.621094h-8.214844c-1.203125 0-2.175782-.972656-2.175782-2.175782v-8.214843c0-1.203125.972657-2.175781 2.175782-2.175781h8.214844c1.203124 0 2.175781.972656 2.175781 2.175781v8.214843c0 1.203126-.972657 2.175782-2.175781 2.175782zm0 0" fill="#e0ebfc" data-original="#E0EBFC" style="fill:#E0EBFC" class=""/><path d="m472.578125 276.894531h-162.359375c-8.753906 0-15.878906-7.125-15.878906-15.882812v-134.640625c0-8.753906 7.125-15.878906 15.878906-15.878906h162.359375c8.757813 0 15.878906 7.125 15.878906 15.878906v134.640625c0 8.757812-7.121093 15.882812-15.878906 15.882812zm-162.359375-158.402343c-4.34375 0-7.878906 3.535156-7.878906 7.878906v134.640625c0 4.34375 3.535156 7.882812 7.878906 7.882812h162.359375c4.347656 0 7.878906-3.539062 7.878906-7.882812v-134.640625c0-4.34375-3.535156-7.878906-7.878906-7.878906zm0 0" fill="#3762cc" data-original="#3762CC" class="" style="fill:#3762CC" data-old_color="#3762cc"/><path d="m358.148438 240.347656c-1.375 0-2.738282-.585937-3.6875-1.726562l-24-28.800782c-1.484376-1.78125-1.484376-4.367187 0-6.144531l24-28.800781c1.695312-2.035156 4.722656-2.3125 6.757812-.617188 2.039062 1.699219 2.3125 4.726563.617188 6.761719l-21.441407 25.726563 21.441407 25.730468c1.695312 2.035157 1.421874 5.058594-.617188 6.757813-.898438.75-1.988281 1.113281-3.070312 1.113281zm0 0" fill="#6bdddd" data-original="#6BDDDD" class="" style="fill:#7DC5FF" data-old_color="#6bdddd"/><path d="m430.144531 240.347656c-1.082031 0-2.171875-.363281-3.070312-1.109375-2.035157-1.699219-2.308594-4.726562-.613281-6.761719l21.4375-25.726562-21.4375-25.730469c-1.695313-2.035156-1.421876-5.058593.613281-6.757812 2.039062-1.699219 5.0625-1.421875 6.761719.617187l24 28.796875c1.484374 1.78125 1.484374 4.367188 0 6.148438l-24 28.796875c-.949219 1.140625-2.3125 1.726562-3.691407 1.726562zm0 0" fill="#6bdddd" data-original="#6BDDDD" class="" style="fill:#7DC5FF" data-old_color="#6bdddd"/><path d="m385.257812 239.199219c-.648437 0-1.304687-.128907-1.9375-.40625-2.425781-1.066407-3.523437-3.902344-2.453124-6.328125l24.375-55.300782c1.070312-2.425781 3.902343-3.523437 6.328124-2.453124 2.425782 1.066406 3.523438 3.898437 2.457032 6.324218l-24.378906 55.300782c-.789063 1.796874-2.546876 2.863281-4.390626 2.863281zm0 0" fill="#b9befc" data-original="#B9BEFC" class="active-path" style="fill:#6AB9F9" data-old_color="#b9befc"/></g> </svg>
