<?xml version="1.0"?>
<svg xmlns="http://www.w3.org/2000/svg" xmlns:xlink="http://www.w3.org/1999/xlink" xmlns:svgjs="http://svgjs.com/svgjs" version="1.1" width="512" height="512" x="0" y="0" viewBox="0 0 64 64" style="enable-background:new 0 0 512 512" xml:space="preserve" class=""><g><script/><path xmlns="http://www.w3.org/2000/svg" d="m55.754 51.674c1.367-1.101 2.246-2.786 2.246-4.674 0-3.309-2.691-6-6-6s-6 2.691-6 6c0 1.888.879 3.573 2.246 4.674-2.134.778-3.961 2.193-5.246 4.022v-.696c0-4.746-3.027-8.787-7.246-10.326.919-.739 1.618-1.741 1.976-2.893.407.136.833.219 1.27.219 2.206 0 4-1.794 4-4v-2.344l3.094 3.094c.631.632 1.381 1.042 2.167 1.183.251.045.501.068.749.068 1.057 0 2.056-.409 2.819-1.172.754-.756 1.171-1.76 1.171-2.829s-.417-2.073-1.113-2.764l-7.559-9.015c-1.101-1.313-2.391-2.45-3.834-3.378l-9.981-6.417c-1.42-.913-3.057-1.494-4.733-1.679l-4.602-.511 1.236-1.236-8.414-8.414-13.414 13.414 8.414 8.414.726-.726 1.101 2.201c.897 1.794 2.071 3.422 3.489 4.84.685.685 1.43 1.322 2.214 1.893l8.972 6.525c.169.123.347.228.528.325-.015.175-.03.351-.03.528 0 1.888.879 3.573 2.246 4.674-4.219 1.539-7.246 5.58-7.246 10.326v.695c-1.285-1.829-3.112-3.243-5.246-4.022 1.367-1.1 2.246-2.785 2.246-4.673 0-3.309-2.691-6-6-6s-6 2.691-6 6c0 1.888.879 3.573 2.246 4.674-4.219 1.539-7.246 5.58-7.246 10.326v1h22v-1c0-2.214-.663-4.273-1.792-6h21.585c-1.13 1.727-1.793 3.786-1.793 6v1h22v-1c0-4.746-3.027-8.787-7.246-10.326zm-47.754-4.674c0-2.206 1.794-4 4-4s4 1.794 4 4-1.794 4-4 4-4-1.794-4-4zm6.785 6.45-2.785 3.063-2.785-3.063c.879-.287 1.812-.45 2.785-.45s1.906.163 2.785.45zm-11.73 7.55c.314-2.824 1.94-5.256 4.252-6.675l4.693 5.162 4.692-5.162c2.312 1.419 3.939 3.851 4.252 6.675zm29.663-26.953c-.246-.689-.64-1.322-1.194-1.821l-7.321-6.589 7.725 2.107c.433.118.842.304 1.216.553 1.162.776 1.856 2.073 1.856 3.47v3.045c-.687-.399-1.458-.666-2.282-.765zm17.696.539c.378.378.586.88.586 1.414s-.208 1.036-.586 1.414c-.471.472-1.124.67-1.798.551-.483-.087-.869-.39-1.107-.629l-4.509-4.508v-7.079zm-47-18.586 10.586-10.586 5.586 5.586-10.586 10.586zm14.293 15.005c-.7-.51-1.366-1.078-1.977-1.689-1.266-1.266-2.313-2.719-3.114-4.321l-1.399-2.797 8.151-8.151 6.192.689c1.372.152 2.711.627 3.873 1.374l9.981 6.417c.557.358 1.084.758 1.587 1.185v14.288c0 1.103-.897 2-2 2-.361 0-.709-.099-1.014-.279-.052-1.116-.404-2.154-.986-3.031v-4.924c0-2.067-1.027-3.986-2.747-5.133-.554-.369-1.159-.645-1.799-.819l-10.19-2.779c-.301-.081-.622-.019-.87.17-.249.19-.395.483-.395.795v1c0 .284.12.554.331.743l8.855 7.969c.517.466.814 1.132.814 1.829 0 1.355-1.104 2.459-2.459 2.459h-.416c-.523 0-1.023-.163-1.446-.47zm10.293 8.995c0-.003.001-.006.001-.01.042.001.082.01.124.01h.416c2.259 0 4.111-1.695 4.401-3.876 1.75.426 3.058 1.996 3.058 3.876 0 2.206-1.794 4-4 4s-4-1.794-4-4zm6.785 6.45-2.785 3.063-2.785-3.063c.879-.287 1.812-.45 2.785-.45s1.906.163 2.785.45zm-11.73 7.55c.314-2.824 1.94-5.256 4.252-6.675l4.693 5.162 4.692-5.162c2.312 1.419 3.939 3.851 4.252 6.675zm24.945-7c0-2.206 1.794-4 4-4s4 1.794 4 4-1.794 4-4 4-4-1.794-4-4zm6.785 6.45-2.785 3.063-2.785-3.063c.879-.287 1.812-.45 2.785-.45s1.906.163 2.785.45zm-11.73 7.55c.314-2.824 1.94-5.256 4.252-6.675l4.693 5.162 4.692-5.162c2.312 1.419 3.939 3.851 4.252 6.675z" fill="#1f81ce" data-original="#000000" style="" class=""/><path xmlns="http://www.w3.org/2000/svg" d="m62.707 2.707-1.414-1.414-7.293 7.293-1.293-1.293-1.414 1.414 2.707 2.707z" fill="#1f81ce" data-original="#000000" style="" class=""/><path xmlns="http://www.w3.org/2000/svg" d="m54 20c1.654 0 3-1.346 3-3s-1.346-3-3-3-3 1.346-3 3 1.346 3 3 3zm0-4c.551 0 1 .449 1 1s-.449 1-1 1-1-.449-1-1 .449-1 1-1z" fill="#1f81ce" data-original="#000000" style="" class=""/><path xmlns="http://www.w3.org/2000/svg" d="m37 8h12v2h-12z" fill="#1f81ce" data-original="#000000" style="" class=""/><path xmlns="http://www.w3.org/2000/svg" d="m37 16h8v2h-8z" fill="#1f81ce" data-original="#000000" style="" class=""/><path xmlns="http://www.w3.org/2000/svg" d="m47 16h2v2h-2z" fill="#1f81ce" data-original="#000000" style="" class=""/><path xmlns="http://www.w3.org/2000/svg" d="m37 12h12v2h-12z" fill="#1f81ce" data-original="#000000" style="" class=""/></g></svg>
